<svg xmlns="http://www.w3.org/2000/svg" xmlns:xlink="http://www.w3.org/1999/xlink" width="1370" zoomAndPan="magnify" viewBox="0 0 1027.5 576" height="768" preserveAspectRatio="xMidYMid meet" version="1.0"><defs><clipPath id="2d04c5f12c"><path d="M 0 0.140625 L 1027 0.140625 L 1027 575.859375 L 0 575.859375 Z M 0 0.140625 " clip-rule="nonzero"/></clipPath><clipPath id="93ae344351"><path d="M 161.160156 0.28125 L 1026.800781 0.28125 L 1026.800781 570 L 161.160156 570 Z M 161.160156 0.28125 " clip-rule="nonzero"/></clipPath></defs><g clip-path="url(#2d04c5f12c)"><path fill="#ffffff" d="M 0 0.140625 L 1027 0.140625 L 1027 575.859375 L 0 575.859375 Z M 0 0.140625 " fill-opacity="1" fill-rule="nonzero"/><path fill="#ffffff" d="M 0 0.140625 L 1027 0.140625 L 1027 575.859375 L 0 575.859375 Z M 0 0.140625 " fill-opacity="1" fill-rule="nonzero"/></g><g clip-path="url(#93ae344351)"><path fill="#fce37c" d="M 1497.082031 412.4375 C 1204.503906 -83.816406 986.292969 -515.519531 824.417969 -872.550781 C 595.785156 -497.078125 223.417969 -281.175781 -171.199219 -269.546875 C -141.429688 -232.363281 -109.757812 -169.515625 -73.171875 -81.511719 C -24.660156 -63.367188 5.3125 -53.144531 13.832031 -50.039062 C 161.273438 0.078125 251.082031 40.671875 317.335938 93.097656 C 383.191406 144.515625 424.6875 200.746094 465.683594 259.28125 C 505.175781 317.917969 545.066406 376.355469 602.101562 429.980469 C 659.03125 483.003906 733.304688 531.117188 839.453125 555.972656 C 942.292969 580.230469 1038.515625 570.605469 1122.011719 544.046875 C 1205.90625 518.085938 1277.070312 475.183594 1340.117188 447.621094 C 1396.949219 422.261719 1446.265625 407.929688 1497.082031 412.4375 Z M 1497.082031 412.4375 " fill-opacity="1" fill-rule="nonzero"/></g></svg>