<svg xmlns="http://www.w3.org/2000/svg" xmlns:xlink="http://www.w3.org/1999/xlink" width="1370" zoomAndPan="magnify" viewBox="0 0 1027.5 576" height="768" preserveAspectRatio="xMidYMid meet" version="1.0"><defs><clipPath id="4e907a6818"><path d="M 0 0.140625 L 1027 0.140625 L 1027 169 L 0 169 Z M 0 0.140625 " clip-rule="nonzero"/></clipPath><clipPath id="f09d8444cb"><path d="M 434.046875 -837.285156 L 1629.085938 -17.765625 L 1080.050781 782.84375 L -114.984375 -36.675781 Z M 434.046875 -837.285156 " clip-rule="nonzero"/></clipPath><clipPath id="00a984aaeb"><path d="M 434.046875 -837.285156 L 1629.085938 -17.765625 L 1080.050781 782.84375 L -114.984375 -36.675781 Z M 434.046875 -837.285156 " clip-rule="nonzero"/></clipPath><clipPath id="2ac686abbd"><path d="M 433.914062 -837.089844 L 1628.921875 -17.589844 L 809.421875 1177.417969 L -385.585938 357.917969 Z M 433.914062 -837.089844 " clip-rule="nonzero"/></clipPath></defs><g clip-path="url(#4e907a6818)"><g clip-path="url(#f09d8444cb)"><g clip-path="url(#00a984aaeb)"><g clip-path="url(#2ac686abbd)"><path fill="#fce37c" d="M -604.789062 -713.199219 C 268.542969 -1121.113281 978.164062 -1510.332031 1539.390625 -1849.816406 C 1499.574219 -1115.347656 1809.09375 -465.058594 2342.621094 -75.59375 C 2266.355469 -52.449219 2163.175781 4.300781 2029.414062 91.117188 C 1945.304688 70.242188 1894.273438 55.992188 1879.578125 52.214844 C 1628.699219 -18.152344 1466.355469 -47.121094 1325.328125 -37.480469 C 1185.796875 -28.84375 1075.328125 9.484375 963.367188 51.464844 C 853.382812 95.003906 743.039062 137.890625 613.59375 157.917969 C 484.859375 177.210938 336.84375 173.316406 166.847656 107.171875 C 1.988281 43.324219 -121.6875 -61.007812 -211.765625 -176.667969 C -302.964844 -291.882812 -360.570312 -418.421875 -421.484375 -516.117188 C -475.910156 -604.890625 -530.394531 -671.335938 -604.789062 -713.199219 Z M -604.789062 -713.199219 " fill-opacity="1" fill-rule="nonzero"/></g></g></g></g></svg>