<svg xmlns="http://www.w3.org/2000/svg" xmlns:xlink="http://www.w3.org/1999/xlink" width="1100" zoomAndPan="magnify" viewBox="0 0 824.88 576" height="768" preserveAspectRatio="xMidYMid meet" version="1.0"><defs><clipPath id="ce1297778c"><path d="M 0 0.0429688 L 723.621094 0.0429688 L 723.621094 545.210938 L 0 545.210938 Z M 0 0.0429688 " clip-rule="nonzero"/></clipPath></defs><g clip-path="url(#ce1297778c)"><path fill="#fce37c" d="M 723.550781 29.734375 C 723.589844 19.789062 722.714844 9.84375 721.023438 0.0429688 L 0.0351562 0.0429688 L 0.0351562 545.476562 C 2.953125 537.257812 6.058594 529.117188 9.722656 521.203125 C 18.820312 501.542969 31.828125 482.886719 50.472656 471.867188 C 64.035156 463.851562 79.863281 460.308594 95.585938 459.367188 C 111.3125 458.425781 127.070312 459.964844 142.746094 461.488281 C 158.425781 463.007812 174.1875 464.511719 189.910156 463.496094 C 205.625 462.484375 221.4375 458.828125 234.925781 450.683594 C 249.929688 441.621094 261.335938 427.410156 269.34375 411.816406 C 277.347656 396.222656 282.179688 379.207031 286.238281 362.152344 C 290.296875 345.097656 293.640625 327.84375 298.910156 311.125 C 304.179688 294.402344 311.492188 278.085938 322.644531 264.5625 C 335.167969 249.375 352.160156 238.242188 370.441406 230.941406 C 388.722656 223.648438 408.296875 220.035156 427.902344 218.277344 C 467.117188 214.761719 506.847656 218.515625 545.824219 212.980469 C 586.476562 207.207031 625.929688 191.015625 657.449219 164.691406 C 688.972656 138.371094 712.21875 101.734375 720.335938 61.480469 C 722.445312 51.03125 723.5 40.386719 723.550781 29.734375 Z M 723.550781 29.734375 " fill-opacity="1" fill-rule="nonzero"/></g></svg>