<svg xmlns="http://www.w3.org/2000/svg" xmlns:xlink="http://www.w3.org/1999/xlink" width="1370" zoomAndPan="magnify" viewBox="0 0 1027.5 576" height="768" preserveAspectRatio="xMidYMid meet" version="1.0"><defs><clipPath id="351ca87cb7"><path d="M 0 0.140625 L 1027 0.140625 L 1027 481 L 0 481 Z M 0 0.140625 " clip-rule="nonzero"/></clipPath></defs><g clip-path="url(#351ca87cb7)"><path fill="#e6a6f8" d="M -354.050781 190.507812 C -333.296875 240.980469 -307.363281 281.570312 -268.175781 319.234375 C -236.480469 349.695312 -199.304688 376.414062 -161.070312 398.179688 C -79.09375 444.839844 7.753906 463.15625 99.835938 475.511719 C 266.3125 497.855469 431.332031 444.132812 585.078125 386.753906 C 666.269531 356.449219 745.8125 322.117188 828.867188 297.003906 C 850.207031 290.546875 873.359375 287.75 895.316406 284.160156 C 885.003906 285.328125 886.046875 285.207031 898.445312 283.792969 C 908.574219 282.632812 918.761719 281.960938 928.933594 281.296875 C 963.023438 279.058594 997.378906 280.769531 1031.488281 281.746094 C 1089.824219 283.414062 1134.664062 289.332031 1188.257812 318.367188 C 1218.316406 334.644531 1237.300781 356.804688 1267.035156 372.671875 C 1292.527344 386.28125 1308.15625 412.109375 1329.390625 431.355469 C 1358.703125 457.929688 1405.71875 439.867188 1406.785156 399.296875 C 1408.445312 336.335938 1370.144531 261.3125 1326.054688 218.910156 C 1276.847656 171.585938 1213.347656 133.988281 1151.011719 106.765625 C 990.78125 36.792969 825.222656 57.925781 657.035156 82.570312 C 571.097656 95.164062 486.652344 115.453125 401.488281 132.15625 C 379.09375 136.546875 356.59375 140.332031 334.046875 143.851562 C 323.128906 145.175781 312.179688 146.175781 301.222656 147.109375 C 265.886719 150.117188 230.945312 152.363281 195.449219 151.722656 C 177.632812 151.398438 159.867188 149.988281 142.117188 148.46875 C 138.15625 148.15625 134.203125 147.726562 130.25 147.34375 C 127.480469 146.992188 124.90625 146.636719 123.089844 146.328125 C 90.683594 140.800781 59.011719 131.710938 28.207031 120.316406 C 21.238281 116.949219 14.359375 113.382812 7.539062 109.722656 C -1.164062 105.050781 -9.546875 99.84375 -17.765625 94.386719 C -12.507812 97.253906 -39.464844 75.785156 -46.332031 68.785156 C -58.390625 56.480469 -68.453125 43.214844 -81.527344 31.863281 C -137.351562 -16.589844 -212.488281 -32.667969 -279.125 6.371094 C -336.4375 39.945312 -381.421875 123.921875 -354.050781 190.507812 Z M -354.050781 190.507812 " fill-opacity="1" fill-rule="nonzero"/></g></svg>