<svg xmlns="http://www.w3.org/2000/svg" xmlns:xlink="http://www.w3.org/1999/xlink" width="1600" zoomAndPan="magnify" viewBox="0 0 1200 599.999999" height="800" preserveAspectRatio="xMidYMid meet" version="1.0"><defs><clipPath id="ae1b5abd22"><path d="M 814 104 L 1185.128906 104 L 1185.128906 600 L 814 600 Z M 814 104 " clip-rule="nonzero"/></clipPath><clipPath id="e1a8f04830"><path d="M 100 312.910156 L 196 312.910156 L 196 419 L 100 419 Z M 100 312.910156 " clip-rule="nonzero"/></clipPath><clipPath id="9870df51d3"><path d="M 225.976562 271.816406 L 293.476562 271.816406 L 293.476562 339.316406 L 225.976562 339.316406 Z M 225.976562 271.816406 " clip-rule="nonzero"/></clipPath><clipPath id="6586e795a7"><path d="M 315.203125 294.519531 L 404.453125 294.519531 L 404.453125 383.769531 L 315.203125 383.769531 Z M 315.203125 294.519531 " clip-rule="nonzero"/></clipPath><clipPath id="cb31498473"><path d="M 426.410156 312.910156 L 547.160156 312.910156 L 547.160156 433.660156 L 426.410156 433.660156 Z M 426.410156 312.910156 " clip-rule="nonzero"/></clipPath><clipPath id="9255e2782d"><path d="M 568.921875 251.554688 L 676.921875 251.554688 L 676.921875 359.554688 L 568.921875 359.554688 Z M 568.921875 251.554688 " clip-rule="nonzero"/></clipPath><clipPath id="9e52f950d2"><path d="M 629.625 132.734375 L 724.125 132.734375 L 724.125 227.234375 L 629.625 227.234375 Z M 629.625 132.734375 " clip-rule="nonzero"/></clipPath><clipPath id="8da882efa3"><path d="M 744.878906 94.449219 L 821.378906 94.449219 L 821.378906 170.949219 L 744.878906 170.949219 Z M 744.878906 94.449219 " clip-rule="nonzero"/></clipPath></defs><g clip-path="url(#ae1b5abd22)"><path fill="#fba249" d="M 1185.144531 613.910156 C 1185.144531 613.910156 1095.671875 524.886719 1071.660156 504.445312 C 1047.644531 484.003906 1030.332031 476.410156 1041.5 423.800781 C 1052.667969 371.191406 1057.359375 358.902344 1102.820312 351.753906 C 1148.28125 344.605469 1165.707031 335.449219 1164.589844 314.449219 C 1164.144531 305.734375 1148.28125 301.269531 1154.984375 285.855469 C 1154.3125 281.273438 1141.691406 272.003906 1141.691406 272.003906 C 1141.691406 272.003906 1149.289062 260.050781 1146.941406 248.660156 C 1146.71875 248.433594 1129.515625 242.179688 1129.183594 238.492188 C 1131.640625 237.265625 1142.921875 221.292969 1131.304688 212.914062 C 1119.6875 204.539062 1100.8125 209.007812 1090.089844 185.214844 C 1079.367188 161.421875 1075.007812 120.09375 1014.132812 105.460938 C 953.257812 90.832031 870.15625 287.527344 870.15625 353.09375 C 870.15625 418.660156 814.085938 614.019531 814.085938 614.019531 L 1185.144531 614.019531 Z M 1185.144531 613.910156 " fill-opacity="1" fill-rule="nonzero"/></g><path fill="#232022" d="M 1141.691406 272.003906 C 1141.691406 272.003906 1145.488281 263.289062 1145.714844 257.484375 C 1145.9375 251.675781 1144.820312 249.105469 1146.941406 248.660156 C 1149.066406 248.210938 1152.414062 255.917969 1151.523438 261.503906 C 1150.628906 267.089844 1144.148438 271.554688 1144.148438 271.554688 C 1144.148438 271.554688 1153.085938 272.003906 1157.21875 276.472656 C 1161.351562 280.828125 1159.453125 285.628906 1154.984375 285.855469 C 1150.515625 286.078125 1141.914062 273.457031 1141.691406 272.003906 Z M 1141.691406 272.003906 " fill-opacity="1" fill-rule="nonzero"/><path fill="#232022" d="M 1075.679688 196.609375 C 1074.675781 196.609375 1074.003906 196.496094 1073.890625 196.496094 C 1073.222656 196.382812 1072.773438 195.824219 1072.773438 195.15625 C 1072.886719 194.484375 1073.445312 194.039062 1074.117188 194.039062 C 1074.226562 194.039062 1084.613281 195.042969 1087.964844 187.894531 C 1088.300781 187.335938 1088.972656 187 1089.53125 187.335938 C 1090.089844 187.671875 1090.421875 188.34375 1090.089844 188.902344 C 1086.960938 195.714844 1079.253906 196.609375 1075.679688 196.609375 Z M 1075.679688 196.609375 " fill-opacity="1" fill-rule="nonzero"/><path fill="#a485be" d="M 1054.457031 171.476562 C 1054.34375 170.695312 1054.34375 170.023438 1054.34375 169.351562 C 1054.34375 168.683594 1054.457031 168.011719 1054.457031 167.34375 C 1054.679688 166.003906 1054.902344 164.664062 1055.351562 163.320312 C 1056.242188 160.753906 1057.695312 158.183594 1059.59375 156.0625 C 1060.601562 155.054688 1061.605469 153.9375 1062.722656 153.15625 C 1063.28125 152.710938 1063.839844 152.265625 1064.507812 151.929688 L 1066.410156 150.8125 C 1067.078125 150.476562 1067.636719 150.140625 1068.308594 149.917969 L 1070.207031 149.136719 C 1071.546875 148.691406 1072.886719 148.355469 1074.117188 147.90625 C 1076.683594 147.125 1079.476562 148.578125 1080.257812 151.148438 C 1081.039062 153.714844 1079.589844 156.507812 1077.019531 157.289062 C 1076.683594 157.402344 1076.351562 157.402344 1076.015625 157.511719 L 1075.679688 157.511719 L 1072.550781 157.847656 L 1070.988281 158.183594 C 1070.429688 158.296875 1069.984375 158.40625 1069.535156 158.519531 L 1068.085938 158.964844 C 1067.636719 159.078125 1067.191406 159.414062 1066.742188 159.523438 C 1066.296875 159.746094 1065.851562 159.972656 1065.402344 160.195312 C 1064.957031 160.417969 1064.507812 160.753906 1064.175781 160.976562 C 1062.5 162.09375 1061.160156 163.65625 1060.042969 165.445312 C 1059.484375 166.335938 1059.035156 167.34375 1058.703125 168.347656 C 1058.589844 168.90625 1058.367188 169.351562 1058.253906 169.910156 C 1058.144531 170.46875 1058.03125 171.027344 1057.917969 171.363281 L 1057.917969 171.699219 C 1057.808594 172.703125 1056.800781 173.375 1055.796875 173.152344 C 1055.128906 172.929688 1054.570312 172.257812 1054.457031 171.476562 Z M 1054.457031 171.476562 " fill-opacity="1" fill-rule="nonzero"/><path fill="#a485be" d="M 1021.058594 104.570312 C 1021.058594 104.570312 1000.058594 120.207031 994.140625 145.339844 C 988.332031 170.46875 1015.140625 181.527344 1015.140625 195.265625 C 1015.140625 209.007812 970.125 201.96875 964.875 218.386719 C 959.625 234.808594 1013.464844 252.234375 988.109375 308.417969 C 962.753906 364.601562 1005.867188 395.539062 964.429688 432.066406 C 922.988281 468.589844 851.726562 472.054688 838.210938 523.546875 C 824.695312 575.039062 814.085938 613.796875 814.085938 613.796875 L 767.171875 613.796875 C 767.171875 613.796875 744.945312 569.898438 774.320312 474.84375 C 803.695312 379.792969 780.6875 192.699219 857.535156 128.582031 C 934.382812 64.46875 1030.554688 95.746094 1021.058594 104.570312 Z M 1021.058594 104.570312 " fill-opacity="1" fill-rule="nonzero"/><path fill="#232022" d="M 997.714844 309.199219 C 997.714844 309.199219 1026.085938 350.636719 1069.757812 351.53125 C 1020.613281 370.96875 997.714844 309.199219 997.714844 309.199219 Z M 997.714844 309.199219 " fill-opacity="1" fill-rule="nonzero"/><path fill="#232022" d="M 1123.484375 238.828125 C 1123.375 238.828125 1123.375 238.828125 1123.261719 238.828125 C 1117.007812 237.824219 1112.539062 231.234375 1112.429688 230.898438 C 1112.09375 230.339844 1112.203125 229.558594 1112.761719 229.222656 C 1113.320312 228.886719 1114.101562 229 1114.4375 229.558594 C 1114.4375 229.671875 1118.570312 235.589844 1123.710938 236.371094 C 1124.378906 236.484375 1124.824219 237.042969 1124.714844 237.710938 C 1124.601562 238.382812 1124.042969 238.828125 1123.484375 238.828125 Z M 1123.484375 238.828125 " fill-opacity="1" fill-rule="nonzero"/><path fill="#232022" d="M 1004.976562 245.308594 C 1004.976562 245.308594 1004.863281 245.308594 1004.976562 245.308594 C 991.90625 244.527344 984.871094 239.386719 981.296875 235.367188 C 977.386719 230.785156 976.492188 226.429688 976.492188 226.320312 C 976.378906 225.648438 976.828125 224.980469 977.496094 224.867188 C 978.167969 224.753906 978.835938 225.203125 978.949219 225.871094 C 979.0625 226.542969 982.078125 241.511719 1005.199219 242.960938 C 1005.867188 242.960938 1006.425781 243.519531 1006.316406 244.191406 C 1006.09375 244.859375 1005.535156 245.308594 1004.976562 245.308594 Z M 1004.976562 245.308594 " fill-opacity="1" fill-rule="nonzero"/><path fill="#fba249" d="M 70.910156 641.464844 C 66.636719 640.394531 55.125 639.136719 55.964844 635.058594 C 57.429688 627.941406 59.601562 628.121094 61.304688 621.71875 C 63.699219 612.695312 69.308594 601.4375 72.507812 591.832031 C 72.980469 590.488281 73.453125 589.214844 73.925781 587.984375 C 73.992188 606.933594 77.410156 625.632812 82.234375 644.527344 C 78.355469 643.625 74.558594 642.617188 70.910156 641.464844 Z M 70.910156 641.464844 " fill-opacity="1" fill-rule="nonzero"/><path fill="#232022" d="M 87.484375 645.667969 C 85.71875 645.308594 83.96875 644.929688 82.234375 644.527344 C 77.410156 625.632812 73.992188 606.9375 73.925781 587.984375 C 75.621094 583.597656 77.34375 579.828125 79.191406 575.605469 C 77.28125 599.230469 81.367188 622.277344 87.484375 645.667969 Z M 87.484375 645.667969 " fill-opacity="1" fill-rule="nonzero"/><path fill="#a485be" d="M 106.480469 357.054688 C 118.21875 356.542969 128.933594 355.523438 139.144531 362.15625 C 139.316406 362.273438 139.492188 362.398438 139.667969 362.515625 C 139.808594 359.988281 139.652344 357.410156 139.652344 354.5 C 138.632812 339.191406 146.289062 336.128906 160.578125 333.066406 C 188.136719 327.457031 218.25 331.535156 209.058594 366.75 C 206 377.46875 208.550781 391.246094 202.425781 400.429688 C 197.542969 408.03125 191.792969 410.722656 185.484375 410.65625 C 195.527344 421.929688 203.6875 433.769531 200.894531 451.46875 C 196.300781 481.578125 171.804688 488.210938 146.289062 489.746094 C 133.527344 490.761719 132 483.617188 127.40625 473.410156 C 123.324219 463.207031 117.707031 454.019531 113.625 443.8125 C 108.523438 431.566406 102.398438 421.355469 92.191406 413.703125 C 87.089844 409.617188 69.738281 397.878906 68.71875 392.269531 C 67.1875 370.832031 87.597656 357.5625 106.480469 357.054688 Z M 106.480469 357.054688 " fill-opacity="1" fill-rule="nonzero"/><path fill="#fba249" d="M 144.449219 591.15625 C 147.011719 571.851562 153.445312 543.847656 176.609375 542.589844 C 185.296875 549.859375 192.464844 559.023438 200.382812 567.824219 C 208.550781 576.5 219.265625 588.238281 222.839844 599.976562 C 225.898438 610.691406 209.570312 623.960938 201.917969 631.617188 C 192.730469 639.78125 183.542969 647.949219 171.292969 648.460938 C 161.824219 648.878906 152.355469 649.109375 142.925781 649.074219 C 142.703125 629.738281 141.898438 610.421875 144.449219 591.15625 Z M 144.449219 591.15625 " fill-opacity="1" fill-rule="nonzero"/><path fill="#fba249" d="M 44.476562 440.234375 C 51.109375 436.40625 49.832031 433.597656 50.089844 427.21875 C 50.089844 422.117188 51.875 417.011719 52.386719 411.910156 C 53.660156 403.234375 60.296875 390.984375 69.992188 389.457031 C 71.523438 388.945312 79.941406 388.433594 81.730469 388.433594 C 94.234375 389.710938 106.738281 399.152344 115.925781 407.0625 C 126.382812 416.246094 132 426.199219 131.488281 439.980469 C 135.570312 437.175781 142.96875 438.445312 146.03125 442.273438 C 152.929688 450.429688 143.21875 464.226562 134.289062 470.214844 C 134.457031 477.601562 133.019531 485.132812 133.019531 492.421875 C 133.019531 497.015625 132.636719 501.992188 133.019531 506.582031 C 133.777344 512.652344 136.039062 513.835938 140.179688 518.328125 C 150.511719 525.023438 163.296875 532.796875 171.445312 538.625 C 151.808594 542.820312 143.839844 565.679688 140.828125 584.46875 C 137.378906 605.949219 138.128906 627.433594 138.335938 649.046875 C 126.4375 648.882812 114.605469 648.253906 102.910156 646.929688 C 97.777344 646.195312 92.652344 645.339844 87.632812 644.3125 C 81.78125 621.945312 77.875 599.902344 79.699219 577.3125 C 81.351562 573.535156 83.109375 569.382812 85.046875 563.996094 C 85.429688 562.933594 86.042969 561.65625 86.679688 560.386719 C 84.765625 545.503906 80.941406 529.117188 74.074219 515.386719 C 72.085938 511.734375 70.085938 506.941406 66.597656 504.234375 C 70.910156 502.648438 75.023438 499.625 79.011719 497.804688 C 85.734375 494.738281 92.460938 491.707031 99.296875 488.921875 C 104.640625 486.742188 109.386719 484.371094 113.082031 479.835938 C 114.8125 477.707031 115.570312 474.707031 118.101562 473.273438 C 121.347656 471.4375 125.183594 471.226562 128.808594 470.789062 C 130.011719 470.644531 130.027344 468.742188 128.808594 468.886719 C 123.632812 469.511719 118.066406 469.734375 114.523438 474.042969 C 112.851562 476.074219 112.003906 478.589844 110.074219 480.46875 C 107.851562 482.636719 105.269531 484.253906 102.445312 485.523438 C 95.957031 488.441406 89.347656 491.089844 82.847656 493.996094 C 79.109375 495.664062 75.355469 497.328125 71.714844 499.210938 C 69.257812 500.480469 67.003906 502.132812 64.398438 502.90625 C 63.347656 502.421875 62.203125 502.167969 61.015625 501.996094 C 51.605469 503.136719 37.308594 503.257812 39.882812 493.566406 C 40.648438 490.503906 43.707031 488.460938 43.707031 485.144531 C 43.707031 482.339844 41.410156 480.296875 41.15625 477.488281 C 40.90625 473.660156 43.199219 473.660156 44.21875 471.109375 C 45.496094 468.300781 43.199219 468.046875 42.6875 464.476562 C 42.179688 462.179688 44.476562 459.117188 43.707031 457.074219 C 43.199219 455.289062 38.863281 453.246094 37.332031 451.460938 C 32.738281 445.339844 39.371094 443.296875 44.476562 440.234375 Z M 44.476562 440.234375 " fill-opacity="1" fill-rule="nonzero"/><path fill="#232022" d="M 140.828125 584.46875 C 143.839844 565.679688 151.808594 542.820312 171.445312 538.625 C 171.738281 538.832031 172.039062 539.042969 172.3125 539.246094 C 173.792969 540.300781 175.214844 541.425781 176.609375 542.589844 C 153.445312 543.847656 147.011719 571.851562 144.449219 591.15625 C 141.898438 610.425781 142.703125 629.738281 142.925781 649.074219 C 141.394531 649.066406 139.867188 649.0625 138.335938 649.046875 C 138.128906 627.433594 137.378906 605.949219 140.828125 584.46875 Z M 140.828125 584.46875 " fill-opacity="1" fill-rule="nonzero"/><g clip-path="url(#e1a8f04830)"><path fill="#000000" d="M 168.234375 392.523438 C 166.699219 364.960938 172.824219 332.046875 146.800781 312.910156 C 145.265625 325.921875 142.972656 341.230469 146.800781 353.480469 C 150.625 367.261719 163.640625 378.742188 166.699219 392.523438 C 150.625 368.027344 128.429688 349.652344 100.101562 342.765625 C 108.523438 364.199219 124.597656 379.507812 146.03125 387.929688 C 167.46875 396.351562 182.78125 396.351562 195.789062 418.550781 C 185.839844 414.722656 169 403.238281 167.46875 392.523438 " fill-opacity="1" fill-rule="nonzero"/></g><path fill="#a485be" d="M 72.875 386.773438 C 61.972656 387.863281 84.867188 400.402344 88.136719 401.492188 C 100.128906 405.308594 104.492188 410.214844 112.121094 420.023438 C 120.300781 430.382812 128.472656 423.296875 138.285156 429.292969 C 135.5625 409.125 93.042969 380.777344 72.875 386.773438 " fill-opacity="1" fill-rule="nonzero"/><path fill="#a485be" d="M 74.511719 392.097656 C 71.238281 388.828125 64.152344 383.375 58.703125 384.464844 C 49.980469 386.101562 48.347656 402.453125 58.703125 403 C 47.253906 394.277344 69.058594 387.191406 76.6875 391.550781 " fill-opacity="1" fill-rule="nonzero"/><g clip-path="url(#9870df51d3)"><path fill="#a485be" d="M 285.328125 282.511719 C 284.011719 280.226562 281.621094 278.949219 279.160156 278.949219 L 279.160156 278.945312 C 276.699219 278.945312 274.308594 277.667969 272.988281 275.382812 C 271.023438 271.976562 266.667969 270.808594 263.257812 272.777344 L 263.257812 272.773438 C 261.140625 273.996094 258.457031 274.089844 256.183594 272.800781 C 255.125 272.179688 253.890625 271.820312 252.570312 271.820312 C 249.933594 271.820312 247.632812 273.253906 246.402344 275.382812 C 245.167969 277.511719 242.867188 278.941406 240.230469 278.941406 C 236.296875 278.941406 233.105469 282.132812 233.105469 286.066406 C 233.101562 288.507812 231.84375 290.878906 229.59375 292.207031 C 228.523438 292.808594 227.59375 293.699219 226.933594 294.84375 C 225.617188 297.125 225.707031 299.835938 226.933594 301.96875 C 228.160156 304.097656 228.25 306.808594 226.933594 309.09375 C 224.964844 312.5 226.132812 316.855469 229.539062 318.824219 C 231.667969 320.054688 233.101562 322.359375 233.101562 324.996094 C 233.101562 328.929688 236.289062 332.117188 240.222656 332.117188 C 242.859375 332.117188 245.164062 333.550781 246.394531 335.679688 C 247.625 337.808594 249.929688 339.242188 252.566406 339.242188 C 253.882812 339.242188 255.117188 338.882812 256.175781 338.257812 C 258.449219 336.96875 261.136719 337.066406 263.25 338.285156 L 263.253906 338.285156 C 266.660156 340.253906 271.015625 339.085938 272.984375 335.675781 C 274.300781 333.394531 276.691406 332.117188 279.152344 332.113281 C 281.613281 332.113281 284.003906 330.835938 285.320312 328.550781 C 285.972656 327.425781 286.277344 326.199219 286.277344 324.988281 C 286.28125 322.617188 287.46875 320.308594 289.601562 318.964844 C 290.753906 318.359375 291.75 317.433594 292.449219 316.226562 C 293.765625 313.941406 293.679688 311.230469 292.449219 309.101562 C 291.222656 306.96875 291.132812 304.257812 292.449219 301.976562 C 294.417969 298.566406 293.25 294.210938 289.84375 292.242188 C 287.730469 291.019531 286.304688 288.746094 286.285156 286.136719 C 286.296875 284.902344 285.988281 283.652344 285.328125 282.511719 " fill-opacity="1" fill-rule="nonzero"/></g><g clip-path="url(#6586e795a7)"><path fill="#a485be" d="M 393.933594 308.707031 C 392.1875 305.675781 389.015625 303.984375 385.75 303.980469 C 382.488281 303.976562 379.316406 302.28125 377.566406 299.253906 C 374.957031 294.734375 369.179688 293.183594 364.65625 295.796875 L 364.65625 295.792969 C 361.851562 297.410156 358.289062 297.539062 355.269531 295.828125 C 353.867188 295 352.230469 294.527344 350.480469 294.527344 C 346.984375 294.527344 343.929688 296.425781 342.296875 299.25 C 340.660156 302.074219 337.605469 303.972656 334.109375 303.972656 C 328.890625 303.972656 324.660156 308.207031 324.660156 313.425781 L 324.65625 313.425781 C 324.652344 316.664062 322.984375 319.8125 320 321.566406 C 318.578125 322.371094 317.347656 323.550781 316.472656 325.066406 C 314.722656 328.097656 314.84375 331.691406 316.472656 334.519531 C 318.097656 337.34375 318.21875 340.941406 316.46875 343.96875 C 313.859375 348.488281 315.410156 354.269531 319.929688 356.878906 L 319.925781 356.878906 C 322.753906 358.511719 324.652344 361.566406 324.652344 365.066406 C 324.652344 370.285156 328.882812 374.515625 334.101562 374.515625 C 337.597656 374.515625 340.652344 376.414062 342.285156 379.238281 C 343.921875 382.0625 346.976562 383.964844 350.472656 383.964844 C 352.222656 383.964844 353.855469 383.488281 355.261719 382.660156 C 358.277344 380.953125 361.839844 381.078125 364.648438 382.699219 L 364.648438 382.695312 C 369.167969 385.304688 374.949219 383.753906 377.558594 379.234375 C 379.308594 376.207031 382.480469 374.511719 385.742188 374.511719 L 385.742188 374.507812 C 389.003906 374.507812 392.179688 372.8125 393.925781 369.785156 C 394.785156 368.292969 395.195312 366.664062 395.195312 365.058594 C 395.199219 361.910156 396.773438 358.847656 399.605469 357.066406 C 401.128906 356.261719 402.453125 355.035156 403.378906 353.429688 C 405.128906 350.402344 405.011719 346.804688 403.382812 343.980469 C 401.753906 341.152344 401.632812 337.558594 403.382812 334.527344 C 405.992188 330.007812 404.445312 324.230469 399.925781 321.621094 L 399.921875 321.617188 L 399.925781 321.617188 C 397.125 319.996094 395.230469 316.976562 395.203125 313.515625 C 395.21875 311.882812 394.8125 310.222656 393.933594 308.707031 " fill-opacity="1" fill-rule="nonzero"/></g><g clip-path="url(#cb31498473)"><path fill="#a485be" d="M 532.695312 332.0625 C 530.335938 327.972656 526.054688 325.683594 521.648438 325.679688 C 517.246094 325.675781 512.960938 323.390625 510.601562 319.300781 C 507.078125 313.199219 499.277344 311.109375 493.175781 314.632812 L 493.171875 314.632812 L 493.171875 314.628906 C 489.382812 316.8125 484.574219 316.984375 480.503906 314.675781 C 478.605469 313.558594 476.394531 312.917969 474.035156 312.917969 C 469.3125 312.917969 465.191406 315.484375 462.984375 319.296875 C 460.78125 323.109375 456.65625 325.671875 451.9375 325.671875 C 444.890625 325.671875 439.179688 331.382812 439.179688 338.429688 L 439.175781 338.429688 C 439.171875 342.800781 436.917969 347.050781 432.890625 349.421875 C 430.972656 350.507812 429.308594 352.101562 428.125 354.148438 C 425.765625 358.238281 425.925781 363.089844 428.125 366.90625 C 430.324219 370.722656 430.484375 375.574219 428.125 379.664062 C 424.601562 385.765625 426.691406 393.566406 432.792969 397.089844 L 432.792969 397.09375 C 436.605469 399.296875 439.167969 403.417969 439.167969 408.140625 C 439.167969 415.1875 444.878906 420.898438 451.925781 420.898438 C 456.648438 420.898438 460.769531 423.460938 462.976562 427.277344 C 465.179688 431.085938 469.304688 433.652344 474.023438 433.652344 C 476.386719 433.652344 478.59375 433.011719 480.492188 431.894531 C 484.5625 429.585938 489.371094 429.757812 493.160156 431.945312 L 493.160156 431.9375 L 493.164062 431.941406 C 499.265625 435.464844 507.066406 433.371094 510.589844 427.269531 C 512.949219 423.183594 517.230469 420.894531 521.636719 420.890625 C 526.042969 420.886719 530.324219 418.597656 532.683594 414.511719 C 533.847656 412.496094 534.398438 410.296875 534.394531 408.128906 L 534.398438 408.132812 C 534.402344 403.882812 536.53125 399.746094 540.351562 397.339844 C 542.410156 396.257812 544.199219 394.597656 545.445312 392.4375 C 547.808594 388.34375 547.648438 383.492188 545.449219 379.675781 C 543.25 375.859375 543.089844 371.007812 545.449219 366.917969 C 548.972656 360.816406 546.882812 353.015625 540.78125 349.492188 C 537 347.300781 534.445312 343.226562 534.40625 338.554688 C 534.429688 336.347656 533.878906 334.109375 532.695312 332.0625 " fill-opacity="1" fill-rule="nonzero"/></g><g clip-path="url(#9255e2782d)"><path fill="#a485be" d="M 663.945312 268.675781 C 661.832031 265.019531 658.003906 262.976562 654.066406 262.972656 C 650.128906 262.96875 646.300781 260.921875 644.191406 257.269531 C 641.039062 251.8125 634.066406 249.945312 628.609375 253.09375 L 628.609375 253.089844 C 625.222656 255.042969 620.921875 255.199219 617.28125 253.132812 C 615.585938 252.132812 613.609375 251.5625 611.5 251.5625 C 607.277344 251.5625 603.59375 253.855469 601.621094 257.265625 L 601.621094 257.261719 C 599.648438 260.671875 595.964844 262.964844 591.742188 262.964844 C 585.445312 262.964844 580.339844 268.070312 580.339844 274.371094 L 580.335938 274.371094 C 580.332031 278.277344 578.316406 282.078125 574.714844 284.199219 C 573 285.167969 571.511719 286.59375 570.457031 288.421875 C 568.347656 292.078125 568.488281 296.414062 570.457031 299.828125 C 572.421875 303.238281 572.5625 307.578125 570.453125 311.234375 C 567.304688 316.6875 569.171875 323.664062 574.628906 326.8125 L 574.625 326.816406 C 578.035156 328.785156 580.328125 332.472656 580.328125 336.691406 C 580.328125 342.992188 585.433594 348.097656 591.730469 348.097656 C 595.953125 348.097656 599.636719 350.390625 601.613281 353.800781 C 603.582031 357.207031 607.269531 359.503906 611.488281 359.503906 C 613.601562 359.503906 615.574219 358.929688 617.269531 357.929688 C 620.910156 355.867188 625.210938 356.019531 628.597656 357.972656 L 628.597656 357.96875 C 634.054688 361.121094 641.03125 359.25 644.179688 353.796875 C 646.289062 350.140625 650.117188 348.09375 654.058594 348.09375 L 654.054688 348.089844 C 657.992188 348.085938 661.824219 346.042969 663.933594 342.386719 C 664.972656 340.585938 665.464844 338.621094 665.460938 336.683594 L 665.464844 336.683594 C 665.46875 332.886719 667.371094 329.1875 670.785156 327.039062 C 672.628906 326.070312 674.226562 324.585938 675.34375 322.652344 C 677.453125 318.996094 677.308594 314.65625 675.34375 311.246094 C 673.378906 307.832031 673.234375 303.496094 675.347656 299.839844 C 678.496094 294.382812 676.625 287.410156 671.171875 284.261719 L 671.171875 284.257812 C 667.792969 282.300781 665.507812 278.660156 665.472656 274.480469 C 665.492188 272.507812 665 270.507812 663.945312 268.675781 " fill-opacity="1" fill-rule="nonzero"/></g><g clip-path="url(#9e52f950d2)"><path fill="#a485be" d="M 712.804688 147.71875 C 710.957031 144.519531 707.605469 142.730469 704.15625 142.726562 L 704.160156 142.726562 C 700.710938 142.722656 697.359375 140.933594 695.511719 137.734375 C 692.753906 132.957031 686.648438 131.324219 681.875 134.082031 L 681.875 134.078125 C 678.90625 135.785156 675.144531 135.921875 671.957031 134.113281 C 670.472656 133.242188 668.742188 132.738281 666.894531 132.738281 C 663.199219 132.738281 659.976562 134.746094 658.25 137.730469 C 656.523438 140.714844 653.296875 142.722656 649.601562 142.722656 C 644.085938 142.722656 639.617188 147.191406 639.617188 152.703125 L 639.617188 152.707031 L 639.613281 152.703125 C 639.609375 156.125 637.847656 159.453125 634.695312 161.308594 C 633.191406 162.15625 631.890625 163.402344 630.96875 165.003906 C 629.121094 168.207031 629.246094 172.003906 630.964844 174.988281 C 632.6875 177.976562 632.8125 181.773438 630.964844 184.972656 C 628.207031 189.75 629.84375 195.855469 634.617188 198.613281 L 634.621094 198.613281 L 634.617188 198.613281 C 637.601562 200.339844 639.609375 203.566406 639.609375 207.261719 C 639.609375 212.773438 644.078125 217.246094 649.589844 217.246094 C 653.289062 217.246094 656.511719 219.253906 658.238281 222.234375 C 659.964844 225.21875 663.191406 227.226562 666.886719 227.226562 C 668.734375 227.226562 670.464844 226.726562 671.949219 225.851562 C 675.132812 224.042969 678.898438 224.179688 681.863281 225.890625 L 681.863281 225.886719 C 686.640625 228.644531 692.746094 227.007812 695.503906 222.230469 C 697.351562 219.03125 700.703125 217.242188 704.148438 217.238281 C 707.597656 217.234375 710.949219 215.445312 712.792969 212.246094 C 713.703125 210.671875 714.136719 208.949219 714.132812 207.253906 L 714.136719 207.253906 C 714.136719 203.929688 715.804688 200.691406 718.792969 198.808594 C 720.40625 197.960938 721.804688 196.664062 722.78125 194.96875 C 724.628906 191.769531 724.503906 187.972656 722.785156 184.984375 C 721.0625 182 720.9375 178.199219 722.785156 175 C 725.542969 170.226562 723.90625 164.121094 719.132812 161.363281 L 719.128906 161.363281 L 719.132812 161.359375 C 716.171875 159.648438 714.175781 156.460938 714.140625 152.800781 C 714.160156 151.074219 713.730469 149.324219 712.804688 147.71875 " fill-opacity="1" fill-rule="nonzero"/></g><g clip-path="url(#8da882efa3)"><path fill="#a485be" d="M 812.273438 106.589844 C 810.777344 104 808.0625 102.546875 805.269531 102.546875 C 802.476562 102.542969 799.761719 101.09375 798.261719 98.5 C 796.03125 94.628906 791.082031 93.304688 787.210938 95.539062 L 787.210938 95.535156 C 784.808594 96.921875 781.757812 97.03125 779.175781 95.566406 C 777.972656 94.859375 776.574219 94.453125 775.078125 94.453125 C 772.082031 94.453125 769.46875 96.078125 768.070312 98.496094 C 766.671875 100.914062 764.058594 102.539062 761.0625 102.539062 C 756.59375 102.539062 752.972656 106.160156 752.972656 110.628906 C 752.96875 113.402344 751.539062 116.097656 748.984375 117.601562 C 747.769531 118.289062 746.714844 119.296875 745.964844 120.597656 C 744.46875 123.191406 744.570312 126.265625 745.964844 128.6875 C 747.359375 131.105469 747.460938 134.183594 745.960938 136.777344 C 743.730469 140.644531 745.054688 145.59375 748.921875 147.828125 L 748.925781 147.828125 L 748.921875 147.828125 C 751.339844 149.226562 752.964844 151.839844 752.964844 154.835938 C 752.964844 159.304688 756.585938 162.925781 761.054688 162.925781 C 764.050781 162.925781 766.664062 164.550781 768.0625 166.96875 C 769.460938 169.386719 772.074219 171.011719 775.070312 171.011719 C 776.566406 171.011719 777.96875 170.605469 779.167969 169.898438 C 781.75 168.433594 784.800781 168.542969 787.203125 169.929688 L 787.203125 169.925781 C 791.074219 172.160156 796.023438 170.835938 798.257812 166.964844 C 799.753906 164.375 802.46875 162.921875 805.261719 162.921875 L 805.261719 162.917969 C 808.054688 162.917969 810.769531 161.464844 812.265625 158.875 C 813.003906 157.597656 813.351562 156.203125 813.351562 154.828125 C 813.355469 152.136719 814.707031 149.511719 817.128906 147.988281 C 818.433594 147.300781 819.566406 146.246094 820.359375 144.875 C 821.855469 142.28125 821.753906 139.207031 820.359375 136.785156 C 818.96875 134.367188 818.863281 131.289062 820.363281 128.695312 C 822.597656 124.824219 821.269531 119.878906 817.402344 117.644531 L 817.398438 117.644531 L 817.402344 117.644531 C 815.003906 116.257812 813.382812 113.671875 813.359375 110.707031 C 813.371094 109.308594 813.023438 107.890625 812.273438 106.589844 " fill-opacity="1" fill-rule="nonzero"/></g></svg>