<svg xmlns="http://www.w3.org/2000/svg" xmlns:xlink="http://www.w3.org/1999/xlink" width="1100" zoomAndPan="magnify" viewBox="0 0 824.88 576" height="768" preserveAspectRatio="xMidYMid meet" version="1.0"><defs><clipPath id="1a72638008"><path d="M 170.300781 45.859375 L 654.730469 45.859375 L 654.730469 530.289062 L 170.300781 530.289062 Z M 170.300781 45.859375 " clip-rule="nonzero"/></clipPath><clipPath id="9877840705"><path d="M 167.226562 42.789062 L 657.65625 42.789062 L 657.65625 533.214844 L 167.226562 533.214844 Z M 167.226562 42.789062 " clip-rule="nonzero"/></clipPath></defs><g clip-path="url(#1a72638008)"><path fill="#292929" d="M 654.578125 287.996094 C 654.578125 291.960938 654.480469 295.921875 654.285156 299.878906 C 654.089844 303.835938 653.796875 307.789062 653.410156 311.730469 C 653.023438 315.675781 652.535156 319.605469 651.957031 323.527344 C 651.375 327.445312 650.695312 331.351562 649.921875 335.238281 C 649.152344 339.125 648.28125 342.988281 647.320312 346.832031 C 646.355469 350.675781 645.300781 354.496094 644.148438 358.285156 C 643 362.078125 641.757812 365.839844 640.421875 369.570312 C 639.085938 373.304688 637.660156 377 636.144531 380.660156 C 634.628906 384.320312 633.023438 387.941406 631.328125 391.523438 C 629.632812 395.109375 627.851562 398.644531 625.984375 402.140625 C 624.117188 405.636719 622.164062 409.082031 620.125 412.480469 C 618.089844 415.878906 615.96875 419.226562 613.769531 422.523438 C 611.566406 425.816406 609.285156 429.054688 606.925781 432.238281 C 604.566406 435.421875 602.128906 438.546875 599.613281 441.609375 C 597.097656 444.671875 594.511719 447.671875 591.851562 450.609375 C 589.1875 453.542969 586.457031 456.414062 583.65625 459.214844 C 580.851562 462.019531 577.984375 464.75 575.046875 467.410156 C 572.113281 470.070312 569.113281 472.660156 566.046875 475.171875 C 562.984375 477.6875 559.863281 480.125 556.679688 482.484375 C 553.496094 484.847656 550.257812 487.128906 546.960938 489.328125 C 543.667969 491.53125 540.320312 493.648438 536.921875 495.6875 C 533.523438 497.722656 530.074219 499.675781 526.582031 501.542969 C 523.085938 503.414062 519.546875 505.195312 515.964844 506.886719 C 512.382812 508.582031 508.761719 510.1875 505.101562 511.703125 C 501.4375 513.222656 497.742188 514.648438 494.011719 515.980469 C 490.28125 517.316406 486.519531 518.558594 482.726562 519.710938 C 478.933594 520.859375 475.117188 521.917969 471.273438 522.878906 C 467.429688 523.84375 463.5625 524.710938 459.675781 525.484375 C 455.789062 526.257812 451.886719 526.933594 447.964844 527.515625 C 444.046875 528.097656 440.113281 528.582031 436.171875 528.96875 C 432.226562 529.359375 428.277344 529.648438 424.320312 529.84375 C 420.359375 530.039062 416.402344 530.136719 412.4375 530.136719 C 408.476562 530.136719 404.515625 530.039062 400.554688 529.84375 C 396.597656 529.648438 392.648438 529.359375 388.703125 528.96875 C 384.761719 528.582031 380.828125 528.097656 376.910156 527.515625 C 372.988281 526.933594 369.085938 526.257812 365.199219 525.484375 C 361.3125 524.710938 357.445312 523.84375 353.601562 522.878906 C 349.757812 521.917969 345.941406 520.859375 342.148438 519.710938 C 338.355469 518.558594 334.59375 517.316406 330.863281 515.980469 C 327.132812 514.648438 323.4375 513.222656 319.773438 511.703125 C 316.113281 510.1875 312.492188 508.582031 308.910156 506.886719 C 305.328125 505.195312 301.789062 503.414062 298.292969 501.542969 C 294.800781 499.675781 291.351562 497.722656 287.953125 495.6875 C 284.554688 493.648438 281.207031 491.53125 277.914062 489.328125 C 274.617188 487.128906 271.378906 484.847656 268.195312 482.484375 C 265.011719 480.125 261.890625 477.6875 258.828125 475.171875 C 255.761719 472.660156 252.761719 470.070312 249.828125 467.410156 C 246.890625 464.75 244.023438 462.019531 241.21875 459.214844 C 238.417969 456.414062 235.6875 453.542969 233.023438 450.609375 C 230.363281 447.671875 227.777344 444.671875 225.261719 441.609375 C 222.75 438.546875 220.3125 435.421875 217.949219 432.238281 C 215.589844 429.054688 213.308594 425.816406 211.105469 422.523438 C 208.90625 419.226562 206.785156 415.878906 204.75 412.480469 C 202.710938 409.082031 200.757812 405.636719 198.890625 402.140625 C 197.023438 398.644531 195.242188 395.109375 193.546875 391.523438 C 191.851562 387.941406 190.246094 384.320312 188.730469 380.660156 C 187.214844 377 185.789062 373.304688 184.453125 369.570312 C 183.117188 365.839844 181.875 362.078125 180.726562 358.285156 C 179.574219 354.496094 178.519531 350.675781 177.554688 346.832031 C 176.59375 342.988281 175.726562 339.125 174.953125 335.238281 C 174.179688 331.351562 173.5 327.445312 172.917969 323.527344 C 172.339844 319.605469 171.851562 315.675781 171.464844 311.730469 C 171.078125 307.789062 170.785156 303.835938 170.589844 299.878906 C 170.394531 295.921875 170.300781 291.960938 170.300781 287.996094 C 170.300781 284.035156 170.394531 280.074219 170.589844 276.117188 C 170.785156 272.160156 171.078125 268.207031 171.464844 264.265625 C 171.851562 260.320312 172.339844 256.386719 172.917969 252.46875 C 173.5 248.546875 174.179688 244.644531 174.953125 240.757812 C 175.726562 236.871094 176.59375 233.007812 177.554688 229.164062 C 178.519531 225.320312 179.574219 221.5 180.726562 217.707031 C 181.875 213.917969 183.117188 210.15625 184.453125 206.421875 C 185.789062 202.691406 187.214844 198.996094 188.730469 195.335938 C 190.246094 191.675781 191.851562 188.050781 193.546875 184.46875 C 195.242188 180.886719 197.023438 177.347656 198.890625 173.855469 C 200.757812 170.359375 202.710938 166.914062 204.75 163.511719 C 206.785156 160.113281 208.90625 156.769531 211.105469 153.472656 C 213.308594 150.179688 215.589844 146.9375 217.949219 143.757812 C 220.3125 140.574219 222.75 137.449219 225.261719 134.386719 C 227.777344 131.324219 230.363281 128.324219 233.023438 125.386719 C 235.6875 122.449219 238.417969 119.582031 241.21875 116.78125 C 244.023438 113.976562 246.890625 111.246094 249.828125 108.585938 C 252.761719 105.921875 255.761719 103.335938 258.828125 100.820312 C 261.890625 98.308594 265.011719 95.871094 268.195312 93.511719 C 271.378906 91.148438 274.617188 88.867188 277.914062 86.667969 C 281.207031 84.464844 284.554688 82.347656 287.953125 80.308594 C 291.351562 78.269531 294.800781 76.320312 298.292969 74.449219 C 301.789062 72.582031 305.328125 70.800781 308.910156 69.105469 C 312.492188 67.414062 316.113281 65.808594 319.773438 64.289062 C 323.4375 62.773438 327.132812 61.347656 330.863281 60.011719 C 334.59375 58.679688 338.355469 57.4375 342.148438 56.285156 C 345.941406 55.136719 349.757812 54.078125 353.601562 53.117188 C 357.445312 52.152344 361.3125 51.285156 365.199219 50.511719 C 369.085938 49.738281 372.988281 49.0625 376.910156 48.480469 C 380.828125 47.898438 384.761719 47.414062 388.703125 47.023438 C 392.648438 46.636719 396.597656 46.34375 400.554688 46.152344 C 404.515625 45.957031 408.476562 45.859375 412.4375 45.859375 C 416.402344 45.859375 420.359375 45.957031 424.320312 46.152344 C 428.277344 46.34375 432.226562 46.636719 436.171875 47.023438 C 440.113281 47.414062 444.046875 47.898438 447.964844 48.480469 C 451.886719 49.0625 455.789062 49.738281 459.675781 50.511719 C 463.5625 51.285156 467.429688 52.152344 471.273438 53.117188 C 475.117188 54.078125 478.933594 55.136719 482.726562 56.285156 C 486.519531 57.4375 490.28125 58.679688 494.011719 60.011719 C 497.742188 61.347656 501.4375 62.773438 505.101562 64.289062 C 508.761719 65.808594 512.382812 67.414062 515.964844 69.105469 C 519.546875 70.800781 523.085938 72.582031 526.582031 74.449219 C 530.074219 76.320312 533.523438 78.269531 536.921875 80.308594 C 540.320312 82.347656 543.667969 84.464844 546.960938 86.667969 C 550.257812 88.867188 553.496094 91.148438 556.679688 93.511719 C 559.863281 95.871094 562.984375 98.308594 566.046875 100.820312 C 569.113281 103.335938 572.113281 105.921875 575.046875 108.585938 C 577.984375 111.246094 580.851562 113.976562 583.65625 116.78125 C 586.457031 119.582031 589.1875 122.449219 591.851562 125.386719 C 594.511719 128.324219 597.097656 131.324219 599.613281 134.386719 C 602.128906 137.449219 604.566406 140.574219 606.925781 143.757812 C 609.285156 146.9375 611.566406 150.179688 613.769531 153.472656 C 615.96875 156.769531 618.089844 160.113281 620.125 163.511719 C 622.164062 166.914062 624.117188 170.359375 625.984375 173.855469 C 627.851562 177.347656 629.632812 180.886719 631.328125 184.46875 C 633.023438 188.050781 634.628906 191.675781 636.144531 195.335938 C 637.660156 198.996094 639.085938 202.691406 640.421875 206.421875 C 641.757812 210.15625 643 213.917969 644.148438 217.707031 C 645.300781 221.5 646.355469 225.320312 647.320312 229.164062 C 648.28125 233.007812 649.152344 236.871094 649.921875 240.757812 C 650.695312 244.644531 651.375 248.546875 651.957031 252.46875 C 652.535156 256.386719 653.023438 260.320312 653.410156 264.265625 C 653.796875 268.207031 654.089844 272.160156 654.285156 276.117188 C 654.480469 280.074219 654.578125 284.035156 654.578125 287.996094 Z M 654.578125 287.996094 " fill-opacity="1" fill-rule="nonzero"/></g><path fill="#e6a6f8" d="M 489.28125 332.980469 C 487.503906 332.980469 485.730469 333.074219 483.964844 333.269531 C 482.195312 333.460938 480.445312 333.753906 478.710938 334.140625 C 476.976562 334.527344 475.265625 335.007812 473.585938 335.582031 C 471.902344 336.15625 470.257812 336.820312 468.648438 337.578125 C 467.039062 338.335938 465.476562 339.175781 463.960938 340.105469 C 462.445312 341.035156 460.984375 342.042969 459.582031 343.132812 C 458.175781 344.222656 456.835938 345.386719 455.558594 346.625 C 454.285156 347.863281 453.082031 349.167969 451.949219 350.539062 L 346.882812 300.769531 C 347.472656 297.703125 347.773438 294.609375 347.777344 291.484375 C 347.777344 287.875 347.375 284.308594 346.574219 280.789062 L 452.832031 226.546875 C 453.449219 227.25 454.085938 227.933594 454.746094 228.601562 C 455.402344 229.265625 456.078125 229.910156 456.773438 230.539062 C 457.46875 231.164062 458.179688 231.769531 458.910156 232.355469 C 459.640625 232.941406 460.386719 233.503906 461.152344 234.046875 C 461.914062 234.589844 462.691406 235.109375 463.484375 235.605469 C 464.277344 236.101562 465.085938 236.574219 465.90625 237.027344 C 466.726562 237.476562 467.558594 237.902344 468.402344 238.304688 C 469.25 238.707031 470.105469 239.082031 470.972656 239.433594 C 471.839844 239.789062 472.714844 240.113281 473.601562 240.414062 C 474.488281 240.71875 475.382812 240.992188 476.285156 241.242188 C 477.183594 241.492188 478.09375 241.714844 479.007812 241.914062 C 479.921875 242.109375 480.84375 242.28125 481.769531 242.421875 C 482.691406 242.566406 483.621094 242.683594 484.550781 242.773438 C 485.484375 242.863281 486.417969 242.925781 487.351562 242.960938 C 488.289062 243 489.222656 243.007812 490.160156 242.988281 C 491.09375 242.96875 492.027344 242.925781 492.960938 242.851562 C 493.894531 242.78125 494.824219 242.679688 495.75 242.554688 C 496.679688 242.425781 497.601562 242.273438 498.519531 242.09375 C 499.4375 241.914062 500.351562 241.707031 501.257812 241.476562 C 502.164062 241.242188 503.0625 240.984375 503.953125 240.699219 C 504.84375 240.414062 505.726562 240.101562 506.601562 239.765625 C 507.476562 239.429688 508.335938 239.070312 509.191406 238.683594 C 510.042969 238.296875 510.882812 237.886719 511.710938 237.453125 C 512.539062 237.019531 513.355469 236.558594 514.160156 236.078125 C 514.960938 235.59375 515.75 235.089844 516.519531 234.5625 C 517.292969 234.035156 518.050781 233.484375 518.792969 232.914062 C 519.53125 232.34375 520.257812 231.75 520.964844 231.136719 C 521.671875 230.523438 522.359375 229.890625 523.027344 229.238281 C 523.699219 228.582031 524.347656 227.910156 524.980469 227.21875 C 525.609375 226.527344 526.222656 225.820312 526.8125 225.09375 C 527.402344 224.367188 527.96875 223.625 528.515625 222.863281 C 529.0625 222.105469 529.589844 221.332031 530.089844 220.539062 C 530.59375 219.75 531.070312 218.949219 531.527344 218.128906 C 531.980469 217.3125 532.414062 216.480469 532.820312 215.640625 C 533.226562 214.796875 533.609375 213.945312 533.96875 213.078125 C 534.324219 212.214844 534.660156 211.339844 534.964844 210.457031 C 535.273438 209.570312 535.554688 208.679688 535.808594 207.78125 C 536.066406 206.878906 536.292969 205.972656 536.496094 205.058594 C 536.699219 204.144531 536.875 203.226562 537.027344 202.300781 C 537.175781 201.378906 537.296875 200.453125 537.394531 199.519531 C 537.488281 198.589844 537.558594 197.65625 537.601562 196.722656 C 537.644531 195.785156 537.65625 194.851562 537.644531 193.914062 C 537.632812 192.980469 537.59375 192.046875 537.527344 191.113281 C 537.460938 190.179688 537.367188 189.246094 537.246094 188.320312 C 537.125 187.390625 536.980469 186.46875 536.804688 185.546875 C 536.628906 184.628906 536.429688 183.714844 536.203125 182.808594 C 535.976562 181.898438 535.722656 181 535.445312 180.105469 C 535.164062 179.210938 534.859375 178.328125 534.53125 177.453125 C 534.199219 176.578125 533.84375 175.710938 533.464844 174.855469 C 533.082031 174 532.679688 173.160156 532.25 172.328125 C 531.820312 171.496094 531.367188 170.675781 530.890625 169.871094 C 530.410156 169.066406 529.914062 168.277344 529.390625 167.5 C 528.867188 166.722656 528.324219 165.964844 527.753906 165.21875 C 527.1875 164.472656 526.601562 163.746094 525.992188 163.035156 C 525.382812 162.324219 524.753906 161.632812 524.105469 160.957031 C 523.457031 160.285156 522.789062 159.628906 522.101562 158.992188 C 521.414062 158.359375 520.710938 157.742188 519.988281 157.148438 C 519.265625 156.554688 518.523438 155.980469 517.769531 155.429688 C 517.011719 154.878906 516.242188 154.347656 515.457031 153.839844 C 514.667969 153.332031 513.867188 152.851562 513.054688 152.390625 C 512.238281 151.929688 511.410156 151.492188 510.570312 151.078125 C 509.730469 150.667969 508.878906 150.277344 508.019531 149.914062 C 507.15625 149.550781 506.285156 149.214844 505.402344 148.898438 C 504.519531 148.585938 503.628906 148.300781 502.730469 148.039062 C 501.832031 147.777344 500.925781 147.542969 500.015625 147.335938 C 499.101562 147.125 498.183594 146.941406 497.261719 146.789062 C 496.339844 146.632812 495.414062 146.503906 494.480469 146.402344 C 493.550781 146.300781 492.621094 146.222656 491.683594 146.175781 C 490.75 146.128906 489.816406 146.109375 488.878906 146.113281 C 487.945312 146.121094 487.007812 146.152344 486.074219 146.214844 C 485.140625 146.273438 484.210938 146.363281 483.28125 146.476562 C 482.351562 146.589844 481.425781 146.734375 480.507812 146.902344 C 479.585938 147.070312 478.671875 147.261719 477.761719 147.484375 C 476.851562 147.707031 475.949219 147.953125 475.054688 148.226562 C 474.160156 148.5 473.273438 148.796875 472.394531 149.125 C 471.519531 149.449219 470.652344 149.796875 469.792969 150.171875 C 468.9375 150.546875 468.089844 150.949219 467.257812 151.371094 C 466.421875 151.796875 465.601562 152.242188 464.792969 152.714844 C 463.984375 153.1875 463.191406 153.679688 462.410156 154.199219 C 461.632812 154.71875 460.867188 155.257812 460.117188 155.820312 C 459.371094 156.378906 458.640625 156.964844 457.925781 157.566406 C 457.210938 158.171875 456.511719 158.796875 455.835938 159.441406 C 455.15625 160.085938 454.496094 160.75 453.859375 161.433594 C 453.21875 162.117188 452.597656 162.816406 452 163.535156 C 451.398438 164.253906 450.820312 164.988281 450.265625 165.742188 C 449.707031 166.496094 449.175781 167.261719 448.660156 168.046875 C 448.148438 168.828125 447.660156 169.625 447.195312 170.4375 C 446.730469 171.25 446.285156 172.074219 445.867188 172.910156 C 445.449219 173.75 445.058594 174.597656 444.6875 175.457031 C 444.320312 176.316406 443.976562 177.1875 443.65625 178.066406 C 443.339844 178.945312 443.046875 179.835938 442.777344 180.730469 C 442.511719 181.628906 442.269531 182.53125 442.054688 183.445312 C 441.839844 184.355469 441.652344 185.269531 441.492188 186.191406 C 441.332031 187.113281 441.195312 188.039062 441.085938 188.96875 C 440.980469 189.898438 440.898438 190.832031 440.84375 191.765625 C 440.789062 192.699219 440.765625 193.636719 440.765625 194.570312 C 440.769531 198.175781 441.167969 201.738281 441.957031 205.253906 L 335.609375 259.507812 C 334.527344 258.277344 333.382812 257.105469 332.183594 255.988281 C 330.980469 254.871094 329.726562 253.820312 328.417969 252.832031 C 327.105469 251.84375 325.75 250.925781 324.351562 250.074219 C 322.949219 249.222656 321.503906 248.445312 320.023438 247.742188 C 318.542969 247.039062 317.03125 246.410156 315.484375 245.859375 C 313.941406 245.308594 312.371094 244.839844 310.777344 244.449219 C 309.1875 244.058594 307.578125 243.746094 305.953125 243.519531 C 304.328125 243.292969 302.699219 243.148438 301.058594 243.085938 C 299.421875 243.023438 297.78125 243.042969 296.144531 243.148438 C 294.507812 243.253906 292.882812 243.441406 291.265625 243.710938 C 289.648438 243.980469 288.046875 244.328125 286.464844 244.761719 C 284.882812 245.195312 283.328125 245.703125 281.796875 246.292969 C 280.265625 246.886719 278.769531 247.550781 277.308594 248.292969 C 275.84375 249.035156 274.425781 249.847656 273.042969 250.734375 C 271.664062 251.621094 270.332031 252.574219 269.050781 253.597656 C 267.765625 254.621094 266.539062 255.703125 265.367188 256.847656 C 264.195312 257.996094 263.082031 259.199219 262.03125 260.457031 C 260.980469 261.71875 259.996094 263.027344 259.078125 264.386719 C 258.160156 265.746094 257.316406 267.148438 256.539062 268.59375 C 255.765625 270.039062 255.0625 271.519531 254.4375 273.035156 C 253.8125 274.550781 253.269531 276.09375 252.800781 277.667969 C 252.332031 279.238281 251.945312 280.828125 251.636719 282.441406 C 251.332031 284.050781 251.105469 285.675781 250.964844 287.308594 C 250.824219 288.941406 250.765625 290.578125 250.789062 292.21875 C 250.8125 293.859375 250.921875 295.492188 251.113281 297.121094 C 251.304688 298.75 251.574219 300.367188 251.929688 301.964844 C 252.285156 303.566406 252.71875 305.148438 253.234375 306.703125 C 253.75 308.261719 254.34375 309.789062 255.011719 311.285156 C 255.683594 312.78125 256.425781 314.242188 257.246094 315.664062 C 258.0625 317.082031 258.949219 318.460938 259.910156 319.789062 C 260.867188 321.121094 261.890625 322.402344 262.976562 323.628906 C 264.066406 324.855469 265.214844 326.023438 266.417969 327.136719 C 267.625 328.246094 268.886719 329.292969 270.199219 330.273438 C 271.511719 331.257812 272.871094 332.171875 274.277344 333.015625 C 275.683594 333.859375 277.128906 334.632812 278.613281 335.328125 C 280.097656 336.027344 281.613281 336.648438 283.160156 337.191406 C 284.707031 337.738281 286.277344 338.199219 287.871094 338.585938 C 289.464844 338.96875 291.074219 339.273438 292.699219 339.492188 C 294.324219 339.714844 295.957031 339.851562 297.597656 339.90625 C 299.234375 339.964844 300.871094 339.933594 302.507812 339.824219 C 304.144531 339.714844 305.773438 339.519531 307.386719 339.242188 C 309.003906 338.964844 310.601562 338.609375 312.183594 338.171875 C 313.761719 337.730469 315.316406 337.214844 316.84375 336.617188 C 318.371094 336.019531 319.867188 335.347656 321.324219 334.601562 C 322.785156 333.851562 324.203125 333.03125 325.578125 332.140625 C 326.957031 331.25 328.28125 330.289062 329.5625 329.261719 C 330.839844 328.234375 332.0625 327.144531 333.230469 325.996094 C 334.398438 324.84375 335.507812 323.636719 336.550781 322.371094 L 441.660156 372.140625 C 441.34375 373.761719 441.113281 375.394531 440.960938 377.039062 C 440.8125 378.683594 440.746094 380.332031 440.765625 381.984375 C 440.78125 383.636719 440.886719 385.285156 441.074219 386.925781 C 441.261719 388.566406 441.53125 390.195312 441.882812 391.808594 C 442.238281 393.421875 442.671875 395.015625 443.1875 396.582031 C 443.703125 398.152344 444.300781 399.691406 444.972656 401.199219 C 445.648438 402.710938 446.398438 404.179688 447.222656 405.613281 C 448.046875 407.042969 448.941406 408.429688 449.90625 409.769531 C 450.871094 411.109375 451.902344 412.398438 453 413.632812 C 454.097656 414.867188 455.257812 416.042969 456.476562 417.160156 C 457.691406 418.277344 458.964844 419.328125 460.289062 420.3125 C 461.613281 421.300781 462.988281 422.214844 464.40625 423.0625 C 465.824219 423.90625 467.285156 424.679688 468.78125 425.375 C 470.28125 426.074219 471.808594 426.691406 473.371094 427.230469 C 474.933594 427.773438 476.515625 428.230469 478.125 428.609375 C 479.734375 428.988281 481.355469 429.28125 482.996094 429.496094 C 484.632812 429.707031 486.28125 429.835938 487.929688 429.878906 C 489.582031 429.921875 491.230469 429.882812 492.878906 429.757812 C 494.527344 429.632812 496.164062 429.425781 497.789062 429.132812 C 499.414062 428.839844 501.023438 428.464844 502.609375 428.007812 C 504.199219 427.550781 505.757812 427.015625 507.292969 426.398438 C 508.824219 425.785156 510.320312 425.089844 511.785156 424.320312 C 513.246094 423.550781 514.664062 422.710938 516.042969 421.796875 C 517.417969 420.882812 518.742188 419.898438 520.019531 418.847656 C 521.292969 417.796875 522.511719 416.6875 523.675781 415.511719 C 524.835938 414.335938 525.933594 413.105469 526.96875 411.816406 C 528.007812 410.53125 528.972656 409.195312 529.871094 407.808594 C 530.773438 406.421875 531.597656 404.992188 532.351562 403.523438 C 533.105469 402.050781 533.78125 400.546875 534.378906 399.007812 C 534.976562 397.46875 535.496094 395.902344 535.933594 394.308594 C 536.375 392.714844 536.730469 391.105469 537.003906 389.476562 C 537.277344 387.847656 537.46875 386.207031 537.574219 384.558594 C 537.679688 382.910156 537.703125 381.261719 537.640625 379.609375 C 537.578125 377.957031 537.433594 376.316406 537.203125 374.679688 C 536.972656 373.042969 536.65625 371.421875 536.261719 369.820312 C 535.867188 368.214844 535.386719 366.636719 534.832031 365.078125 C 534.273438 363.523438 533.636719 362.003906 532.921875 360.511719 C 532.210938 359.023438 531.421875 357.570312 530.5625 356.164062 C 529.699219 354.753906 528.765625 353.390625 527.765625 352.078125 C 526.765625 350.761719 525.699219 349.503906 524.570312 348.296875 C 523.441406 347.09375 522.25 345.949219 521.003906 344.863281 C 519.757812 343.78125 518.457031 342.761719 517.105469 341.8125 C 515.753906 340.859375 514.359375 339.980469 512.917969 339.171875 C 511.476562 338.367188 510 337.632812 508.484375 336.976562 C 506.96875 336.320312 505.421875 335.742188 503.847656 335.242188 C 502.269531 334.742188 500.675781 334.328125 499.058594 333.992188 C 497.4375 333.65625 495.808594 333.402344 494.164062 333.234375 C 492.523438 333.066406 490.875 332.980469 489.222656 332.980469 Z M 489.28125 332.980469 " fill-opacity="1" fill-rule="nonzero"/><g clip-path="url(#9877840705)"><path fill="#292929" d="M 657.644531 287.996094 C 657.644531 292.007812 657.546875 296.019531 657.347656 300.027344 C 657.152344 304.035156 656.855469 308.035156 656.464844 312.03125 C 656.070312 316.023438 655.578125 320.007812 654.992188 323.976562 C 654.402344 327.945312 653.714844 331.898438 652.933594 335.832031 C 652.148438 339.769531 651.269531 343.683594 650.296875 347.578125 C 649.320312 351.46875 648.25 355.335938 647.085938 359.175781 C 645.921875 363.015625 644.664062 366.824219 643.308594 370.605469 C 641.957031 374.382812 640.515625 378.125 638.980469 381.832031 C 637.441406 385.539062 635.816406 389.207031 634.101562 392.835938 C 632.386719 396.464844 630.582031 400.046875 628.691406 403.585938 C 626.800781 407.125 624.820312 410.617188 622.757812 414.058594 C 620.695312 417.5 618.550781 420.890625 616.320312 424.226562 C 614.089844 427.5625 611.78125 430.84375 609.390625 434.066406 C 607 437.289062 604.53125 440.453125 601.984375 443.554688 C 599.4375 446.65625 596.820312 449.695312 594.125 452.667969 C 591.429688 455.640625 588.664062 458.546875 585.824219 461.382812 C 582.988281 464.222656 580.082031 466.988281 577.109375 469.683594 C 574.132812 472.378906 571.097656 475 567.996094 477.542969 C 564.890625 480.089844 561.730469 482.558594 558.507812 484.949219 C 555.285156 487.339844 552.003906 489.648438 548.667969 491.878906 C 545.328125 494.109375 541.941406 496.253906 538.5 498.320312 C 535.054688 500.382812 531.566406 502.359375 528.027344 504.25 C 524.488281 506.140625 520.902344 507.945312 517.277344 509.660156 C 513.648438 511.378906 509.980469 513.003906 506.273438 514.539062 C 502.566406 516.074219 498.824219 517.519531 495.042969 518.871094 C 491.265625 520.222656 487.457031 521.480469 483.617188 522.644531 C 479.777344 523.8125 475.910156 524.878906 472.015625 525.855469 C 468.125 526.832031 464.210938 527.710938 460.273438 528.492188 C 456.339844 529.277344 452.386719 529.960938 448.414062 530.550781 C 444.445312 531.140625 440.464844 531.628906 436.472656 532.023438 C 432.476562 532.417969 428.476562 532.710938 424.46875 532.910156 C 420.460938 533.105469 416.449219 533.203125 412.4375 533.203125 C 408.421875 533.203125 404.414062 533.105469 400.402344 532.910156 C 396.394531 532.710938 392.394531 532.417969 388.402344 532.023438 C 384.40625 531.628906 380.425781 531.140625 376.457031 530.550781 C 372.488281 529.960938 368.535156 529.277344 364.597656 528.492188 C 360.664062 527.710938 356.746094 526.832031 352.855469 525.855469 C 348.960938 524.878906 345.097656 523.8125 341.253906 522.644531 C 337.414062 521.480469 333.605469 520.222656 329.828125 518.871094 C 326.050781 517.519531 322.304688 516.074219 318.597656 514.539062 C 314.890625 513.003906 311.222656 511.378906 307.597656 509.660156 C 303.96875 507.945312 300.386719 506.140625 296.84375 504.25 C 293.304688 502.359375 289.816406 500.382812 286.375 498.316406 C 282.933594 496.253906 279.542969 494.109375 276.207031 491.878906 C 272.867188 489.648438 269.589844 487.339844 266.367188 484.949219 C 263.140625 482.558594 259.980469 480.089844 256.878906 477.542969 C 253.773438 475 250.738281 472.378906 247.765625 469.683594 C 244.789062 466.988281 241.886719 464.222656 239.046875 461.382812 C 236.210938 458.546875 233.445312 455.640625 230.75 452.667969 C 228.054688 449.695312 225.433594 446.65625 222.886719 443.554688 C 220.339844 440.453125 217.875 437.289062 215.484375 434.066406 C 213.09375 430.84375 210.78125 427.5625 208.550781 424.226562 C 206.324219 420.890625 204.175781 417.5 202.113281 414.058594 C 200.050781 410.617188 198.074219 407.125 196.179688 403.585938 C 194.289062 400.046875 192.484375 396.464844 190.769531 392.835938 C 189.054688 389.207031 187.429688 385.539062 185.894531 381.832031 C 184.355469 378.125 182.914062 374.382812 181.5625 370.605469 C 180.210938 366.824219 178.949219 363.015625 177.785156 359.175781 C 176.621094 355.335938 175.550781 351.46875 174.578125 347.578125 C 173.601562 343.683594 172.722656 339.769531 171.9375 335.832031 C 171.15625 331.898438 170.46875 327.945312 169.882812 323.976562 C 169.292969 320.007812 168.800781 316.023438 168.410156 312.03125 C 168.015625 308.035156 167.71875 304.035156 167.523438 300.027344 C 167.324219 296.019531 167.226562 292.007812 167.226562 287.996094 C 167.226562 283.984375 167.324219 279.972656 167.523438 275.964844 C 167.71875 271.957031 168.015625 267.957031 168.410156 263.960938 C 168.800781 259.96875 169.292969 255.984375 169.882812 252.015625 C 170.46875 248.046875 171.15625 244.09375 171.9375 240.160156 C 172.722656 236.222656 173.601562 232.308594 174.578125 228.414062 C 175.550781 224.523438 176.621094 220.65625 177.785156 216.816406 C 178.949219 212.976562 180.210938 209.167969 181.5625 205.386719 C 182.914062 201.609375 184.355469 197.867188 185.894531 194.160156 C 187.429688 190.453125 189.054688 186.785156 190.769531 183.15625 C 192.484375 179.527344 194.289062 175.945312 196.179688 172.40625 C 198.074219 168.867188 200.050781 165.375 202.113281 161.933594 C 204.175781 158.492188 206.324219 155.101562 208.550781 151.765625 C 210.78125 148.429688 213.09375 145.148438 215.484375 141.925781 C 217.875 138.703125 220.339844 135.539062 222.886719 132.4375 C 225.433594 129.335938 228.054688 126.296875 230.75 123.324219 C 233.445312 120.351562 236.210938 117.445312 239.046875 114.609375 C 241.886719 111.769531 244.789062 109.003906 247.765625 106.308594 C 250.738281 103.613281 253.773438 100.992188 256.878906 98.449219 C 259.980469 95.902344 263.140625 93.433594 266.367188 91.042969 C 269.589844 88.652344 272.867188 86.34375 276.207031 84.113281 C 279.542969 81.882812 282.933594 79.738281 286.375 77.671875 C 289.816406 75.609375 293.304688 73.632812 296.84375 71.742188 C 300.386719 69.851562 303.96875 68.046875 307.597656 66.332031 C 311.222656 64.613281 314.890625 62.988281 318.597656 61.453125 C 322.304688 59.917969 326.050781 58.472656 329.828125 57.121094 C 333.605469 55.769531 337.414062 54.511719 341.253906 53.347656 C 345.097656 52.179688 348.960938 51.109375 352.855469 50.136719 C 356.746094 49.160156 360.664062 48.28125 364.597656 47.5 C 368.535156 46.714844 372.488281 46.03125 376.457031 45.441406 C 380.425781 44.851562 384.40625 44.363281 388.402344 43.96875 C 392.394531 43.574219 396.394531 43.28125 400.402344 43.082031 C 404.414062 42.886719 408.421875 42.789062 412.4375 42.789062 C 416.449219 42.789062 420.460938 42.886719 424.46875 43.082031 C 428.476562 43.28125 432.476562 43.574219 436.472656 43.96875 C 440.464844 44.363281 444.445312 44.851562 448.414062 45.441406 C 452.386719 46.03125 456.339844 46.714844 460.273438 47.5 C 464.210938 48.28125 468.125 49.160156 472.015625 50.136719 C 475.910156 51.109375 479.777344 52.179688 483.617188 53.347656 C 487.457031 54.511719 491.265625 55.769531 495.042969 57.121094 C 498.824219 58.472656 502.566406 59.917969 506.273438 61.453125 C 509.980469 62.988281 513.648438 64.613281 517.277344 66.332031 C 520.902344 68.046875 524.488281 69.851562 528.027344 71.742188 C 531.566406 73.632812 535.054688 75.609375 538.5 77.671875 C 541.941406 79.738281 545.328125 81.882812 548.667969 84.113281 C 552.003906 86.34375 555.285156 88.652344 558.507812 91.042969 C 561.730469 93.433594 564.890625 95.902344 567.996094 98.449219 C 571.097656 100.992188 574.132812 103.613281 577.109375 106.308594 C 580.082031 109.003906 582.988281 111.769531 585.824219 114.609375 C 588.664062 117.445312 591.429688 120.351562 594.125 123.324219 C 596.820312 126.296875 599.4375 129.335938 601.984375 132.4375 C 604.53125 135.539062 607 138.703125 609.390625 141.925781 C 611.78125 145.148438 614.089844 148.429688 616.320312 151.765625 C 618.550781 155.101562 620.695312 158.492188 622.757812 161.933594 C 624.820312 165.375 626.800781 168.867188 628.691406 172.40625 C 630.582031 175.945312 632.386719 179.527344 634.101562 183.15625 C 635.816406 186.785156 637.445312 190.453125 638.980469 194.160156 C 640.515625 197.867188 641.957031 201.609375 643.3125 205.386719 C 644.664062 209.167969 645.921875 212.976562 647.085938 216.816406 C 648.25 220.65625 649.320312 224.523438 650.296875 228.414062 C 651.269531 232.308594 652.148438 236.222656 652.933594 240.160156 C 653.714844 244.09375 654.402344 248.046875 654.992188 252.015625 C 655.578125 255.984375 656.070312 259.96875 656.464844 263.960938 C 656.855469 267.957031 657.152344 271.957031 657.347656 275.964844 C 657.546875 279.972656 657.644531 283.984375 657.644531 287.996094 Z M 657.644531 287.996094 " fill-opacity="1" fill-rule="nonzero"/></g><path fill="#e6a6f8" d="M 289.730469 121.253906 L 535.144531 121.253906 C 535.664062 121.253906 536.183594 121.304688 536.695312 121.40625 C 537.207031 121.507812 537.707031 121.660156 538.1875 121.859375 C 538.671875 122.058594 539.128906 122.304688 539.566406 122.597656 C 540 122.886719 540.402344 123.214844 540.769531 123.585938 C 541.140625 123.957031 541.472656 124.355469 541.761719 124.792969 C 542.050781 125.226562 542.296875 125.683594 542.496094 126.167969 C 542.695312 126.652344 542.847656 127.148438 542.949219 127.660156 C 543.050781 128.171875 543.101562 128.691406 543.101562 129.214844 L 543.101562 129.445312 C 543.101562 129.96875 543.050781 130.484375 542.949219 130.996094 C 542.847656 131.507812 542.695312 132.007812 542.496094 132.492188 C 542.296875 132.972656 542.050781 133.433594 541.761719 133.867188 C 541.472656 134.300781 541.140625 134.703125 540.769531 135.074219 C 540.402344 135.441406 540 135.773438 539.566406 136.0625 C 539.128906 136.351562 538.671875 136.597656 538.1875 136.796875 C 537.707031 136.996094 537.207031 137.148438 536.695312 137.25 C 536.183594 137.351562 535.664062 137.402344 535.144531 137.402344 L 289.730469 137.402344 C 289.207031 137.402344 288.6875 137.351562 288.175781 137.25 C 287.664062 137.148438 287.164062 136.996094 286.683594 136.796875 C 286.199219 136.597656 285.742188 136.351562 285.308594 136.0625 C 284.871094 135.773438 284.46875 135.441406 284.101562 135.074219 C 283.730469 134.703125 283.402344 134.300781 283.109375 133.867188 C 282.820312 133.433594 282.574219 132.972656 282.375 132.492188 C 282.175781 132.007812 282.023438 131.507812 281.921875 130.996094 C 281.820312 130.484375 281.769531 129.96875 281.769531 129.445312 L 281.769531 129.214844 C 281.769531 128.691406 281.820312 128.171875 281.921875 127.660156 C 282.023438 127.148438 282.175781 126.652344 282.375 126.167969 C 282.574219 125.683594 282.820312 125.226562 283.109375 124.792969 C 283.402344 124.355469 283.730469 123.957031 284.101562 123.585938 C 284.46875 123.214844 284.871094 122.886719 285.308594 122.597656 C 285.742188 122.304688 286.199219 122.058594 286.683594 121.859375 C 287.164062 121.660156 287.664062 121.507812 288.175781 121.40625 C 288.6875 121.304688 289.207031 121.253906 289.730469 121.253906 Z M 289.730469 121.253906 " fill-opacity="1" fill-rule="nonzero"/><path fill="#e6a6f8" d="M 289.730469 438.589844 L 535.144531 438.589844 C 535.664062 438.589844 536.183594 438.640625 536.695312 438.742188 C 537.207031 438.84375 537.707031 438.996094 538.1875 439.195312 C 538.671875 439.394531 539.128906 439.640625 539.566406 439.929688 C 540 440.21875 540.402344 440.550781 540.769531 440.917969 C 541.140625 441.289062 541.472656 441.691406 541.761719 442.125 C 542.050781 442.558594 542.296875 443.019531 542.496094 443.5 C 542.695312 443.984375 542.847656 444.484375 542.949219 444.996094 C 543.050781 445.507812 543.101562 446.023438 543.101562 446.546875 L 543.101562 446.777344 C 543.101562 447.300781 543.050781 447.820312 542.949219 448.332031 C 542.847656 448.84375 542.695312 449.339844 542.496094 449.824219 C 542.296875 450.308594 542.050781 450.765625 541.761719 451.199219 C 541.472656 451.636719 541.140625 452.035156 540.769531 452.40625 C 540.402344 452.777344 540 453.105469 539.566406 453.394531 C 539.128906 453.6875 538.671875 453.933594 538.1875 454.132812 C 537.707031 454.332031 537.207031 454.484375 536.695312 454.585938 C 536.183594 454.6875 535.664062 454.738281 535.144531 454.738281 L 289.730469 454.738281 C 289.207031 454.738281 288.6875 454.6875 288.175781 454.585938 C 287.664062 454.484375 287.164062 454.332031 286.683594 454.132812 C 286.199219 453.933594 285.742188 453.6875 285.308594 453.394531 C 284.871094 453.105469 284.46875 452.777344 284.101562 452.40625 C 283.730469 452.035156 283.402344 451.636719 283.109375 451.199219 C 282.820312 450.765625 282.574219 450.308594 282.375 449.824219 C 282.175781 449.339844 282.023438 448.84375 281.921875 448.332031 C 281.820312 447.820312 281.769531 447.300781 281.769531 446.777344 L 281.769531 446.546875 C 281.769531 446.023438 281.820312 445.507812 281.921875 444.996094 C 282.023438 444.484375 282.175781 443.984375 282.375 443.5 C 282.574219 443.019531 282.820312 442.558594 283.109375 442.125 C 283.402344 441.691406 283.730469 441.289062 284.101562 440.917969 C 284.46875 440.550781 284.871094 440.21875 285.308594 439.929688 C 285.742188 439.640625 286.199219 439.394531 286.683594 439.195312 C 287.164062 438.996094 287.664062 438.84375 288.175781 438.742188 C 288.6875 438.640625 289.207031 438.589844 289.730469 438.589844 Z M 289.730469 438.589844 " fill-opacity="1" fill-rule="nonzero"/><path fill="#e6a6f8" d="M 486.429688 210.511719 C 483.277344 215.820312 479.707031 220.835938 475.722656 225.554688 C 461.550781 242.515625 440.261719 259.476562 412.460938 275.992188 C 384.738281 259.550781 363.523438 242.65625 349.355469 225.78125 C 342.554688 217.691406 337.402344 209.632812 333.929688 201.683594 L 389.046875 209.152344 C 390.839844 209.394531 392.640625 209.476562 394.445312 209.398438 C 396.25 209.316406 398.035156 209.078125 399.800781 208.675781 C 401.5625 208.273438 403.277344 207.71875 404.941406 207.007812 C 406.601562 206.300781 408.191406 205.449219 409.699219 204.453125 L 418.550781 198.632812 C 419.589844 197.953125 420.679688 197.363281 421.816406 196.871094 C 422.957031 196.375 424.128906 195.984375 425.335938 195.691406 C 426.542969 195.398438 427.765625 195.210938 429.003906 195.128906 C 430.242188 195.046875 431.480469 195.070312 432.714844 195.199219 C 433.949219 195.332031 435.164062 195.566406 436.359375 195.902344 C 437.554688 196.242188 438.710938 196.679688 439.828125 197.21875 C 440.949219 197.753906 442.015625 198.382812 443.023438 199.101562 C 444.035156 199.824219 444.980469 200.625 445.851562 201.507812 C 447.261719 202.929688 448.792969 204.199219 450.453125 205.320312 C 452.109375 206.4375 453.863281 207.382812 455.707031 208.15625 C 457.554688 208.929688 459.457031 209.511719 461.417969 209.910156 C 463.378906 210.304688 465.363281 210.507812 467.363281 210.511719 Z M 486.429688 210.511719 " fill-opacity="1" fill-rule="nonzero"/><path fill="#e6a6f8" d="M 495.636719 186.027344 C 494.726562 191.542969 493.121094 196.847656 490.824219 201.941406 L 467.363281 201.941406 C 465.929688 201.941406 464.511719 201.796875 463.109375 201.511719 C 461.703125 201.230469 460.339844 200.8125 459.019531 200.257812 C 457.695312 199.707031 456.441406 199.03125 455.253906 198.230469 C 454.066406 197.429688 452.96875 196.519531 451.957031 195.503906 C 451.351562 194.890625 450.714844 194.304688 450.058594 193.742188 C 449.398438 193.183594 448.71875 192.652344 448.015625 192.152344 C 447.308594 191.652344 446.585938 191.179688 445.839844 190.742188 C 445.097656 190.300781 444.335938 189.894531 443.554688 189.519531 C 442.777344 189.148438 441.984375 188.808594 441.175781 188.5 C 440.367188 188.195312 439.546875 187.925781 438.714844 187.6875 C 437.882812 187.453125 437.042969 187.253906 436.195312 187.089844 C 435.34375 186.925781 434.492188 186.796875 433.632812 186.707031 C 432.773438 186.617188 431.910156 186.5625 431.046875 186.546875 C 430.183594 186.53125 429.320312 186.550781 428.457031 186.605469 C 427.59375 186.664062 426.734375 186.757812 425.882812 186.886719 C 425.027344 187.019531 424.179688 187.1875 423.339844 187.390625 C 422.5 187.59375 421.667969 187.832031 420.847656 188.105469 C 420.03125 188.378906 419.222656 188.6875 418.429688 189.03125 C 417.636719 189.375 416.859375 189.75 416.097656 190.160156 C 415.339844 190.570312 414.597656 191.011719 413.871094 191.488281 L 405.019531 197.3125 C 402.835938 198.757812 400.46875 199.769531 397.917969 200.351562 C 395.367188 200.9375 392.792969 201.050781 390.199219 200.703125 L 330.679688 192.609375 C 330.101562 190.554688 329.636719 188.46875 329.289062 186.363281 C 325.574219 163.742188 337.3125 149.914062 337.789062 149.359375 C 338.683594 148.34375 339.382812 147.210938 339.882812 145.953125 L 485.019531 145.953125 C 485.515625 147.222656 486.214844 148.367188 487.121094 149.382812 C 487.707031 150.085938 499.160156 163.75 495.636719 186.027344 Z M 495.636719 186.027344 " fill-opacity="1" fill-rule="nonzero"/><path fill="#e6a6f8" d="M 510.824219 401.234375 C 511.640625 411.96875 508.734375 421.648438 502.183594 430.039062 L 494.050781 430.039062 C 501.960938 421.972656 505.554688 412.449219 504.734375 401.699219 C 503.179688 381.402344 485.960938 355.710938 454.945312 327.414062 C 442.253906 315.933594 428.941406 305.21875 415.007812 295.277344 L 414.90625 295.207031 L 414.6875 295.0625 C 414.546875 294.972656 414.398438 294.890625 414.246094 294.824219 C 414.175781 294.789062 414.101562 294.757812 414.023438 294.730469 C 413.933594 294.6875 413.835938 294.65625 413.742188 294.625 C 413.546875 294.5625 413.347656 294.515625 413.148438 294.484375 L 412.964844 294.453125 L 412.699219 294.453125 C 412.519531 294.4375 412.339844 294.4375 412.160156 294.453125 L 411.917969 294.453125 L 411.71875 294.484375 C 411.628906 294.496094 411.539062 294.511719 411.449219 294.539062 C 411.351562 294.558594 411.253906 294.582031 411.160156 294.617188 C 411.042969 294.652344 410.925781 294.695312 410.8125 294.746094 C 410.71875 294.78125 410.628906 294.820312 410.539062 294.867188 C 410.433594 294.914062 410.335938 294.96875 410.238281 295.027344 L 409.949219 295.214844 L 409.863281 295.285156 C 395.875 305.265625 382.511719 316.019531 369.769531 327.546875 C 338.875 355.796875 321.707031 381.441406 320.144531 401.710938 C 319.304688 412.617188 322.808594 421.914062 330.820312 430.039062 L 322.691406 430.039062 C 316.136719 421.648438 313.234375 411.96875 314.046875 401.234375 C 315.75 379.046875 333.175781 352.683594 365.808594 322.902344 C 377.285156 312.503906 389.273438 302.730469 401.769531 293.582031 C 402.074219 293.359375 402.347656 293.097656 402.582031 292.800781 C 402.640625 292.734375 402.691406 292.664062 402.742188 292.589844 L 402.914062 292.332031 C 402.953125 292.269531 402.984375 292.199219 403.019531 292.128906 C 403.117188 291.953125 403.199219 291.773438 403.265625 291.582031 C 403.292969 291.496094 403.320312 291.417969 403.34375 291.34375 C 403.367188 291.273438 403.382812 291.214844 403.398438 291.144531 C 403.421875 291.042969 403.441406 290.941406 403.457031 290.839844 C 403.472656 290.769531 403.480469 290.695312 403.484375 290.621094 C 403.5 290.539062 403.507812 290.460938 403.511719 290.378906 C 403.527344 290.101562 403.515625 289.824219 403.476562 289.550781 C 403.472656 289.492188 403.460938 289.433594 403.445312 289.375 C 403.453125 289.34375 403.453125 289.316406 403.445312 289.285156 C 403.4375 289.214844 403.421875 289.144531 403.402344 289.074219 C 403.382812 288.988281 403.359375 288.898438 403.328125 288.816406 C 403.296875 288.710938 403.257812 288.609375 403.214844 288.511719 C 403.1875 288.433594 403.152344 288.359375 403.113281 288.285156 C 403.09375 288.230469 403.066406 288.175781 403.035156 288.125 C 403.035156 288.078125 402.992188 288.039062 402.964844 287.996094 L 402.867188 287.84375 C 402.820312 287.761719 402.769531 287.683594 402.710938 287.609375 C 402.433594 287.222656 402.097656 286.894531 401.699219 286.628906 C 401.648438 286.585938 401.59375 286.546875 401.535156 286.515625 C 401.519531 286.5 401.5 286.488281 401.480469 286.480469 C 373.929688 269.773438 352.546875 252.429688 337.921875 234.949219 C 325.019531 219.507812 317.230469 203.816406 314.78125 188.320312 C 311.675781 168.703125 317.746094 153.957031 322.449219 145.953125 L 329.683594 145.953125 C 325.886719 151.398438 317.367188 166.425781 320.855469 187.746094 C 321.414062 191.101562 322.214844 194.398438 323.261719 197.636719 C 323.285156 197.71875 323.3125 197.796875 323.34375 197.871094 C 326.9375 208.949219 333.453125 220.148438 342.800781 231.285156 C 357.96875 249.339844 380.671875 267.296875 410.273438 284.628906 L 410.375 284.679688 C 410.441406 284.71875 410.507812 284.753906 410.578125 284.789062 L 410.605469 284.789062 C 410.765625 284.863281 410.929688 284.929688 411.097656 284.980469 C 411.535156 285.125 411.984375 285.199219 412.445312 285.195312 C 412.808594 285.199219 413.167969 285.152344 413.519531 285.058594 L 413.785156 284.980469 C 413.871094 284.953125 413.957031 284.921875 414.039062 284.886719 L 414.203125 284.816406 C 414.339844 284.757812 414.472656 284.691406 414.597656 284.613281 L 414.769531 284.507812 C 444.429688 267.128906 467.148438 249.128906 482.292969 231.007812 C 488.617188 223.4375 493.625 215.855469 497.3125 208.265625 L 497.46875 207.9375 C 497.472656 207.917969 497.472656 207.902344 497.46875 207.886719 C 500.667969 201.371094 502.863281 194.53125 504.054688 187.371094 C 507.410156 166.148438 498.996094 151.355469 495.195312 145.957031 L 502.417969 145.957031 C 507.117188 153.960938 513.207031 168.71875 510.082031 188.324219 C 507.632812 203.824219 499.84375 219.515625 486.941406 234.953125 C 472.339844 252.417969 450.988281 269.738281 423.480469 286.445312 L 423.386719 286.503906 C 423.308594 286.550781 423.234375 286.601562 423.160156 286.65625 C 423.082031 286.710938 423.003906 286.765625 422.929688 286.828125 C 422.875 286.871094 422.824219 286.917969 422.773438 286.964844 C 422.46875 287.230469 422.210938 287.535156 422 287.878906 C 421.953125 287.945312 421.910156 288.019531 421.875 288.09375 C 421.828125 288.171875 421.785156 288.25 421.75 288.335938 C 421.710938 288.414062 421.675781 288.496094 421.640625 288.578125 C 421.574219 288.746094 421.519531 288.917969 421.472656 289.09375 C 421.453125 289.171875 421.4375 289.246094 421.425781 289.324219 L 421.425781 289.390625 C 421.410156 289.449219 421.402344 289.511719 421.394531 289.574219 C 421.359375 289.847656 421.347656 290.125 421.363281 290.398438 C 421.355469 290.480469 421.355469 290.5625 421.363281 290.644531 C 421.367188 290.71875 421.375 290.792969 421.390625 290.863281 C 421.390625 290.882812 421.390625 290.898438 421.390625 290.914062 C 421.394531 290.96875 421.40625 291.019531 421.421875 291.070312 L 421.464844 291.257812 C 421.523438 291.480469 421.601562 291.695312 421.695312 291.90625 C 421.722656 291.976562 421.757812 292.042969 421.792969 292.109375 C 421.828125 292.179688 421.890625 292.289062 421.941406 292.371094 L 421.941406 292.414062 C 421.976562 292.476562 422.019531 292.539062 422.066406 292.597656 C 422.335938 292.988281 422.660156 293.324219 423.046875 293.601562 C 435.546875 302.75 447.53125 312.523438 459.007812 322.929688 C 491.707031 352.691406 509.121094 379.042969 510.824219 401.234375 Z M 510.824219 401.234375 " fill-opacity="1" fill-rule="nonzero"/><path fill="#e6a6f8" d="M 479.039062 430.039062 L 345.832031 430.039062 C 346.71875 428.644531 347.644531 427.277344 348.617188 425.9375 C 349.585938 424.601562 350.597656 423.292969 351.652344 422.019531 C 352.703125 420.746094 353.796875 419.503906 354.925781 418.300781 C 356.058594 417.09375 357.226562 415.925781 358.429688 414.792969 C 359.632812 413.660156 360.871094 412.566406 362.144531 411.511719 C 363.417969 410.457031 364.722656 409.445312 366.0625 408.472656 C 367.398438 407.5 368.765625 406.570312 370.160156 405.683594 C 371.554688 404.796875 372.976562 403.957031 374.425781 403.160156 C 375.875 402.363281 377.347656 401.609375 378.839844 400.90625 C 380.335938 400.203125 381.851562 399.546875 383.390625 398.9375 C 384.925781 398.328125 386.480469 397.765625 388.054688 397.253906 C 389.625 396.746094 391.210938 396.285156 392.8125 395.871094 C 394.414062 395.460938 396.027344 395.101562 397.652344 394.789062 C 399.273438 394.480469 400.90625 394.222656 402.546875 394.011719 C 404.1875 393.804688 405.832031 393.652344 407.480469 393.546875 C 409.132812 393.441406 410.78125 393.390625 412.4375 393.390625 C 414.089844 393.390625 415.742188 393.441406 417.390625 393.546875 C 419.039062 393.652344 420.683594 393.804688 422.324219 394.011719 C 423.964844 394.222656 425.597656 394.480469 427.222656 394.789062 C 428.84375 395.101562 430.457031 395.460938 432.058594 395.871094 C 433.660156 396.285156 435.246094 396.746094 436.820312 397.253906 C 438.390625 397.765625 439.945312 398.328125 441.480469 398.9375 C 443.019531 399.546875 444.535156 400.203125 446.03125 400.90625 C 447.527344 401.609375 449 402.363281 450.445312 403.160156 C 451.894531 403.957031 453.316406 404.796875 454.710938 405.683594 C 456.109375 406.570312 457.472656 407.5 458.8125 408.472656 C 460.148438 409.445312 461.453125 410.457031 462.726562 411.511719 C 464 412.566406 465.238281 413.660156 466.441406 414.792969 C 467.648438 415.925781 468.816406 417.09375 469.945312 418.300781 C 471.078125 419.503906 472.167969 420.746094 473.222656 422.019531 C 474.273438 423.292969 475.285156 424.601562 476.257812 425.9375 C 477.226562 427.277344 478.15625 428.644531 479.039062 430.039062 Z M 479.039062 430.039062 " fill-opacity="1" fill-rule="nonzero"/><path fill="#e6a6f8" d="M 496.203125 402.351562 C 494.820312 384.265625 478.550781 360.539062 449.183594 333.730469 C 437.476562 323.140625 425.226562 313.21875 412.4375 303.964844 C 399.59375 313.261719 387.296875 323.234375 375.546875 333.878906 C 346.257812 360.613281 330.046875 384.300781 328.667969 402.363281 C 327.976562 411.4375 331.121094 418.828125 338.535156 425.597656 C 339.515625 424.042969 340.542969 422.523438 341.617188 421.035156 C 342.691406 419.546875 343.8125 418.09375 344.980469 416.675781 C 346.144531 415.261719 347.355469 413.878906 348.609375 412.539062 C 349.863281 411.199219 351.15625 409.898438 352.492188 408.636719 C 353.828125 407.378906 355.199219 406.164062 356.613281 404.988281 C 358.023438 403.816406 359.472656 402.6875 360.957031 401.609375 C 362.4375 400.527344 363.957031 399.492188 365.503906 398.503906 C 367.050781 397.519531 368.628906 396.582031 370.238281 395.695312 C 371.84375 394.808594 373.476562 393.972656 375.136719 393.191406 C 376.796875 392.40625 378.480469 391.675781 380.1875 391 C 381.894531 390.320312 383.621094 389.699219 385.363281 389.128906 C 387.109375 388.558594 388.871094 388.046875 390.648438 387.589844 C 392.425781 387.132812 394.21875 386.730469 396.019531 386.382812 C 397.824219 386.039062 399.636719 385.75 401.457031 385.519531 C 403.277344 385.289062 405.105469 385.117188 406.9375 385 C 408.769531 384.886719 410.601562 384.828125 412.4375 384.828125 C 414.273438 384.828125 416.109375 384.886719 417.941406 385 C 419.773438 385.117188 421.597656 385.289062 423.421875 385.519531 C 425.242188 385.75 427.054688 386.039062 428.855469 386.382812 C 430.660156 386.730469 432.449219 387.132812 434.226562 387.589844 C 436.003906 388.046875 437.765625 388.558594 439.511719 389.128906 C 441.257812 389.699219 442.984375 390.320312 444.691406 391 C 446.394531 391.675781 448.078125 392.40625 449.738281 393.191406 C 451.398438 393.972656 453.03125 394.808594 454.640625 395.695312 C 456.246094 396.582031 457.824219 397.519531 459.375 398.503906 C 460.921875 399.492188 462.4375 400.527344 463.921875 401.609375 C 465.402344 402.6875 466.851562 403.816406 468.265625 404.988281 C 469.675781 406.164062 471.050781 407.378906 472.386719 408.636719 C 473.71875 409.898438 475.015625 411.199219 476.269531 412.539062 C 477.523438 413.878906 478.730469 415.261719 479.898438 416.675781 C 481.066406 418.09375 482.1875 419.546875 483.261719 421.035156 C 484.335938 422.523438 485.363281 424.042969 486.34375 425.597656 C 493.761719 418.828125 496.902344 411.433594 496.203125 402.351562 Z M 416.710938 366.507812 C 416.710938 366.789062 416.683594 367.066406 416.628906 367.339844 C 416.574219 367.617188 416.496094 367.882812 416.386719 368.144531 C 416.28125 368.402344 416.148438 368.648438 415.992188 368.882812 C 415.835938 369.117188 415.660156 369.332031 415.460938 369.53125 C 415.261719 369.730469 415.046875 369.90625 414.8125 370.0625 C 414.578125 370.21875 414.332031 370.351562 414.074219 370.457031 C 413.8125 370.566406 413.546875 370.644531 413.269531 370.703125 C 412.996094 370.757812 412.71875 370.785156 412.4375 370.785156 C 412.15625 370.785156 411.878906 370.757812 411.601562 370.703125 C 411.328125 370.644531 411.058594 370.566406 410.800781 370.457031 C 410.539062 370.351562 410.292969 370.21875 410.058594 370.0625 C 409.828125 369.90625 409.609375 369.730469 409.414062 369.53125 C 409.214844 369.332031 409.035156 369.117188 408.878906 368.882812 C 408.722656 368.648438 408.59375 368.402344 408.484375 368.144531 C 408.378906 367.882812 408.296875 367.617188 408.242188 367.339844 C 408.1875 367.066406 408.160156 366.789062 408.160156 366.507812 L 408.160156 360.546875 C 408.160156 360.269531 408.1875 359.988281 408.242188 359.714844 C 408.296875 359.4375 408.378906 359.171875 408.484375 358.910156 C 408.59375 358.652344 408.722656 358.40625 408.878906 358.171875 C 409.035156 357.9375 409.214844 357.722656 409.414062 357.523438 C 409.609375 357.324219 409.828125 357.148438 410.058594 356.992188 C 410.292969 356.835938 410.539062 356.703125 410.800781 356.597656 C 411.058594 356.488281 411.328125 356.410156 411.601562 356.355469 C 411.878906 356.300781 412.15625 356.273438 412.4375 356.273438 C 412.71875 356.273438 412.996094 356.300781 413.269531 356.355469 C 413.546875 356.410156 413.8125 356.488281 414.074219 356.597656 C 414.332031 356.703125 414.578125 356.835938 414.8125 356.992188 C 415.046875 357.148438 415.261719 357.324219 415.460938 357.523438 C 415.660156 357.722656 415.835938 357.9375 415.992188 358.171875 C 416.148438 358.40625 416.28125 358.652344 416.386719 358.910156 C 416.496094 359.171875 416.574219 359.4375 416.628906 359.714844 C 416.683594 359.988281 416.710938 360.269531 416.710938 360.546875 Z M 416.710938 346.398438 C 416.710938 346.679688 416.683594 346.957031 416.628906 347.234375 C 416.574219 347.507812 416.496094 347.777344 416.386719 348.035156 C 416.28125 348.296875 416.148438 348.542969 415.992188 348.777344 C 415.835938 349.007812 415.660156 349.226562 415.460938 349.421875 C 415.261719 349.621094 415.046875 349.800781 414.8125 349.957031 C 414.578125 350.113281 414.332031 350.242188 414.074219 350.351562 C 413.8125 350.457031 413.546875 350.539062 413.269531 350.59375 C 412.996094 350.648438 412.71875 350.675781 412.4375 350.675781 C 412.15625 350.675781 411.878906 350.648438 411.601562 350.59375 C 411.328125 350.539062 411.058594 350.457031 410.800781 350.351562 C 410.539062 350.242188 410.292969 350.113281 410.058594 349.957031 C 409.828125 349.800781 409.609375 349.621094 409.414062 349.421875 C 409.214844 349.226562 409.035156 349.007812 408.878906 348.777344 C 408.722656 348.542969 408.59375 348.296875 408.484375 348.035156 C 408.378906 347.777344 408.296875 347.507812 408.242188 347.234375 C 408.1875 346.957031 408.160156 346.679688 408.160156 346.398438 L 408.160156 334.0625 C 408.160156 333.78125 408.1875 333.503906 408.242188 333.226562 C 408.296875 332.953125 408.378906 332.683594 408.484375 332.425781 C 408.59375 332.164062 408.722656 331.917969 408.878906 331.683594 C 409.035156 331.453125 409.214844 331.234375 409.414062 331.035156 C 409.609375 330.839844 409.828125 330.660156 410.058594 330.503906 C 410.292969 330.347656 410.539062 330.21875 410.800781 330.109375 C 411.058594 330.003906 411.328125 329.921875 411.601562 329.867188 C 411.878906 329.8125 412.15625 329.785156 412.4375 329.785156 C 412.71875 329.785156 412.996094 329.8125 413.269531 329.867188 C 413.546875 329.921875 413.8125 330.003906 414.074219 330.109375 C 414.332031 330.21875 414.578125 330.347656 414.8125 330.503906 C 415.046875 330.660156 415.261719 330.839844 415.460938 331.035156 C 415.660156 331.234375 415.835938 331.453125 415.992188 331.683594 C 416.148438 331.917969 416.28125 332.164062 416.386719 332.425781 C 416.496094 332.683594 416.574219 332.953125 416.628906 333.226562 C 416.683594 333.503906 416.710938 333.78125 416.710938 334.0625 Z M 416.710938 320.789062 C 416.710938 321.070312 416.683594 321.347656 416.628906 321.625 C 416.574219 321.898438 416.496094 322.167969 416.386719 322.425781 C 416.28125 322.6875 416.148438 322.933594 415.992188 323.167969 C 415.835938 323.398438 415.660156 323.617188 415.460938 323.8125 C 415.261719 324.011719 415.046875 324.191406 414.8125 324.347656 C 414.578125 324.503906 414.332031 324.632812 414.074219 324.742188 C 413.8125 324.847656 413.546875 324.929688 413.269531 324.984375 C 412.996094 325.039062 412.71875 325.066406 412.4375 325.066406 C 412.15625 325.066406 411.878906 325.039062 411.601562 324.984375 C 411.328125 324.929688 411.058594 324.847656 410.800781 324.742188 C 410.539062 324.632812 410.292969 324.503906 410.058594 324.347656 C 409.828125 324.191406 409.609375 324.011719 409.414062 323.8125 C 409.214844 323.617188 409.035156 323.398438 408.878906 323.167969 C 408.722656 322.933594 408.59375 322.6875 408.484375 322.425781 C 408.378906 322.167969 408.296875 321.898438 408.242188 321.625 C 408.1875 321.347656 408.160156 321.070312 408.160156 320.789062 L 408.160156 314.855469 C 408.160156 314.574219 408.1875 314.296875 408.242188 314.023438 C 408.296875 313.746094 408.378906 313.480469 408.484375 313.21875 C 408.59375 312.960938 408.722656 312.714844 408.878906 312.480469 C 409.035156 312.246094 409.214844 312.03125 409.414062 311.832031 C 409.609375 311.632812 409.828125 311.457031 410.058594 311.300781 C 410.292969 311.144531 410.539062 311.011719 410.800781 310.90625 C 411.058594 310.796875 411.328125 310.714844 411.601562 310.660156 C 411.878906 310.605469 412.15625 310.578125 412.4375 310.578125 C 412.71875 310.578125 412.996094 310.605469 413.269531 310.660156 C 413.546875 310.714844 413.8125 310.796875 414.074219 310.90625 C 414.332031 311.011719 414.578125 311.144531 414.8125 311.300781 C 415.046875 311.457031 415.261719 311.632812 415.460938 311.832031 C 415.660156 312.03125 415.835938 312.246094 415.992188 312.480469 C 416.148438 312.714844 416.28125 312.960938 416.386719 313.21875 C 416.496094 313.480469 416.574219 313.746094 416.628906 314.023438 C 416.683594 314.296875 416.710938 314.574219 416.710938 314.855469 Z M 416.710938 320.789062 " fill-opacity="1" fill-rule="nonzero"/></svg>