<svg xmlns="http://www.w3.org/2000/svg" xmlns:xlink="http://www.w3.org/1999/xlink" width="1370" zoomAndPan="magnify" viewBox="0 0 1027.5 576" height="768" preserveAspectRatio="xMidYMid meet" version="1.0"><defs><clipPath id="6b70f32d7b"><path d="M 0 0.140625 L 1027 0.140625 L 1027 575.859375 L 0 575.859375 Z M 0 0.140625 " clip-rule="nonzero"/></clipPath><clipPath id="e52b34134f"><path d="M 0 0.28125 L 870.328125 0.28125 L 870.328125 573 L 0 573 Z M 0 0.28125 " clip-rule="nonzero"/></clipPath></defs><g clip-path="url(#6b70f32d7b)"><path fill="#ffffff" d="M 0 0.140625 L 1027 0.140625 L 1027 575.859375 L 0 575.859375 Z M 0 0.140625 " fill-opacity="1" fill-rule="nonzero"/><path fill="#ffffff" d="M 0 0.140625 L 1027 0.140625 L 1027 575.859375 L 0 575.859375 Z M 0 0.140625 " fill-opacity="1" fill-rule="nonzero"/></g><g clip-path="url(#e52b34134f)"><path fill="#e6a6f8" d="M -472.433594 414.492188 C -178.398438 -84.230469 40.898438 -518.085938 203.578125 -876.894531 C 433.351562 -499.550781 807.570312 -282.574219 1204.152344 -270.886719 C 1174.234375 -233.515625 1142.402344 -170.355469 1105.636719 -81.914062 C 1056.882812 -63.683594 1026.761719 -53.40625 1018.203125 -50.285156 C 870.023438 0.0820312 779.769531 40.878906 713.183594 93.5625 C 647.003906 145.238281 605.300781 201.746094 564.101562 260.574219 C 524.410156 319.503906 484.320312 378.230469 427.003906 432.121094 C 369.789062 485.410156 295.144531 533.761719 188.46875 558.742188 C 85.117188 583.121094 -11.585938 573.449219 -95.496094 546.753906 C -179.808594 520.664062 -251.328125 477.550781 -314.6875 449.851562 C -371.800781 424.367188 -421.363281 409.960938 -472.433594 414.492188 Z M -472.433594 414.492188 " fill-opacity="1" fill-rule="nonzero"/></g></svg>