<svg xmlns="http://www.w3.org/2000/svg" xmlns:xlink="http://www.w3.org/1999/xlink" width="1366" zoomAndPan="magnify" viewBox="0 0 1024.5 576" height="768" preserveAspectRatio="xMidYMid meet" version="1.0"><defs><clipPath id="9d0137be85"><path d="M 667 100 L 1024 100 L 1024 575.859375 L 667 575.859375 Z M 667 100 " clip-rule="nonzero"/></clipPath><clipPath id="8660811dee"><path d="M 615 85 L 868 85 L 868 575.859375 L 615 575.859375 Z M 615 85 " clip-rule="nonzero"/></clipPath><clipPath id="980565a1d0"><path d="M 79 564 L 106 564 L 106 575.859375 L 79 575.859375 Z M 79 564 " clip-rule="nonzero"/></clipPath><clipPath id="b6b7e0ed70"><path d="M 97 552 L 111 552 L 111 575.859375 L 97 575.859375 Z M 97 552 " clip-rule="nonzero"/></clipPath><clipPath id="95a8aba25a"><path d="M 163 520 L 241 520 L 241 575.859375 L 163 575.859375 Z M 163 520 " clip-rule="nonzero"/></clipPath><clipPath id="c305aea753"><path d="M 60 372 L 191 372 L 191 575.859375 L 60 575.859375 Z M 60 372 " clip-rule="nonzero"/></clipPath><clipPath id="78b7009e4d"><path d="M 158 516 L 196 516 L 196 575.859375 L 158 575.859375 Z M 158 516 " clip-rule="nonzero"/></clipPath><clipPath id="9497dc759e"><path d="M 122 300.386719 L 215 300.386719 L 215 402 L 122 402 Z M 122 300.386719 " clip-rule="nonzero"/></clipPath><clipPath id="c68f6f210b"><path d="M 243.070312 260.957031 L 307.539062 260.957031 L 307.539062 325.425781 L 243.070312 325.425781 Z M 243.070312 260.957031 " clip-rule="nonzero"/></clipPath><clipPath id="37b32b6d4a"><path d="M 330.085938 300.386719 L 416 300.386719 L 416 386.597656 L 330.085938 386.597656 Z M 330.085938 300.386719 " clip-rule="nonzero"/></clipPath><clipPath id="7a33b04167"><path d="M 444.925781 235.371094 L 561 235.371094 L 561 351.566406 L 444.925781 351.566406 Z M 444.925781 235.371094 " clip-rule="nonzero"/></clipPath><clipPath id="93d579eef6"><path d="M 520.121094 131.886719 L 601.828125 131.886719 L 601.828125 213.597656 L 520.121094 213.597656 Z M 520.121094 131.886719 " clip-rule="nonzero"/></clipPath><clipPath id="053ed3b993"><path d="M 619.179688 89.019531 L 682.898438 89.019531 L 682.898438 152.738281 L 619.179688 152.738281 Z M 619.179688 89.019531 " clip-rule="nonzero"/></clipPath></defs><g clip-path="url(#9d0137be85)"><path fill="#dd9999" d="M 1023.9375 589.214844 C 1023.9375 589.214844 938.085938 503.792969 915.042969 484.179688 C 892 464.566406 875.386719 457.277344 886.105469 406.796875 C 896.820312 356.316406 901.324219 344.523438 944.945312 337.664062 C 988.566406 330.804688 1005.285156 322.015625 1004.214844 301.867188 C 1003.785156 293.507812 988.566406 289.222656 994.996094 274.429688 C 994.355469 270.035156 982.242188 261.140625 982.242188 261.140625 C 982.242188 261.140625 989.53125 249.671875 987.28125 238.738281 C 987.066406 238.523438 970.5625 232.523438 970.238281 228.984375 C 972.597656 227.808594 983.421875 212.480469 972.277344 204.441406 C 961.128906 196.402344 943.015625 200.691406 932.726562 177.863281 C 922.4375 155.03125 918.257812 115.375 859.84375 101.335938 C 801.433594 87.296875 721.691406 276.039062 721.691406 338.953125 C 721.691406 401.867188 667.886719 589.320312 667.886719 589.320312 L 1023.9375 589.320312 Z M 1023.9375 589.214844 " fill-opacity="1" fill-rule="nonzero"/></g><path fill="#232022" d="M 982.242188 261.140625 C 982.242188 261.140625 985.886719 252.78125 986.101562 247.207031 C 986.316406 241.632812 985.246094 239.167969 987.28125 238.738281 C 989.316406 238.3125 992.53125 245.707031 991.675781 251.066406 C 990.816406 256.425781 984.601562 260.710938 984.601562 260.710938 C 984.601562 260.710938 993.175781 261.140625 997.140625 265.425781 C 1001.105469 269.605469 999.285156 274.214844 994.996094 274.429688 C 990.710938 274.644531 982.457031 262.53125 982.242188 261.140625 Z M 982.242188 261.140625 " fill-opacity="1" fill-rule="nonzero"/><path fill="#232022" d="M 918.902344 188.792969 C 917.9375 188.792969 917.292969 188.6875 917.1875 188.6875 C 916.542969 188.578125 916.113281 188.042969 916.113281 187.402344 C 916.222656 186.757812 916.757812 186.328125 917.398438 186.328125 C 917.507812 186.328125 927.476562 187.292969 930.691406 180.433594 C 931.011719 179.898438 931.65625 179.578125 932.191406 179.898438 C 932.726562 180.21875 933.046875 180.863281 932.726562 181.398438 C 929.726562 187.9375 922.332031 188.792969 918.902344 188.792969 Z M 918.902344 188.792969 " fill-opacity="1" fill-rule="nonzero"/><path fill="#a485be" d="M 898.535156 164.679688 C 898.429688 163.929688 898.429688 163.285156 898.429688 162.640625 C 898.429688 162 898.535156 161.355469 898.535156 160.714844 C 898.75 159.425781 898.964844 158.140625 899.394531 156.855469 C 900.25 154.390625 901.644531 151.925781 903.46875 149.886719 C 904.429688 148.921875 905.394531 147.851562 906.46875 147.101562 C 907.003906 146.671875 907.539062 146.242188 908.183594 145.921875 L 910.003906 144.851562 C 910.648438 144.527344 911.183594 144.207031 911.828125 143.992188 L 913.648438 143.242188 C 914.933594 142.8125 916.222656 142.492188 917.398438 142.0625 C 919.867188 141.3125 922.542969 142.707031 923.296875 145.171875 C 924.046875 147.636719 922.652344 150.316406 920.1875 151.066406 C 919.867188 151.175781 919.542969 151.175781 919.222656 151.28125 L 918.902344 151.28125 L 915.898438 151.601562 L 914.398438 151.925781 C 913.863281 152.03125 913.433594 152.140625 913.007812 152.246094 L 911.613281 152.675781 C 911.183594 152.78125 910.753906 153.101562 910.328125 153.210938 C 909.898438 153.425781 909.46875 153.640625 909.039062 153.855469 C 908.613281 154.066406 908.183594 154.390625 907.859375 154.605469 C 906.253906 155.675781 904.96875 157.175781 903.894531 158.890625 C 903.359375 159.75 902.929688 160.714844 902.609375 161.675781 C 902.503906 162.214844 902.289062 162.640625 902.179688 163.179688 C 902.074219 163.714844 901.964844 164.25 901.859375 164.570312 L 901.859375 164.894531 C 901.753906 165.859375 900.789062 166.5 899.824219 166.285156 C 899.179688 166.070312 898.644531 165.429688 898.535156 164.679688 Z M 898.535156 164.679688 " fill-opacity="1" fill-rule="nonzero"/><g clip-path="url(#8660811dee)"><path fill="#a485be" d="M 866.488281 100.476562 C 866.488281 100.476562 846.339844 115.484375 840.660156 139.597656 C 835.085938 163.714844 860.808594 174.324219 860.808594 187.507812 C 860.808594 200.691406 817.617188 193.9375 812.578125 209.695312 C 807.542969 225.449219 859.203125 242.167969 834.871094 296.082031 C 810.542969 349.992188 851.914062 379.679688 812.148438 414.726562 C 772.386719 449.773438 704.007812 453.097656 691.039062 502.507812 C 678.070312 551.917969 667.886719 589.109375 667.886719 589.109375 L 622.871094 589.109375 C 622.871094 589.109375 601.542969 546.984375 629.730469 455.777344 C 657.917969 364.566406 635.839844 185.042969 709.578125 123.523438 C 783.320312 62 875.601562 92.011719 866.488281 100.476562 Z M 866.488281 100.476562 " fill-opacity="1" fill-rule="nonzero"/></g><path fill="#232022" d="M 844.089844 296.832031 C 844.089844 296.832031 871.3125 336.59375 913.21875 337.453125 C 866.0625 356.101562 844.089844 296.832031 844.089844 296.832031 Z M 844.089844 296.832031 " fill-opacity="1" fill-rule="nonzero"/><path fill="#232022" d="M 964.773438 229.308594 C 964.667969 229.308594 964.667969 229.308594 964.558594 229.308594 C 958.558594 228.34375 954.269531 222.019531 954.164062 221.699219 C 953.839844 221.160156 953.949219 220.410156 954.484375 220.089844 C 955.019531 219.769531 955.769531 219.875 956.089844 220.410156 C 956.089844 220.519531 960.058594 226.199219 964.988281 226.949219 C 965.628906 227.058594 966.058594 227.59375 965.953125 228.234375 C 965.84375 228.878906 965.308594 229.308594 964.773438 229.308594 Z M 964.773438 229.308594 " fill-opacity="1" fill-rule="nonzero"/><path fill="#232022" d="M 851.054688 235.523438 C 851.054688 235.523438 850.949219 235.523438 851.054688 235.523438 C 838.515625 234.773438 831.765625 229.84375 828.335938 225.984375 C 824.582031 221.589844 823.726562 217.410156 823.726562 217.304688 C 823.617188 216.660156 824.046875 216.015625 824.691406 215.910156 C 825.332031 215.804688 825.976562 216.230469 826.082031 216.875 C 826.191406 217.519531 829.085938 231.878906 851.269531 233.273438 C 851.914062 233.273438 852.449219 233.808594 852.34375 234.453125 C 852.128906 235.09375 851.59375 235.523438 851.054688 235.523438 Z M 851.054688 235.523438 " fill-opacity="1" fill-rule="nonzero"/><g clip-path="url(#980565a1d0)"><path fill="#fba249" d="M 94.273438 615.652344 C 90.175781 614.625 79.128906 613.421875 79.9375 609.503906 C 81.339844 602.675781 83.425781 602.851562 85.058594 596.703125 C 87.355469 588.046875 92.738281 577.246094 95.808594 568.027344 C 96.261719 566.738281 96.714844 565.515625 97.167969 564.335938 C 97.230469 582.519531 100.511719 600.460938 105.140625 618.589844 C 101.417969 617.726562 97.777344 616.757812 94.273438 615.652344 Z M 94.273438 615.652344 " fill-opacity="1" fill-rule="nonzero"/></g><g clip-path="url(#b6b7e0ed70)"><path fill="#232022" d="M 110.179688 619.683594 C 108.484375 619.339844 106.804688 618.976562 105.140625 618.589844 C 100.511719 600.460938 97.230469 582.519531 97.167969 564.335938 C 98.796875 560.125 100.449219 556.507812 102.222656 552.457031 C 100.390625 575.125 104.3125 597.242188 110.179688 619.683594 Z M 110.179688 619.683594 " fill-opacity="1" fill-rule="nonzero"/></g><path fill="#a485be" d="M 128.40625 342.746094 C 139.671875 342.257812 149.953125 341.277344 159.75 347.644531 C 159.914062 347.753906 160.082031 347.875 160.25 347.988281 C 160.386719 345.558594 160.238281 343.089844 160.238281 340.296875 C 159.257812 325.605469 166.605469 322.667969 180.316406 319.730469 C 206.761719 314.34375 235.652344 318.261719 226.835938 352.050781 C 223.898438 362.332031 226.347656 375.554688 220.472656 384.367188 C 215.785156 391.660156 210.269531 394.246094 204.214844 394.179688 C 213.851562 405 221.683594 416.359375 219 433.339844 C 214.59375 462.230469 191.089844 468.597656 166.605469 470.070312 C 154.359375 471.046875 152.894531 464.191406 148.484375 454.398438 C 144.570312 444.605469 139.179688 435.789062 135.265625 425.996094 C 130.367188 414.242188 124.492188 404.449219 114.695312 397.101562 C 109.800781 393.183594 93.148438 381.921875 92.171875 376.535156 C 90.703125 355.96875 110.289062 343.234375 128.40625 342.746094 Z M 128.40625 342.746094 " fill-opacity="1" fill-rule="nonzero"/><g clip-path="url(#95a8aba25a)"><path fill="#fba249" d="M 164.839844 567.378906 C 167.296875 548.855469 173.472656 521.984375 195.699219 520.777344 C 204.035156 527.75 210.914062 536.546875 218.511719 544.992188 C 226.347656 553.316406 236.632812 564.578125 240.0625 575.839844 C 242.996094 586.125 227.328125 598.859375 219.984375 606.203125 C 211.167969 614.039062 202.351562 621.875 190.597656 622.367188 C 181.515625 622.765625 172.429688 622.988281 163.378906 622.953125 C 163.164062 604.398438 162.390625 585.867188 164.839844 567.378906 Z M 164.839844 567.378906 " fill-opacity="1" fill-rule="nonzero"/></g><g clip-path="url(#c305aea753)"><path fill="#fba249" d="M 68.910156 422.5625 C 75.277344 418.886719 74.050781 416.195312 74.296875 410.074219 C 74.296875 405.175781 76.011719 400.28125 76.5 395.382812 C 77.722656 387.058594 84.089844 375.304688 93.394531 373.835938 C 94.863281 373.347656 102.941406 372.855469 104.65625 372.855469 C 116.65625 374.082031 128.652344 383.140625 137.46875 390.730469 C 147.507812 399.546875 152.894531 409.09375 152.40625 422.316406 C 156.320312 419.625 163.421875 420.847656 166.359375 424.519531 C 172.980469 432.34375 163.660156 445.582031 155.09375 451.328125 C 155.253906 458.417969 153.875 465.644531 153.875 472.636719 C 153.875 477.046875 153.503906 481.820312 153.875 486.226562 C 154.597656 492.050781 156.773438 493.1875 160.742188 497.5 C 170.660156 503.921875 182.925781 511.378906 190.746094 516.972656 C 171.902344 521 164.257812 542.933594 161.363281 560.964844 C 158.054688 581.574219 158.777344 602.191406 158.976562 622.925781 C 147.558594 622.769531 136.203125 622.167969 124.980469 620.898438 C 120.058594 620.191406 115.136719 619.371094 110.320312 618.386719 C 104.707031 596.921875 100.957031 575.769531 102.710938 554.09375 C 104.292969 550.472656 105.980469 546.484375 107.839844 541.316406 C 108.207031 540.296875 108.792969 539.074219 109.410156 537.855469 C 107.570312 523.574219 103.898438 507.847656 97.3125 494.671875 C 95.402344 491.167969 93.484375 486.570312 90.140625 483.972656 C 94.277344 482.453125 98.222656 479.550781 102.050781 477.800781 C 108.5 474.859375 114.953125 471.953125 121.515625 469.28125 C 126.640625 467.1875 131.195312 464.914062 134.742188 460.5625 C 136.402344 458.519531 137.128906 455.640625 139.558594 454.265625 C 142.671875 452.5 146.355469 452.300781 149.832031 451.882812 C 150.984375 451.742188 151 449.917969 149.832031 450.054688 C 144.867188 450.65625 139.523438 450.871094 136.125 455.003906 C 134.523438 456.949219 133.707031 459.367188 131.855469 461.167969 C 129.722656 463.246094 127.246094 464.800781 124.535156 466.019531 C 118.308594 468.816406 111.964844 471.359375 105.730469 474.148438 C 102.144531 475.75 98.539062 477.347656 95.046875 479.152344 C 92.691406 480.371094 90.527344 481.957031 88.027344 482.699219 C 87.019531 482.234375 85.921875 481.992188 84.78125 481.824219 C 75.75 482.917969 62.035156 483.039062 64.503906 473.734375 C 65.234375 470.796875 68.171875 468.839844 68.171875 465.65625 C 68.171875 462.960938 65.96875 461.003906 65.726562 458.308594 C 65.484375 454.636719 67.6875 454.636719 68.664062 452.191406 C 69.890625 449.496094 67.6875 449.25 67.195312 445.820312 C 66.707031 443.617188 68.910156 440.679688 68.171875 438.722656 C 67.6875 437.007812 63.523438 435.050781 62.054688 433.332031 C 57.644531 427.460938 64.011719 425.5 68.910156 422.5625 Z M 68.910156 422.5625 " fill-opacity="1" fill-rule="nonzero"/></g><g clip-path="url(#78b7009e4d)"><path fill="#232022" d="M 161.363281 560.964844 C 164.257812 542.933594 171.902344 521 190.746094 516.972656 C 191.023438 517.171875 191.3125 517.375 191.578125 517.566406 C 193 518.582031 194.363281 519.660156 195.699219 520.777344 C 173.472656 521.984375 167.296875 548.855469 164.839844 567.378906 C 162.390625 585.867188 163.167969 604.398438 163.378906 622.953125 C 161.910156 622.949219 160.441406 622.941406 158.976562 622.925781 C 158.777344 602.191406 158.054688 581.574219 161.363281 560.964844 Z M 161.363281 560.964844 " fill-opacity="1" fill-rule="nonzero"/></g><g clip-path="url(#9497dc759e)"><path fill="#232022" d="M 187.664062 376.777344 C 186.191406 350.335938 192.070312 318.75 167.097656 300.386719 C 165.625 312.875 163.421875 327.5625 167.097656 339.316406 C 170.765625 352.539062 183.253906 363.554688 186.191406 376.777344 C 170.765625 353.273438 149.46875 335.644531 122.289062 329.035156 C 130.367188 349.601562 145.792969 364.292969 166.359375 372.371094 C 186.925781 380.453125 201.621094 380.453125 214.105469 401.753906 C 204.558594 398.082031 188.394531 387.0625 186.925781 376.777344 " fill-opacity="1" fill-rule="nonzero"/></g><path fill="#a485be" d="M 96.160156 371.265625 C 85.699219 372.308594 107.667969 384.339844 110.808594 385.386719 C 122.3125 389.046875 126.496094 393.753906 133.820312 403.167969 C 141.667969 413.109375 149.511719 406.308594 158.925781 412.0625 C 156.3125 392.710938 115.511719 365.507812 96.160156 371.265625 " fill-opacity="1" fill-rule="nonzero"/><path fill="#a485be" d="M 97.730469 376.371094 C 94.589844 373.234375 87.792969 368.003906 82.5625 369.046875 C 74.191406 370.617188 72.625 386.308594 82.5625 386.832031 C 71.578125 378.464844 92.496094 371.664062 99.820312 375.847656 " fill-opacity="1" fill-rule="nonzero"/><g clip-path="url(#c68f6f210b)"><path fill="#a485be" d="M 300.019531 271.21875 C 298.753906 269.027344 296.460938 267.800781 294.101562 267.800781 C 291.742188 267.796875 289.445312 266.570312 288.179688 264.378906 C 286.292969 261.109375 282.113281 259.992188 278.84375 261.878906 C 276.8125 263.046875 274.234375 263.140625 272.054688 261.902344 C 271.035156 261.304688 269.851562 260.960938 268.589844 260.960938 C 266.058594 260.960938 263.851562 262.335938 262.667969 264.378906 C 261.484375 266.421875 259.277344 267.796875 256.746094 267.796875 C 252.972656 267.796875 249.910156 270.855469 249.910156 274.628906 L 249.910156 274.632812 L 249.910156 274.628906 C 249.90625 276.972656 248.699219 279.25 246.539062 280.519531 C 245.511719 281.101562 244.621094 281.957031 243.988281 283.050781 C 242.722656 285.242188 242.808594 287.84375 243.988281 289.890625 C 245.164062 291.933594 245.25 294.535156 243.984375 296.726562 C 242.097656 299.996094 243.21875 304.175781 246.488281 306.0625 C 248.53125 307.246094 249.90625 309.453125 249.90625 311.984375 C 249.90625 315.761719 252.964844 318.820312 256.742188 318.820312 C 259.269531 318.820312 261.480469 320.195312 262.660156 322.238281 C 263.84375 324.28125 266.050781 325.65625 268.582031 325.65625 C 269.847656 325.65625 271.03125 325.3125 272.046875 324.710938 C 274.226562 323.476562 276.804688 323.570312 278.835938 324.738281 C 282.105469 326.625 286.289062 325.503906 288.175781 322.234375 C 289.441406 320.042969 291.734375 318.820312 294.09375 318.816406 C 296.453125 318.8125 298.75 317.589844 300.015625 315.398438 C 300.636719 314.320312 300.933594 313.140625 300.929688 311.980469 L 300.933594 311.980469 C 300.933594 309.703125 302.074219 307.488281 304.121094 306.199219 C 305.226562 305.617188 306.183594 304.726562 306.851562 303.570312 C 308.117188 301.378906 308.03125 298.777344 306.855469 296.730469 C 305.675781 294.6875 305.589844 292.085938 306.855469 289.894531 C 308.742188 286.625 307.621094 282.445312 304.351562 280.558594 L 304.355469 280.558594 C 302.328125 279.386719 300.957031 277.203125 300.9375 274.695312 C 300.949219 273.515625 300.652344 272.316406 300.019531 271.21875 " fill-opacity="1" fill-rule="nonzero"/></g><g clip-path="url(#37b32b6d4a)"><path fill="#a485be" d="M 405.632812 314 C 403.957031 311.09375 400.914062 309.46875 397.78125 309.464844 C 394.652344 309.460938 391.605469 307.835938 389.929688 304.929688 C 387.425781 300.59375 381.878906 299.105469 377.539062 301.613281 L 377.539062 301.609375 C 374.847656 303.160156 371.425781 303.285156 368.535156 301.644531 C 367.183594 300.847656 365.613281 300.394531 363.9375 300.394531 C 360.582031 300.394531 357.652344 302.21875 356.082031 304.925781 C 354.515625 307.636719 351.582031 309.460938 348.226562 309.460938 C 343.21875 309.460938 339.160156 313.519531 339.160156 318.527344 L 339.15625 318.527344 C 339.152344 321.636719 337.550781 324.65625 334.6875 326.34375 C 333.324219 327.113281 332.144531 328.246094 331.304688 329.699219 C 329.625 332.605469 329.738281 336.054688 331.300781 338.769531 C 332.863281 341.480469 332.976562 344.929688 331.300781 347.839844 C 328.796875 352.175781 330.28125 357.71875 334.621094 360.226562 L 334.617188 360.226562 C 337.328125 361.792969 339.152344 364.726562 339.152344 368.082031 C 339.152344 373.089844 343.210938 377.148438 348.21875 377.148438 C 351.574219 377.148438 354.503906 378.972656 356.074219 381.683594 C 357.640625 384.390625 360.574219 386.214844 363.929688 386.214844 C 365.605469 386.214844 367.175781 385.757812 368.523438 384.964844 C 371.417969 383.324219 374.835938 383.449219 377.53125 385 L 377.53125 384.996094 L 377.53125 385 C 381.871094 387.503906 387.414062 386.015625 389.921875 381.679688 C 391.597656 378.773438 394.640625 377.148438 397.773438 377.144531 C 400.902344 377.140625 403.949219 375.515625 405.625 372.609375 C 406.453125 371.175781 406.84375 369.613281 406.84375 368.074219 C 406.847656 365.054688 408.359375 362.113281 411.074219 360.40625 C 412.539062 359.632812 413.808594 358.453125 414.699219 356.917969 C 416.375 354.007812 416.261719 350.5625 414.699219 347.847656 C 413.136719 345.136719 413.023438 341.6875 414.699219 338.777344 C 417.203125 334.441406 415.71875 328.894531 411.382812 326.390625 L 411.378906 326.390625 L 411.382812 326.390625 C 408.695312 324.835938 406.878906 321.9375 406.851562 318.617188 C 406.867188 317.046875 406.472656 315.457031 405.632812 314 " fill-opacity="1" fill-rule="nonzero"/></g><g clip-path="url(#7a33b04167)"><path fill="#a485be" d="M 546.914062 253.75 C 544.648438 249.824219 540.539062 247.628906 536.3125 247.625 C 532.085938 247.621094 527.976562 245.425781 525.710938 241.503906 C 522.332031 235.648438 514.84375 233.644531 508.988281 237.023438 L 508.988281 237.019531 C 505.351562 239.117188 500.738281 239.28125 496.828125 237.066406 C 495.007812 235.992188 492.890625 235.378906 490.625 235.378906 C 486.09375 235.378906 482.140625 237.839844 480.023438 241.5 C 477.90625 245.15625 473.949219 247.617188 469.417969 247.617188 C 462.660156 247.617188 457.179688 253.097656 457.179688 259.859375 L 457.175781 259.859375 C 457.171875 264.054688 455.007812 268.132812 451.144531 270.40625 C 449.300781 271.445312 447.707031 272.976562 446.574219 274.941406 C 444.308594 278.863281 444.460938 283.519531 446.570312 287.183594 C 448.679688 290.84375 448.835938 295.5 446.570312 299.425781 C 443.1875 305.277344 445.195312 312.765625 451.050781 316.144531 L 451.046875 316.148438 C 454.707031 318.261719 457.167969 322.21875 457.167969 326.75 C 457.167969 333.511719 462.648438 338.992188 469.40625 338.992188 C 473.9375 338.992188 477.894531 341.453125 480.011719 345.109375 C 482.128906 348.769531 486.082031 351.230469 490.613281 351.230469 C 492.878906 351.230469 495 350.613281 496.820312 349.542969 C 500.722656 347.328125 505.339844 347.492188 508.976562 349.589844 L 508.976562 349.585938 C 514.832031 352.964844 522.320312 350.960938 525.699219 345.105469 C 527.964844 341.183594 532.074219 338.988281 536.300781 338.984375 C 540.527344 338.980469 544.636719 336.785156 546.898438 332.863281 C 548.015625 330.929688 548.542969 328.820312 548.542969 326.738281 L 548.542969 326.742188 C 548.546875 322.664062 550.589844 318.695312 554.257812 316.386719 C 556.234375 315.347656 557.949219 313.757812 559.144531 311.679688 C 561.414062 307.753906 561.257812 303.097656 559.148438 299.4375 C 557.039062 295.777344 556.882812 291.121094 559.148438 287.195312 C 562.53125 281.339844 560.523438 273.855469 554.667969 270.472656 L 554.671875 270.472656 C 551.042969 268.371094 548.589844 264.460938 548.550781 259.976562 C 548.574219 257.859375 548.046875 255.710938 546.914062 253.75 " fill-opacity="1" fill-rule="nonzero"/></g><g clip-path="url(#93d579eef6)"><path fill="#a485be" d="M 591.730469 144.789062 C 590.140625 142.035156 587.253906 140.492188 584.289062 140.492188 C 581.320312 140.488281 578.433594 138.945312 576.84375 136.191406 C 574.46875 132.082031 569.214844 130.671875 565.101562 133.046875 L 565.101562 133.042969 C 562.546875 134.515625 559.308594 134.632812 556.566406 133.074219 C 555.285156 132.324219 553.796875 131.890625 552.207031 131.890625 C 549.027344 131.890625 546.25 133.621094 544.761719 136.1875 C 543.277344 138.757812 540.5 140.484375 537.316406 140.484375 C 532.570312 140.484375 528.722656 144.332031 528.722656 149.082031 L 528.71875 149.082031 C 528.71875 152.027344 527.199219 154.890625 524.484375 156.488281 C 523.191406 157.21875 522.070312 158.292969 521.273438 159.671875 C 519.683594 162.425781 519.792969 165.695312 521.273438 168.265625 C 522.753906 170.835938 522.863281 174.105469 521.273438 176.863281 C 518.898438 180.972656 520.308594 186.230469 524.417969 188.605469 C 526.988281 190.089844 528.714844 192.867188 528.714844 196.050781 C 528.714844 200.796875 532.5625 204.644531 537.308594 204.644531 C 540.492188 204.644531 543.269531 206.375 544.753906 208.941406 C 546.242188 211.511719 549.019531 213.238281 552.199219 213.238281 C 553.789062 213.238281 555.277344 212.808594 556.558594 212.054688 C 559.300781 210.5 562.539062 210.617188 565.09375 212.089844 L 565.09375 212.085938 C 569.207031 214.460938 574.460938 213.050781 576.835938 208.941406 C 578.425781 206.183594 581.3125 204.644531 584.28125 204.640625 C 587.246094 204.636719 590.132812 203.097656 591.722656 200.339844 C 592.507812 198.984375 592.878906 197.503906 592.875 196.042969 L 592.878906 196.042969 C 592.878906 193.179688 594.316406 190.394531 596.890625 188.773438 C 598.277344 188.042969 599.480469 186.925781 600.320312 185.46875 C 601.914062 182.710938 601.804688 179.441406 600.324219 176.871094 C 598.84375 174.300781 598.734375 171.03125 600.324219 168.277344 C 602.699219 164.164062 601.289062 158.90625 597.179688 156.535156 L 597.179688 156.53125 C 594.632812 155.058594 592.910156 152.3125 592.882812 149.164062 C 592.898438 147.675781 592.527344 146.167969 591.730469 144.789062 " fill-opacity="1" fill-rule="nonzero"/></g><g clip-path="url(#053ed3b993)"><path fill="#a485be" d="M 675.214844 99.113281 C 673.96875 96.957031 671.710938 95.753906 669.390625 95.75 C 667.070312 95.75 664.8125 94.542969 663.566406 92.386719 C 661.707031 89.167969 657.597656 88.066406 654.378906 89.925781 L 654.378906 89.921875 C 652.378906 91.074219 649.84375 91.164062 647.699219 89.949219 C 646.699219 89.359375 645.53125 89.019531 644.289062 89.019531 C 641.800781 89.019531 639.625 90.375 638.464844 92.382812 C 637.300781 94.394531 635.128906 95.746094 632.636719 95.746094 C 628.921875 95.746094 625.914062 98.757812 625.914062 102.472656 L 625.910156 102.472656 C 625.910156 104.777344 624.71875 107.015625 622.597656 108.265625 C 621.585938 108.839844 620.707031 109.679688 620.085938 110.757812 C 618.839844 112.914062 618.925781 115.472656 620.085938 117.484375 C 621.242188 119.496094 621.328125 122.054688 620.082031 124.210938 C 618.226562 127.425781 619.328125 131.539062 622.546875 133.398438 L 622.542969 133.398438 C 624.554688 134.5625 625.90625 136.734375 625.90625 139.222656 C 625.90625 142.9375 628.917969 145.949219 632.632812 145.949219 C 635.121094 145.949219 637.292969 147.300781 638.457031 149.3125 C 639.621094 151.320312 641.792969 152.675781 644.28125 152.675781 C 645.527344 152.675781 646.691406 152.335938 647.691406 151.746094 C 649.835938 150.53125 652.375 150.621094 654.371094 151.773438 L 654.371094 151.769531 C 657.589844 153.628906 661.703125 152.527344 663.558594 149.308594 C 664.804688 147.152344 667.0625 145.949219 669.382812 145.945312 C 671.707031 145.941406 673.964844 144.738281 675.207031 142.582031 C 675.820312 141.519531 676.113281 140.363281 676.109375 139.21875 L 676.113281 139.21875 C 676.113281 136.980469 677.234375 134.796875 679.25 133.53125 C 680.335938 132.960938 681.277344 132.085938 681.9375 130.945312 C 683.183594 128.789062 683.097656 126.230469 681.9375 124.21875 C 680.777344 122.207031 680.695312 119.648438 681.9375 117.492188 C 683.796875 114.273438 682.695312 110.160156 679.476562 108.304688 C 677.484375 107.148438 676.136719 105 676.117188 102.535156 C 676.128906 101.375 675.839844 100.195312 675.214844 99.113281 " fill-opacity="1" fill-rule="nonzero"/></g></svg>