<svg xmlns="http://www.w3.org/2000/svg" xmlns:xlink="http://www.w3.org/1999/xlink" width="1100" zoomAndPan="magnify" viewBox="0 0 824.88 576" height="768" preserveAspectRatio="xMidYMid meet" version="1.0"><defs><clipPath id="ab2b83c20c"><path d="M 171.8125 47.371094 L 653.242188 47.371094 L 653.242188 528.800781 L 171.8125 528.800781 Z M 171.8125 47.371094 " clip-rule="nonzero"/></clipPath></defs><g clip-path="url(#ab2b83c20c)"><path fill="#292929" d="M 653.175781 288.09375 C 653.175781 292.03125 653.082031 295.96875 652.886719 299.902344 C 652.695312 303.835938 652.402344 307.761719 652.019531 311.679688 C 651.632812 315.597656 651.148438 319.507812 650.570312 323.402344 C 649.992188 327.296875 649.320312 331.175781 648.554688 335.039062 C 647.785156 338.902344 646.921875 342.742188 645.964844 346.5625 C 645.007812 350.382812 643.957031 354.179688 642.816406 357.949219 C 641.671875 361.714844 640.4375 365.453125 639.109375 369.164062 C 637.78125 372.871094 636.367188 376.542969 634.859375 380.183594 C 633.351562 383.820312 631.757812 387.421875 630.070312 390.980469 C 628.386719 394.542969 626.617188 398.058594 624.761719 401.53125 C 622.90625 405.003906 620.964844 408.429688 618.941406 411.808594 C 616.914062 415.1875 614.808594 418.511719 612.621094 421.789062 C 610.433594 425.0625 608.164062 428.28125 605.820312 431.445312 C 603.472656 434.605469 601.050781 437.710938 598.554688 440.753906 C 596.054688 443.800781 593.484375 446.78125 590.839844 449.699219 C 588.191406 452.617188 585.476562 455.46875 582.695312 458.253906 C 579.910156 461.039062 577.058594 463.753906 574.140625 466.398438 C 571.222656 469.042969 568.238281 471.613281 565.195312 474.113281 C 562.152344 476.613281 559.046875 479.035156 555.882812 481.378906 C 552.71875 483.726562 549.5 485.992188 546.226562 488.179688 C 542.953125 490.367188 539.625 492.476562 536.25 494.5 C 532.871094 496.523438 529.445312 498.464844 525.972656 500.320312 C 522.5 502.179688 518.980469 503.949219 515.421875 505.632812 C 511.859375 507.316406 508.261719 508.910156 504.621094 510.417969 C 500.984375 511.925781 497.3125 513.34375 493.601562 514.667969 C 489.894531 515.996094 486.15625 517.230469 482.386719 518.375 C 478.617188 519.519531 474.824219 520.566406 471.003906 521.523438 C 467.183594 522.480469 463.34375 523.34375 459.480469 524.113281 C 455.617188 524.882812 451.738281 525.554688 447.84375 526.132812 C 443.945312 526.710938 440.039062 527.191406 436.121094 527.578125 C 432.199219 527.964844 428.273438 528.253906 424.339844 528.445312 C 420.40625 528.640625 416.472656 528.738281 412.53125 528.738281 C 408.59375 528.738281 404.660156 528.640625 400.726562 528.445312 C 396.792969 528.253906 392.863281 527.964844 388.945312 527.578125 C 385.027344 527.191406 381.117188 526.710938 377.222656 526.132812 C 373.328125 525.554688 369.449219 524.882812 365.585938 524.113281 C 361.722656 523.34375 357.882812 522.480469 354.0625 521.523438 C 350.242188 520.566406 346.445312 519.519531 342.675781 518.375 C 338.910156 517.230469 335.171875 515.996094 331.460938 514.667969 C 327.753906 513.34375 324.082031 511.925781 320.441406 510.417969 C 316.804688 508.910156 313.203125 507.316406 309.644531 505.632812 C 306.082031 503.949219 302.566406 502.179688 299.09375 500.320312 C 295.621094 498.464844 292.195312 496.523438 288.816406 494.5 C 285.4375 492.476562 282.113281 490.367188 278.839844 488.179688 C 275.5625 485.992188 272.34375 483.726562 269.179688 481.378906 C 266.019531 479.035156 262.914062 476.613281 259.871094 474.113281 C 256.824219 471.613281 253.84375 469.042969 250.925781 466.398438 C 248.007812 463.753906 245.15625 461.039062 242.371094 458.253906 C 239.585938 455.46875 236.871094 452.617188 234.226562 449.699219 C 231.582031 446.78125 229.011719 443.800781 226.511719 440.753906 C 224.015625 437.710938 221.589844 434.605469 219.246094 431.445312 C 216.898438 428.28125 214.632812 425.0625 212.445312 421.789062 C 210.257812 418.511719 208.148438 415.1875 206.125 411.808594 C 204.101562 408.429688 202.160156 405.003906 200.304688 401.53125 C 198.445312 398.058594 196.675781 394.542969 194.992188 390.980469 C 193.308594 387.421875 191.714844 383.820312 190.207031 380.183594 C 188.699219 376.542969 187.28125 372.871094 185.957031 369.164062 C 184.628906 365.453125 183.394531 361.714844 182.25 357.949219 C 181.105469 354.179688 180.058594 350.382812 179.101562 346.5625 C 178.144531 342.742188 177.28125 338.902344 176.511719 335.039062 C 175.742188 331.175781 175.070312 327.296875 174.492188 323.402344 C 173.914062 319.507812 173.433594 315.597656 173.046875 311.679688 C 172.660156 307.761719 172.371094 303.835938 172.179688 299.902344 C 171.984375 295.96875 171.886719 292.03125 171.886719 288.09375 C 171.886719 284.15625 171.984375 280.21875 172.179688 276.285156 C 172.371094 272.351562 172.660156 268.425781 173.046875 264.503906 C 173.433594 260.585938 173.914062 256.679688 174.492188 252.78125 C 175.070312 248.886719 175.742188 245.007812 176.511719 241.144531 C 177.28125 237.28125 178.144531 233.441406 179.101562 229.621094 C 180.058594 225.800781 181.105469 222.007812 182.25 218.238281 C 183.394531 214.46875 184.628906 210.730469 185.957031 207.023438 C 187.28125 203.3125 188.699219 199.640625 190.207031 196.003906 C 191.714844 192.363281 193.308594 188.765625 194.992188 185.203125 C 196.675781 181.644531 198.445312 178.128906 200.304688 174.652344 C 202.160156 171.179688 204.101562 167.753906 206.125 164.375 C 208.148438 161 210.257812 157.671875 212.445312 154.398438 C 214.632812 151.125 216.898438 147.90625 219.246094 144.742188 C 221.589844 141.578125 224.015625 138.472656 226.511719 135.429688 C 229.011719 132.386719 231.582031 129.402344 234.226562 126.484375 C 236.871094 123.566406 239.585938 120.714844 242.371094 117.929688 C 245.15625 115.148438 248.007812 112.433594 250.925781 109.789062 C 253.84375 107.140625 256.824219 104.570312 259.871094 102.070312 C 262.914062 99.574219 266.019531 97.152344 269.179688 94.804688 C 272.34375 92.460938 275.5625 90.191406 278.835938 88.003906 C 282.113281 85.816406 285.4375 83.710938 288.816406 81.683594 C 292.195312 79.660156 295.621094 77.71875 299.09375 75.863281 C 302.566406 74.007812 306.082031 72.238281 309.644531 70.554688 C 313.203125 68.867188 316.804688 67.273438 320.441406 65.765625 C 324.082031 64.257812 327.753906 62.84375 331.460938 61.515625 C 335.171875 60.1875 338.910156 58.953125 342.675781 57.8125 C 346.445312 56.667969 350.242188 55.617188 354.0625 54.660156 C 357.882812 53.703125 361.722656 52.839844 365.585938 52.074219 C 369.449219 51.304688 373.328125 50.632812 377.222656 50.054688 C 381.117188 49.476562 385.027344 48.992188 388.945312 48.605469 C 392.863281 48.222656 396.792969 47.933594 400.726562 47.738281 C 404.660156 47.546875 408.59375 47.449219 412.53125 47.449219 C 416.472656 47.449219 420.40625 47.546875 424.339844 47.738281 C 428.273438 47.933594 432.199219 48.222656 436.121094 48.605469 C 440.039062 48.992188 443.945312 49.476562 447.84375 50.054688 C 451.738281 50.632812 455.617188 51.304688 459.480469 52.074219 C 463.34375 52.839844 467.183594 53.703125 471.003906 54.660156 C 474.824219 55.617188 478.617188 56.667969 482.386719 57.8125 C 486.15625 58.953125 489.894531 60.1875 493.601562 61.515625 C 497.3125 62.84375 500.984375 64.257812 504.621094 65.765625 C 508.261719 67.273438 511.859375 68.867188 515.421875 70.554688 C 518.980469 72.238281 522.5 74.007812 525.972656 75.863281 C 529.445312 77.71875 532.871094 79.660156 536.25 81.683594 C 539.625 83.710938 542.953125 85.816406 546.226562 88.003906 C 549.5 90.191406 552.71875 92.460938 555.882812 94.804688 C 559.046875 97.152344 562.152344 99.574219 565.195312 102.070312 C 568.238281 104.570312 571.222656 107.140625 574.140625 109.789062 C 577.058594 112.433594 579.910156 115.148438 582.695312 117.929688 C 585.476562 120.714844 588.191406 123.566406 590.839844 126.484375 C 593.484375 129.402344 596.054688 132.386719 598.554688 135.429688 C 601.050781 138.472656 603.472656 141.578125 605.820312 144.742188 C 608.164062 147.90625 610.433594 151.125 612.621094 154.398438 C 614.808594 157.671875 616.914062 161 618.941406 164.375 C 620.964844 167.753906 622.90625 171.179688 624.761719 174.652344 C 626.617188 178.128906 628.386719 181.644531 630.070312 185.203125 C 631.757812 188.765625 633.351562 192.363281 634.859375 196.003906 C 636.367188 199.640625 637.78125 203.3125 639.109375 207.023438 C 640.4375 210.730469 641.671875 214.46875 642.816406 218.238281 C 643.957031 222.007812 645.007812 225.800781 645.964844 229.621094 C 646.921875 233.441406 647.785156 237.28125 648.554688 241.144531 C 649.320312 245.007812 649.992188 248.886719 650.570312 252.78125 C 651.148438 256.679688 651.632812 260.585938 652.019531 264.503906 C 652.402344 268.425781 652.695312 272.351562 652.886719 276.285156 C 653.082031 280.21875 653.175781 284.15625 653.175781 288.09375 Z M 653.175781 288.09375 " fill-opacity="1" fill-rule="nonzero"/></g><path fill="#e6a6f8" d="M 449.007812 291.996094 L 433.441406 318.011719 L 449.007812 371.457031 L 438.632812 415.167969 L 449.007812 457.617188 L 408.859375 497.761719 L 368.714844 457.617188 L 368.714844 261.644531 L 408.859375 263.324219 L 449.007812 265 Z M 449.007812 291.996094 " fill-opacity="1" fill-rule="nonzero"/><path fill="#e6a6f8" d="M 408.859375 263.324219 L 408.859375 497.761719 L 368.714844 457.617188 L 368.714844 261.644531 Z M 408.859375 263.324219 " fill-opacity="1" fill-rule="nonzero"/><path fill="#e6a6f8" d="M 509.375 175.265625 C 509.375 176.851562 509.335938 178.433594 509.257812 180.015625 C 509.179688 181.597656 509.0625 183.179688 508.90625 184.757812 C 508.753906 186.335938 508.558594 187.90625 508.324219 189.472656 C 508.09375 191.042969 507.824219 192.601562 507.511719 194.15625 C 507.203125 195.710938 506.855469 197.257812 506.472656 198.796875 C 506.085938 200.332031 505.664062 201.859375 505.203125 203.375 C 504.742188 204.894531 504.246094 206.398438 503.710938 207.890625 C 503.179688 209.382812 502.609375 210.859375 502.003906 212.324219 C 501.394531 213.789062 500.753906 215.238281 500.074219 216.667969 C 499.398438 218.101562 498.6875 219.519531 497.9375 220.914062 C 497.191406 222.3125 496.410156 223.691406 495.597656 225.050781 C 494.78125 226.410156 493.933594 227.75 493.054688 229.066406 C 492.171875 230.382812 491.261719 231.679688 490.316406 232.953125 C 489.371094 234.226562 488.398438 235.476562 487.390625 236.699219 C 486.386719 237.925781 485.351562 239.125 484.289062 240.300781 C 483.222656 241.472656 482.128906 242.621094 481.007812 243.742188 C 479.890625 244.863281 478.742188 245.957031 477.566406 247.019531 C 476.394531 248.082031 475.191406 249.117188 473.96875 250.125 C 472.742188 251.128906 471.492188 252.105469 470.222656 253.046875 C 468.949219 253.992188 467.652344 254.90625 466.335938 255.785156 C 465.015625 256.664062 463.679688 257.511719 462.320312 258.328125 C 460.960938 259.144531 459.582031 259.925781 458.183594 260.671875 C 456.785156 261.417969 455.371094 262.128906 453.9375 262.808594 C 452.503906 263.484375 451.054688 264.128906 449.59375 264.734375 C 448.128906 265.339844 446.648438 265.910156 445.15625 266.445312 C 443.664062 266.980469 442.160156 267.476562 440.644531 267.9375 C 439.128906 268.394531 437.601562 268.820312 436.0625 269.203125 C 434.527344 269.589844 432.980469 269.9375 431.425781 270.246094 C 429.871094 270.554688 428.308594 270.824219 426.742188 271.058594 C 425.175781 271.289062 423.601562 271.484375 422.023438 271.640625 C 420.449219 271.796875 418.867188 271.910156 417.285156 271.988281 C 415.703125 272.066406 414.117188 272.105469 412.53125 272.105469 C 410.949219 272.105469 409.363281 272.066406 407.78125 271.988281 C 406.199219 271.910156 404.617188 271.796875 403.039062 271.640625 C 401.464844 271.484375 399.890625 271.289062 398.324219 271.058594 C 396.753906 270.824219 395.195312 270.554688 393.640625 270.246094 C 392.085938 269.9375 390.539062 269.589844 389.003906 269.203125 C 387.464844 268.820312 385.9375 268.394531 384.421875 267.9375 C 382.90625 267.476562 381.398438 266.980469 379.90625 266.445312 C 378.414062 265.910156 376.9375 265.339844 375.472656 264.734375 C 374.007812 264.128906 372.558594 263.484375 371.128906 262.808594 C 369.695312 262.128906 368.28125 261.417969 366.882812 260.671875 C 365.484375 259.925781 364.105469 259.144531 362.746094 258.328125 C 361.386719 257.511719 360.046875 256.664062 358.730469 255.785156 C 357.414062 254.90625 356.117188 253.992188 354.84375 253.046875 C 353.570312 252.105469 352.320312 251.128906 351.097656 250.125 C 349.871094 249.117188 348.671875 248.082031 347.496094 247.019531 C 346.324219 245.957031 345.175781 244.863281 344.054688 243.742188 C 342.933594 242.621094 341.84375 241.472656 340.777344 240.300781 C 339.714844 239.125 338.679688 237.925781 337.671875 236.699219 C 336.667969 235.476562 335.691406 234.226562 334.75 232.953125 C 333.804688 231.679688 332.890625 230.382812 332.011719 229.066406 C 331.132812 227.75 330.285156 226.410156 329.46875 225.050781 C 328.652344 223.691406 327.875 222.3125 327.125 220.914062 C 326.378906 219.519531 325.667969 218.101562 324.988281 216.667969 C 324.3125 215.238281 323.667969 213.789062 323.0625 212.324219 C 322.457031 210.859375 321.886719 209.382812 321.351562 207.890625 C 320.816406 206.398438 320.320312 204.894531 319.859375 203.375 C 319.402344 201.859375 318.980469 200.332031 318.59375 198.796875 C 318.207031 197.257812 317.859375 195.710938 317.550781 194.15625 C 317.242188 192.601562 316.972656 191.042969 316.738281 189.472656 C 316.507812 187.90625 316.3125 186.335938 316.15625 184.757812 C 316.003906 183.179688 315.886719 181.601562 315.808594 180.015625 C 315.730469 178.433594 315.691406 176.851562 315.691406 175.265625 C 315.691406 173.679688 315.730469 172.097656 315.808594 170.511719 C 315.886719 168.929688 316.003906 167.351562 316.15625 165.773438 C 316.3125 164.195312 316.507812 162.621094 316.738281 161.054688 C 316.972656 159.488281 317.242188 157.925781 317.550781 156.371094 C 317.859375 154.816406 318.207031 153.273438 318.59375 151.734375 C 318.980469 150.195312 319.402344 148.667969 319.859375 147.152344 C 320.320312 145.636719 320.816406 144.132812 321.351562 142.640625 C 321.886719 141.148438 322.457031 139.667969 323.0625 138.207031 C 323.667969 136.742188 324.3125 135.292969 324.988281 133.859375 C 325.667969 132.425781 326.378906 131.011719 327.125 129.613281 C 327.875 128.214844 328.652344 126.835938 329.46875 125.476562 C 330.285156 124.117188 331.132812 122.78125 332.011719 121.460938 C 332.890625 120.144531 333.804688 118.847656 334.75 117.578125 C 335.691406 116.304688 336.667969 115.054688 337.671875 113.828125 C 338.679688 112.605469 339.714844 111.40625 340.777344 110.230469 C 341.84375 109.054688 342.933594 107.910156 344.054688 106.789062 C 345.175781 105.667969 346.324219 104.574219 347.496094 103.511719 C 348.671875 102.445312 349.871094 101.410156 351.097656 100.40625 C 352.320312 99.398438 353.570312 98.425781 354.84375 97.480469 C 356.117188 96.535156 357.414062 95.625 358.730469 94.746094 C 360.046875 93.863281 361.386719 93.015625 362.746094 92.203125 C 364.105469 91.386719 365.484375 90.605469 366.882812 89.859375 C 368.28125 89.109375 369.695312 88.398438 371.128906 87.722656 C 372.558594 87.042969 374.007812 86.402344 375.472656 85.796875 C 376.9375 85.1875 378.414062 84.617188 379.90625 84.085938 C 381.398438 83.550781 382.90625 83.054688 384.421875 82.59375 C 385.9375 82.132812 387.464844 81.710938 389.003906 81.324219 C 390.539062 80.941406 392.085938 80.59375 393.640625 80.285156 C 395.195312 79.976562 396.753906 79.703125 398.324219 79.472656 C 399.890625 79.238281 401.464844 79.046875 403.039062 78.890625 C 404.617188 78.734375 406.199219 78.617188 407.78125 78.539062 C 409.363281 78.460938 410.949219 78.421875 412.53125 78.421875 C 414.117188 78.421875 415.703125 78.460938 417.285156 78.539062 C 418.867188 78.617188 420.449219 78.734375 422.023438 78.890625 C 423.601562 79.046875 425.175781 79.238281 426.742188 79.472656 C 428.308594 79.703125 429.871094 79.976562 431.425781 80.285156 C 432.980469 80.59375 434.527344 80.941406 436.0625 81.324219 C 437.601562 81.710938 439.128906 82.132812 440.644531 82.59375 C 442.160156 83.054688 443.664062 83.550781 445.15625 84.085938 C 446.648438 84.617188 448.128906 85.1875 449.59375 85.796875 C 451.054688 86.402344 452.503906 87.042969 453.9375 87.722656 C 455.371094 88.398438 456.785156 89.109375 458.183594 89.859375 C 459.582031 90.605469 460.960938 91.386719 462.320312 92.203125 C 463.679688 93.015625 465.015625 93.863281 466.335938 94.746094 C 467.652344 95.625 468.949219 96.535156 470.222656 97.480469 C 471.492188 98.425781 472.742188 99.398438 473.96875 100.40625 C 475.191406 101.410156 476.394531 102.445312 477.566406 103.511719 C 478.742188 104.574219 479.890625 105.667969 481.007812 106.789062 C 482.128906 107.910156 483.222656 109.054688 484.289062 110.230469 C 485.351562 111.40625 486.386719 112.605469 487.390625 113.828125 C 488.398438 115.054688 489.371094 116.304688 490.316406 117.578125 C 491.261719 118.847656 492.171875 120.144531 493.054688 121.460938 C 493.933594 122.78125 494.78125 124.117188 495.597656 125.476562 C 496.410156 126.835938 497.191406 128.214844 497.9375 129.613281 C 498.6875 131.011719 499.398438 132.425781 500.074219 133.859375 C 500.753906 135.292969 501.394531 136.742188 502.003906 138.207031 C 502.609375 139.667969 503.179688 141.148438 503.710938 142.640625 C 504.246094 144.132812 504.742188 145.636719 505.203125 147.152344 C 505.664062 148.671875 506.085938 150.195312 506.472656 151.734375 C 506.855469 153.273438 507.203125 154.816406 507.511719 156.371094 C 507.824219 157.925781 508.09375 159.488281 508.324219 161.054688 C 508.558594 162.621094 508.753906 164.195312 508.90625 165.773438 C 509.0625 167.351562 509.179688 168.929688 509.257812 170.511719 C 509.335938 172.097656 509.375 173.679688 509.375 175.265625 Z M 509.375 175.265625 " fill-opacity="1" fill-rule="nonzero"/><path fill="#e6a6f8" d="M 412.535156 92.574219 C 366.863281 92.574219 329.839844 129.59375 329.839844 175.265625 C 329.839844 220.9375 366.863281 257.960938 412.535156 257.960938 C 458.203125 257.960938 495.226562 220.9375 495.226562 175.265625 C 495.226562 129.59375 458.203125 92.574219 412.535156 92.574219 Z M 412.535156 139.371094 C 406.3125 139.371094 401.265625 134.328125 401.265625 128.101562 C 401.265625 121.882812 406.3125 116.835938 412.535156 116.835938 C 418.757812 116.835938 423.800781 121.882812 423.800781 128.101562 C 423.800781 134.328125 418.753906 139.371094 412.535156 139.371094 Z M 412.535156 139.371094 " fill-opacity="1" fill-rule="nonzero"/><path fill="#e6a6f8" d="M 436.113281 128.101562 C 436.113281 128.875 436.078125 129.644531 436 130.414062 C 435.925781 131.183594 435.8125 131.945312 435.660156 132.703125 C 435.511719 133.460938 435.324219 134.210938 435.097656 134.949219 C 434.875 135.6875 434.613281 136.414062 434.320312 137.128906 C 434.023438 137.839844 433.695312 138.539062 433.328125 139.21875 C 432.964844 139.902344 432.570312 140.5625 432.140625 141.203125 C 431.710938 141.847656 431.25 142.464844 430.761719 143.0625 C 430.269531 143.660156 429.753906 144.230469 429.207031 144.777344 C 428.660156 145.324219 428.089844 145.84375 427.492188 146.332031 C 426.894531 146.824219 426.277344 147.28125 425.632812 147.710938 C 424.992188 148.140625 424.328125 148.535156 423.648438 148.902344 C 422.96875 149.265625 422.269531 149.59375 421.558594 149.890625 C 420.84375 150.1875 420.117188 150.445312 419.378906 150.667969 C 418.640625 150.894531 417.890625 151.082031 417.132812 151.230469 C 416.375 151.382812 415.613281 151.496094 414.84375 151.570312 C 414.074219 151.648438 413.304688 151.683594 412.53125 151.683594 C 411.761719 151.683594 410.988281 151.648438 410.222656 151.570312 C 409.453125 151.496094 408.691406 151.382812 407.933594 151.230469 C 407.175781 151.082031 406.425781 150.894531 405.6875 150.667969 C 404.949219 150.445312 404.222656 150.1875 403.507812 149.890625 C 402.792969 149.59375 402.097656 149.265625 401.417969 148.902344 C 400.734375 148.535156 400.074219 148.140625 399.429688 147.710938 C 398.789062 147.28125 398.167969 146.824219 397.574219 146.332031 C 396.976562 145.84375 396.402344 145.324219 395.859375 144.777344 C 395.3125 144.230469 394.792969 143.660156 394.304688 143.0625 C 393.8125 142.464844 393.355469 141.847656 392.925781 141.203125 C 392.496094 140.5625 392.097656 139.902344 391.734375 139.21875 C 391.371094 138.539062 391.042969 137.839844 390.746094 137.128906 C 390.449219 136.414062 390.191406 135.6875 389.964844 134.949219 C 389.742188 134.210938 389.554688 133.460938 389.402344 132.703125 C 389.253906 131.945312 389.140625 131.183594 389.066406 130.414062 C 388.988281 129.644531 388.949219 128.875 388.949219 128.101562 C 388.949219 127.332031 388.988281 126.5625 389.066406 125.792969 C 389.140625 125.023438 389.253906 124.261719 389.402344 123.503906 C 389.554688 122.746094 389.742188 121.996094 389.964844 121.257812 C 390.191406 120.519531 390.449219 119.792969 390.746094 119.078125 C 391.042969 118.367188 391.371094 117.667969 391.734375 116.988281 C 392.097656 116.304688 392.496094 115.644531 392.925781 115.003906 C 393.355469 114.359375 393.8125 113.742188 394.304688 113.144531 C 394.792969 112.546875 395.3125 111.976562 395.859375 111.429688 C 396.402344 110.882812 396.976562 110.363281 397.574219 109.875 C 398.167969 109.382812 398.789062 108.925781 399.429688 108.496094 C 400.074219 108.066406 400.734375 107.671875 401.417969 107.304688 C 402.097656 106.941406 402.792969 106.613281 403.507812 106.316406 C 404.222656 106.019531 404.949219 105.761719 405.6875 105.539062 C 406.425781 105.3125 407.175781 105.125 407.933594 104.976562 C 408.691406 104.824219 409.453125 104.710938 410.222656 104.636719 C 410.988281 104.558594 411.761719 104.523438 412.53125 104.523438 C 413.304688 104.523438 414.074219 104.558594 414.84375 104.636719 C 415.613281 104.710938 416.375 104.824219 417.132812 104.976562 C 417.890625 105.125 418.640625 105.3125 419.378906 105.539062 C 420.117188 105.761719 420.84375 106.019531 421.558594 106.316406 C 422.269531 106.613281 422.96875 106.941406 423.648438 107.304688 C 424.328125 107.671875 424.992188 108.066406 425.632812 108.496094 C 426.277344 108.925781 426.894531 109.382812 427.492188 109.875 C 428.089844 110.363281 428.660156 110.882812 429.207031 111.429688 C 429.753906 111.976562 430.269531 112.546875 430.761719 113.144531 C 431.25 113.742188 431.710938 114.359375 432.140625 115.003906 C 432.570312 115.644531 432.964844 116.304688 433.328125 116.988281 C 433.695312 117.667969 434.023438 118.367188 434.320312 119.078125 C 434.613281 119.792969 434.875 120.519531 435.097656 121.257812 C 435.324219 121.996094 435.511719 122.746094 435.660156 123.503906 C 435.8125 124.261719 435.925781 125.023438 436 125.792969 C 436.078125 126.5625 436.113281 127.332031 436.113281 128.101562 Z M 436.113281 128.101562 " fill-opacity="1" fill-rule="nonzero"/><path fill="#292929" d="M 424.710938 127.511719 C 424.710938 128.3125 424.632812 129.105469 424.476562 129.890625 C 424.320312 130.671875 424.089844 131.433594 423.785156 132.171875 C 423.480469 132.914062 423.105469 133.613281 422.660156 134.28125 C 422.214844 134.945312 421.710938 135.558594 421.144531 136.125 C 420.578125 136.691406 419.964844 137.195312 419.300781 137.640625 C 418.632812 138.085938 417.933594 138.460938 417.195312 138.765625 C 416.453125 139.070312 415.691406 139.300781 414.910156 139.457031 C 414.125 139.613281 413.332031 139.691406 412.53125 139.691406 C 411.734375 139.691406 410.941406 139.613281 410.15625 139.457031 C 409.371094 139.300781 408.609375 139.070312 407.871094 138.765625 C 407.132812 138.460938 406.429688 138.085938 405.765625 137.640625 C 405.101562 137.195312 404.484375 136.691406 403.921875 136.125 C 403.355469 135.558594 402.851562 134.945312 402.40625 134.28125 C 401.960938 133.613281 401.585938 132.914062 401.28125 132.171875 C 400.972656 131.433594 400.742188 130.671875 400.585938 129.890625 C 400.429688 129.105469 400.351562 128.3125 400.351562 127.511719 C 400.351562 126.714844 400.429688 125.921875 400.585938 125.136719 C 400.742188 124.351562 400.972656 123.589844 401.28125 122.851562 C 401.585938 122.113281 401.960938 121.410156 402.40625 120.746094 C 402.851562 120.082031 403.355469 119.464844 403.921875 118.902344 C 404.484375 118.335938 405.101562 117.832031 405.765625 117.386719 C 406.429688 116.941406 407.132812 116.566406 407.871094 116.261719 C 408.609375 115.953125 409.371094 115.722656 410.15625 115.566406 C 410.941406 115.410156 411.734375 115.332031 412.53125 115.332031 C 413.332031 115.332031 414.125 115.410156 414.910156 115.566406 C 415.691406 115.722656 416.453125 115.953125 417.195312 116.261719 C 417.933594 116.566406 418.632812 116.941406 419.300781 117.386719 C 419.964844 117.832031 420.578125 118.335938 421.144531 118.902344 C 421.710938 119.464844 422.214844 120.082031 422.660156 120.746094 C 423.105469 121.410156 423.480469 122.113281 423.785156 122.851562 C 424.089844 123.589844 424.320312 124.351562 424.476562 125.136719 C 424.632812 125.921875 424.710938 126.714844 424.710938 127.511719 Z M 424.710938 127.511719 " fill-opacity="1" fill-rule="nonzero"/></svg>