<svg xmlns="http://www.w3.org/2000/svg" xmlns:xlink="http://www.w3.org/1999/xlink" width="1100" zoomAndPan="magnify" viewBox="0 0 824.88 576" height="768" preserveAspectRatio="xMidYMid meet" version="1.0"><defs><clipPath id="6d1fd4641a"><path d="M 170.300781 45.859375 L 654.730469 45.859375 L 654.730469 530.289062 L 170.300781 530.289062 Z M 170.300781 45.859375 " clip-rule="nonzero"/></clipPath></defs><g clip-path="url(#6d1fd4641a)"><path fill="#292929" d="M 654.578125 287.996094 C 654.578125 291.960938 654.480469 295.921875 654.285156 299.878906 C 654.089844 303.835938 653.796875 307.789062 653.410156 311.730469 C 653.023438 315.675781 652.535156 319.605469 651.957031 323.527344 C 651.375 327.445312 650.695312 331.351562 649.921875 335.238281 C 649.152344 339.125 648.28125 342.988281 647.320312 346.832031 C 646.355469 350.675781 645.300781 354.496094 644.148438 358.285156 C 643 362.078125 641.757812 365.839844 640.421875 369.570312 C 639.085938 373.304688 637.660156 377 636.144531 380.660156 C 634.628906 384.320312 633.023438 387.941406 631.328125 391.523438 C 629.632812 395.109375 627.851562 398.644531 625.984375 402.140625 C 624.117188 405.636719 622.164062 409.082031 620.125 412.480469 C 618.089844 415.878906 615.96875 419.226562 613.769531 422.523438 C 611.566406 425.816406 609.285156 429.054688 606.925781 432.238281 C 604.566406 435.421875 602.128906 438.546875 599.613281 441.609375 C 597.097656 444.671875 594.511719 447.671875 591.851562 450.609375 C 589.1875 453.542969 586.457031 456.414062 583.65625 459.214844 C 580.851562 462.019531 577.984375 464.75 575.046875 467.410156 C 572.113281 470.070312 569.113281 472.660156 566.046875 475.171875 C 562.984375 477.6875 559.863281 480.125 556.679688 482.484375 C 553.496094 484.847656 550.257812 487.128906 546.960938 489.328125 C 543.667969 491.53125 540.320312 493.648438 536.921875 495.6875 C 533.523438 497.722656 530.074219 499.675781 526.582031 501.542969 C 523.085938 503.414062 519.546875 505.195312 515.964844 506.886719 C 512.382812 508.582031 508.761719 510.1875 505.101562 511.703125 C 501.4375 513.222656 497.742188 514.648438 494.011719 515.980469 C 490.28125 517.316406 486.519531 518.558594 482.726562 519.710938 C 478.933594 520.859375 475.117188 521.917969 471.273438 522.878906 C 467.429688 523.84375 463.5625 524.710938 459.675781 525.484375 C 455.789062 526.257812 451.886719 526.933594 447.964844 527.515625 C 444.046875 528.097656 440.113281 528.582031 436.171875 528.96875 C 432.226562 529.359375 428.277344 529.648438 424.320312 529.84375 C 420.359375 530.039062 416.402344 530.136719 412.4375 530.136719 C 408.476562 530.136719 404.515625 530.039062 400.554688 529.84375 C 396.597656 529.648438 392.648438 529.359375 388.703125 528.96875 C 384.761719 528.582031 380.828125 528.097656 376.910156 527.515625 C 372.988281 526.933594 369.085938 526.257812 365.199219 525.484375 C 361.3125 524.710938 357.445312 523.84375 353.601562 522.878906 C 349.757812 521.917969 345.941406 520.859375 342.148438 519.710938 C 338.355469 518.558594 334.59375 517.316406 330.863281 515.980469 C 327.132812 514.648438 323.4375 513.222656 319.773438 511.703125 C 316.113281 510.1875 312.492188 508.582031 308.910156 506.886719 C 305.328125 505.195312 301.789062 503.414062 298.292969 501.542969 C 294.800781 499.675781 291.351562 497.722656 287.953125 495.6875 C 284.554688 493.648438 281.207031 491.53125 277.914062 489.328125 C 274.617188 487.128906 271.378906 484.847656 268.195312 482.484375 C 265.011719 480.125 261.890625 477.6875 258.828125 475.171875 C 255.761719 472.660156 252.761719 470.070312 249.828125 467.410156 C 246.890625 464.75 244.023438 462.019531 241.21875 459.214844 C 238.417969 456.414062 235.6875 453.542969 233.023438 450.609375 C 230.363281 447.671875 227.777344 444.671875 225.261719 441.609375 C 222.75 438.546875 220.3125 435.421875 217.949219 432.238281 C 215.589844 429.054688 213.308594 425.816406 211.105469 422.523438 C 208.90625 419.226562 206.785156 415.878906 204.75 412.480469 C 202.710938 409.082031 200.757812 405.636719 198.890625 402.140625 C 197.023438 398.644531 195.242188 395.109375 193.546875 391.523438 C 191.851562 387.941406 190.246094 384.320312 188.730469 380.660156 C 187.214844 377 185.789062 373.304688 184.453125 369.570312 C 183.117188 365.839844 181.875 362.078125 180.726562 358.285156 C 179.574219 354.496094 178.519531 350.675781 177.554688 346.832031 C 176.59375 342.988281 175.726562 339.125 174.953125 335.238281 C 174.179688 331.351562 173.5 327.445312 172.917969 323.527344 C 172.339844 319.605469 171.851562 315.675781 171.464844 311.730469 C 171.078125 307.789062 170.785156 303.835938 170.589844 299.878906 C 170.394531 295.921875 170.300781 291.960938 170.300781 287.996094 C 170.300781 284.035156 170.394531 280.074219 170.589844 276.117188 C 170.785156 272.160156 171.078125 268.207031 171.464844 264.265625 C 171.851562 260.320312 172.339844 256.386719 172.917969 252.46875 C 173.5 248.546875 174.179688 244.644531 174.953125 240.757812 C 175.726562 236.871094 176.59375 233.007812 177.554688 229.164062 C 178.519531 225.320312 179.574219 221.5 180.726562 217.707031 C 181.875 213.917969 183.117188 210.15625 184.453125 206.421875 C 185.789062 202.691406 187.214844 198.996094 188.730469 195.335938 C 190.246094 191.675781 191.851562 188.050781 193.546875 184.46875 C 195.242188 180.886719 197.023438 177.347656 198.890625 173.855469 C 200.757812 170.359375 202.710938 166.914062 204.75 163.511719 C 206.785156 160.113281 208.90625 156.769531 211.105469 153.472656 C 213.308594 150.179688 215.589844 146.9375 217.949219 143.757812 C 220.3125 140.574219 222.75 137.449219 225.261719 134.386719 C 227.777344 131.324219 230.363281 128.324219 233.023438 125.386719 C 235.6875 122.449219 238.417969 119.582031 241.21875 116.78125 C 244.023438 113.976562 246.890625 111.246094 249.828125 108.585938 C 252.761719 105.921875 255.761719 103.335938 258.828125 100.820312 C 261.890625 98.308594 265.011719 95.871094 268.195312 93.511719 C 271.378906 91.148438 274.617188 88.867188 277.914062 86.667969 C 281.207031 84.464844 284.554688 82.347656 287.953125 80.308594 C 291.351562 78.269531 294.800781 76.320312 298.292969 74.449219 C 301.789062 72.582031 305.328125 70.800781 308.910156 69.105469 C 312.492188 67.414062 316.113281 65.808594 319.773438 64.289062 C 323.4375 62.773438 327.132812 61.347656 330.863281 60.011719 C 334.59375 58.679688 338.355469 57.4375 342.148438 56.285156 C 345.941406 55.136719 349.757812 54.078125 353.601562 53.117188 C 357.445312 52.152344 361.3125 51.285156 365.199219 50.511719 C 369.085938 49.738281 372.988281 49.0625 376.910156 48.480469 C 380.828125 47.898438 384.761719 47.414062 388.703125 47.023438 C 392.648438 46.636719 396.597656 46.34375 400.554688 46.152344 C 404.515625 45.957031 408.476562 45.859375 412.4375 45.859375 C 416.402344 45.859375 420.359375 45.957031 424.320312 46.152344 C 428.277344 46.34375 432.226562 46.636719 436.171875 47.023438 C 440.113281 47.414062 444.046875 47.898438 447.964844 48.480469 C 451.886719 49.0625 455.789062 49.738281 459.675781 50.511719 C 463.5625 51.285156 467.429688 52.152344 471.273438 53.117188 C 475.117188 54.078125 478.933594 55.136719 482.726562 56.285156 C 486.519531 57.4375 490.28125 58.679688 494.011719 60.011719 C 497.742188 61.347656 501.4375 62.773438 505.101562 64.289062 C 508.761719 65.808594 512.382812 67.414062 515.964844 69.105469 C 519.546875 70.800781 523.085938 72.582031 526.582031 74.449219 C 530.074219 76.320312 533.523438 78.269531 536.921875 80.308594 C 540.320312 82.347656 543.667969 84.464844 546.960938 86.667969 C 550.257812 88.867188 553.496094 91.148438 556.679688 93.511719 C 559.863281 95.871094 562.984375 98.308594 566.046875 100.820312 C 569.113281 103.335938 572.113281 105.921875 575.046875 108.585938 C 577.984375 111.246094 580.851562 113.976562 583.65625 116.78125 C 586.457031 119.582031 589.1875 122.449219 591.851562 125.386719 C 594.511719 128.324219 597.097656 131.324219 599.613281 134.386719 C 602.128906 137.449219 604.566406 140.574219 606.925781 143.757812 C 609.285156 146.9375 611.566406 150.179688 613.769531 153.472656 C 615.96875 156.769531 618.089844 160.113281 620.125 163.511719 C 622.164062 166.914062 624.117188 170.359375 625.984375 173.855469 C 627.851562 177.347656 629.632812 180.886719 631.328125 184.46875 C 633.023438 188.050781 634.628906 191.675781 636.144531 195.335938 C 637.660156 198.996094 639.085938 202.691406 640.421875 206.421875 C 641.757812 210.15625 643 213.917969 644.148438 217.707031 C 645.300781 221.5 646.355469 225.320312 647.320312 229.164062 C 648.28125 233.007812 649.152344 236.871094 649.921875 240.757812 C 650.695312 244.644531 651.375 248.546875 651.957031 252.46875 C 652.535156 256.386719 653.023438 260.320312 653.410156 264.265625 C 653.796875 268.207031 654.089844 272.160156 654.285156 276.117188 C 654.480469 280.074219 654.578125 284.035156 654.578125 287.996094 Z M 654.578125 287.996094 " fill-opacity="1" fill-rule="nonzero"/></g><path fill="#e6a6f8" d="M 489.28125 332.980469 C 487.503906 332.980469 485.730469 333.074219 483.964844 333.269531 C 482.195312 333.460938 480.445312 333.753906 478.710938 334.140625 C 476.976562 334.527344 475.265625 335.007812 473.585938 335.582031 C 471.902344 336.15625 470.257812 336.820312 468.648438 337.578125 C 467.039062 338.335938 465.476562 339.175781 463.960938 340.105469 C 462.445312 341.035156 460.984375 342.042969 459.582031 343.132812 C 458.175781 344.222656 456.835938 345.386719 455.558594 346.625 C 454.285156 347.863281 453.082031 349.167969 451.949219 350.539062 L 346.882812 300.769531 C 347.472656 297.703125 347.773438 294.609375 347.777344 291.484375 C 347.777344 287.875 347.375 284.308594 346.574219 280.789062 L 452.832031 226.546875 C 453.449219 227.25 454.085938 227.933594 454.746094 228.601562 C 455.402344 229.265625 456.078125 229.910156 456.773438 230.539062 C 457.46875 231.164062 458.179688 231.769531 458.910156 232.355469 C 459.640625 232.941406 460.386719 233.503906 461.152344 234.046875 C 461.914062 234.589844 462.691406 235.109375 463.484375 235.605469 C 464.277344 236.101562 465.085938 236.574219 465.90625 237.027344 C 466.726562 237.476562 467.558594 237.902344 468.402344 238.304688 C 469.25 238.707031 470.105469 239.082031 470.972656 239.433594 C 471.839844 239.789062 472.714844 240.113281 473.601562 240.414062 C 474.488281 240.71875 475.382812 240.992188 476.285156 241.242188 C 477.183594 241.492188 478.09375 241.714844 479.007812 241.914062 C 479.921875 242.109375 480.84375 242.28125 481.769531 242.421875 C 482.691406 242.566406 483.621094 242.683594 484.550781 242.773438 C 485.484375 242.863281 486.417969 242.925781 487.351562 242.960938 C 488.289062 243 489.222656 243.007812 490.160156 242.988281 C 491.09375 242.96875 492.027344 242.925781 492.960938 242.851562 C 493.894531 242.78125 494.824219 242.679688 495.75 242.554688 C 496.679688 242.425781 497.601562 242.273438 498.519531 242.09375 C 499.4375 241.914062 500.351562 241.707031 501.257812 241.476562 C 502.164062 241.242188 503.0625 240.984375 503.953125 240.699219 C 504.84375 240.414062 505.726562 240.101562 506.601562 239.765625 C 507.476562 239.429688 508.335938 239.070312 509.191406 238.683594 C 510.042969 238.296875 510.882812 237.886719 511.710938 237.453125 C 512.539062 237.019531 513.355469 236.558594 514.160156 236.078125 C 514.960938 235.59375 515.75 235.089844 516.519531 234.5625 C 517.292969 234.035156 518.050781 233.484375 518.792969 232.914062 C 519.53125 232.34375 520.257812 231.75 520.964844 231.136719 C 521.671875 230.523438 522.359375 229.890625 523.027344 229.238281 C 523.699219 228.582031 524.347656 227.910156 524.980469 227.21875 C 525.609375 226.527344 526.222656 225.820312 526.8125 225.09375 C 527.402344 224.367188 527.96875 223.625 528.515625 222.863281 C 529.0625 222.105469 529.589844 221.332031 530.089844 220.539062 C 530.59375 219.75 531.070312 218.949219 531.527344 218.128906 C 531.980469 217.3125 532.414062 216.480469 532.820312 215.640625 C 533.226562 214.796875 533.609375 213.945312 533.96875 213.078125 C 534.324219 212.214844 534.660156 211.339844 534.964844 210.457031 C 535.273438 209.570312 535.554688 208.679688 535.808594 207.78125 C 536.066406 206.878906 536.292969 205.972656 536.496094 205.058594 C 536.699219 204.144531 536.875 203.226562 537.027344 202.300781 C 537.175781 201.378906 537.296875 200.453125 537.394531 199.519531 C 537.488281 198.589844 537.558594 197.65625 537.601562 196.722656 C 537.644531 195.785156 537.65625 194.851562 537.644531 193.914062 C 537.632812 192.980469 537.59375 192.046875 537.527344 191.113281 C 537.460938 190.179688 537.367188 189.246094 537.246094 188.320312 C 537.125 187.390625 536.980469 186.46875 536.804688 185.546875 C 536.628906 184.628906 536.429688 183.714844 536.203125 182.808594 C 535.976562 181.898438 535.722656 181 535.445312 180.105469 C 535.164062 179.210938 534.859375 178.328125 534.53125 177.453125 C 534.199219 176.578125 533.84375 175.710938 533.464844 174.855469 C 533.082031 174 532.679688 173.160156 532.25 172.328125 C 531.820312 171.496094 531.367188 170.675781 530.890625 169.871094 C 530.410156 169.066406 529.914062 168.277344 529.390625 167.5 C 528.867188 166.722656 528.324219 165.964844 527.753906 165.21875 C 527.1875 164.472656 526.601562 163.746094 525.992188 163.035156 C 525.382812 162.324219 524.753906 161.632812 524.105469 160.957031 C 523.457031 160.285156 522.789062 159.628906 522.101562 158.992188 C 521.414062 158.359375 520.710938 157.742188 519.988281 157.148438 C 519.265625 156.554688 518.523438 155.980469 517.769531 155.429688 C 517.011719 154.878906 516.242188 154.347656 515.457031 153.839844 C 514.667969 153.332031 513.867188 152.851562 513.054688 152.390625 C 512.238281 151.929688 511.410156 151.492188 510.570312 151.078125 C 509.730469 150.667969 508.878906 150.277344 508.019531 149.914062 C 507.15625 149.550781 506.285156 149.214844 505.402344 148.898438 C 504.519531 148.585938 503.628906 148.300781 502.730469 148.039062 C 501.832031 147.777344 500.925781 147.542969 500.015625 147.335938 C 499.101562 147.125 498.183594 146.941406 497.261719 146.789062 C 496.339844 146.632812 495.414062 146.503906 494.480469 146.402344 C 493.550781 146.300781 492.621094 146.222656 491.683594 146.175781 C 490.75 146.128906 489.816406 146.109375 488.878906 146.113281 C 487.945312 146.121094 487.007812 146.152344 486.074219 146.214844 C 485.140625 146.273438 484.210938 146.363281 483.28125 146.476562 C 482.351562 146.589844 481.425781 146.734375 480.507812 146.902344 C 479.585938 147.070312 478.671875 147.261719 477.761719 147.484375 C 476.851562 147.707031 475.949219 147.953125 475.054688 148.226562 C 474.160156 148.5 473.273438 148.796875 472.394531 149.125 C 471.519531 149.449219 470.652344 149.796875 469.792969 150.171875 C 468.9375 150.546875 468.089844 150.949219 467.257812 151.371094 C 466.421875 151.796875 465.601562 152.242188 464.792969 152.714844 C 463.984375 153.1875 463.191406 153.679688 462.410156 154.199219 C 461.632812 154.71875 460.867188 155.257812 460.117188 155.820312 C 459.371094 156.378906 458.640625 156.964844 457.925781 157.566406 C 457.210938 158.171875 456.511719 158.796875 455.835938 159.441406 C 455.15625 160.085938 454.496094 160.75 453.859375 161.433594 C 453.21875 162.117188 452.597656 162.816406 452 163.535156 C 451.398438 164.253906 450.820312 164.988281 450.265625 165.742188 C 449.707031 166.496094 449.175781 167.261719 448.660156 168.046875 C 448.148438 168.828125 447.660156 169.625 447.195312 170.4375 C 446.730469 171.25 446.285156 172.074219 445.867188 172.910156 C 445.449219 173.75 445.058594 174.597656 444.6875 175.457031 C 444.320312 176.316406 443.976562 177.1875 443.65625 178.066406 C 443.339844 178.945312 443.046875 179.835938 442.777344 180.730469 C 442.511719 181.628906 442.269531 182.53125 442.054688 183.445312 C 441.839844 184.355469 441.652344 185.269531 441.492188 186.191406 C 441.332031 187.113281 441.195312 188.039062 441.085938 188.96875 C 440.980469 189.898438 440.898438 190.832031 440.84375 191.765625 C 440.789062 192.699219 440.765625 193.636719 440.765625 194.570312 C 440.769531 198.175781 441.167969 201.738281 441.957031 205.253906 L 335.609375 259.507812 C 334.527344 258.277344 333.382812 257.105469 332.183594 255.988281 C 330.980469 254.871094 329.726562 253.820312 328.417969 252.832031 C 327.105469 251.84375 325.75 250.925781 324.351562 250.074219 C 322.949219 249.222656 321.503906 248.445312 320.023438 247.742188 C 318.542969 247.039062 317.03125 246.410156 315.484375 245.859375 C 313.941406 245.308594 312.371094 244.839844 310.777344 244.449219 C 309.1875 244.058594 307.578125 243.746094 305.953125 243.519531 C 304.328125 243.292969 302.699219 243.148438 301.058594 243.085938 C 299.421875 243.023438 297.78125 243.042969 296.144531 243.148438 C 294.507812 243.253906 292.882812 243.441406 291.265625 243.710938 C 289.648438 243.980469 288.046875 244.328125 286.464844 244.761719 C 284.882812 245.195312 283.328125 245.703125 281.796875 246.292969 C 280.265625 246.886719 278.769531 247.550781 277.308594 248.292969 C 275.84375 249.035156 274.425781 249.847656 273.042969 250.734375 C 271.664062 251.621094 270.332031 252.574219 269.050781 253.597656 C 267.765625 254.621094 266.539062 255.703125 265.367188 256.847656 C 264.195312 257.996094 263.082031 259.199219 262.03125 260.457031 C 260.980469 261.71875 259.996094 263.027344 259.078125 264.386719 C 258.160156 265.746094 257.316406 267.148438 256.539062 268.59375 C 255.765625 270.039062 255.0625 271.519531 254.4375 273.035156 C 253.8125 274.550781 253.269531 276.09375 252.800781 277.667969 C 252.332031 279.238281 251.945312 280.828125 251.636719 282.441406 C 251.332031 284.050781 251.105469 285.675781 250.964844 287.308594 C 250.824219 288.941406 250.765625 290.578125 250.789062 292.21875 C 250.8125 293.859375 250.921875 295.492188 251.113281 297.121094 C 251.304688 298.75 251.574219 300.367188 251.929688 301.964844 C 252.285156 303.566406 252.71875 305.148438 253.234375 306.703125 C 253.75 308.261719 254.34375 309.789062 255.011719 311.285156 C 255.683594 312.78125 256.425781 314.242188 257.246094 315.664062 C 258.0625 317.082031 258.949219 318.460938 259.910156 319.789062 C 260.867188 321.121094 261.890625 322.402344 262.976562 323.628906 C 264.066406 324.855469 265.214844 326.023438 266.417969 327.136719 C 267.625 328.246094 268.886719 329.292969 270.199219 330.273438 C 271.511719 331.257812 272.871094 332.171875 274.277344 333.015625 C 275.683594 333.859375 277.128906 334.632812 278.613281 335.328125 C 280.097656 336.027344 281.613281 336.648438 283.160156 337.191406 C 284.707031 337.738281 286.277344 338.199219 287.871094 338.585938 C 289.464844 338.96875 291.074219 339.273438 292.699219 339.492188 C 294.324219 339.714844 295.957031 339.851562 297.597656 339.90625 C 299.234375 339.964844 300.871094 339.933594 302.507812 339.824219 C 304.144531 339.714844 305.773438 339.519531 307.386719 339.242188 C 309.003906 338.964844 310.601562 338.609375 312.183594 338.171875 C 313.761719 337.730469 315.316406 337.214844 316.84375 336.617188 C 318.371094 336.019531 319.867188 335.347656 321.324219 334.601562 C 322.785156 333.851562 324.203125 333.03125 325.578125 332.140625 C 326.957031 331.25 328.28125 330.289062 329.5625 329.261719 C 330.839844 328.234375 332.0625 327.144531 333.230469 325.996094 C 334.398438 324.84375 335.507812 323.636719 336.550781 322.371094 L 441.660156 372.140625 C 441.34375 373.761719 441.113281 375.394531 440.960938 377.039062 C 440.8125 378.683594 440.746094 380.332031 440.765625 381.984375 C 440.78125 383.636719 440.886719 385.285156 441.074219 386.925781 C 441.261719 388.566406 441.53125 390.195312 441.882812 391.808594 C 442.238281 393.421875 442.671875 395.015625 443.1875 396.582031 C 443.703125 398.152344 444.300781 399.691406 444.972656 401.199219 C 445.648438 402.710938 446.398438 404.179688 447.222656 405.613281 C 448.046875 407.042969 448.941406 408.429688 449.90625 409.769531 C 450.871094 411.109375 451.902344 412.398438 453 413.632812 C 454.097656 414.867188 455.257812 416.042969 456.476562 417.160156 C 457.691406 418.277344 458.964844 419.328125 460.289062 420.3125 C 461.613281 421.300781 462.988281 422.214844 464.40625 423.0625 C 465.824219 423.90625 467.285156 424.679688 468.78125 425.375 C 470.28125 426.074219 471.808594 426.691406 473.371094 427.230469 C 474.933594 427.773438 476.515625 428.230469 478.125 428.609375 C 479.734375 428.988281 481.355469 429.28125 482.996094 429.496094 C 484.632812 429.707031 486.28125 429.835938 487.929688 429.878906 C 489.582031 429.921875 491.230469 429.882812 492.878906 429.757812 C 494.527344 429.632812 496.164062 429.425781 497.789062 429.132812 C 499.414062 428.839844 501.023438 428.464844 502.609375 428.007812 C 504.199219 427.550781 505.757812 427.015625 507.292969 426.398438 C 508.824219 425.785156 510.320312 425.089844 511.785156 424.320312 C 513.246094 423.550781 514.664062 422.710938 516.042969 421.796875 C 517.417969 420.882812 518.742188 419.898438 520.019531 418.847656 C 521.292969 417.796875 522.511719 416.6875 523.675781 415.511719 C 524.835938 414.335938 525.933594 413.105469 526.96875 411.816406 C 528.007812 410.53125 528.972656 409.195312 529.871094 407.808594 C 530.773438 406.421875 531.597656 404.992188 532.351562 403.523438 C 533.105469 402.050781 533.78125 400.546875 534.378906 399.007812 C 534.976562 397.46875 535.496094 395.902344 535.933594 394.308594 C 536.375 392.714844 536.730469 391.105469 537.003906 389.476562 C 537.277344 387.847656 537.46875 386.207031 537.574219 384.558594 C 537.679688 382.910156 537.703125 381.261719 537.640625 379.609375 C 537.578125 377.957031 537.433594 376.316406 537.203125 374.679688 C 536.972656 373.042969 536.65625 371.421875 536.261719 369.820312 C 535.867188 368.214844 535.386719 366.636719 534.832031 365.078125 C 534.273438 363.523438 533.636719 362.003906 532.921875 360.511719 C 532.210938 359.023438 531.421875 357.570312 530.5625 356.164062 C 529.699219 354.753906 528.765625 353.390625 527.765625 352.078125 C 526.765625 350.761719 525.699219 349.503906 524.570312 348.296875 C 523.441406 347.09375 522.25 345.949219 521.003906 344.863281 C 519.757812 343.78125 518.457031 342.761719 517.105469 341.8125 C 515.753906 340.859375 514.359375 339.980469 512.917969 339.171875 C 511.476562 338.367188 510 337.632812 508.484375 336.976562 C 506.96875 336.320312 505.421875 335.742188 503.847656 335.242188 C 502.269531 334.742188 500.675781 334.328125 499.058594 333.992188 C 497.4375 333.65625 495.808594 333.402344 494.164062 333.234375 C 492.523438 333.066406 490.875 332.980469 489.222656 332.980469 Z M 489.28125 332.980469 " fill-opacity="1" fill-rule="nonzero"/></svg>