<svg xmlns="http://www.w3.org/2000/svg" xmlns:xlink="http://www.w3.org/1999/xlink" width="1370" zoomAndPan="magnify" viewBox="0 0 1027.5 576" height="768" preserveAspectRatio="xMidYMid meet" version="1.0"><defs><clipPath id="ee8720442c"><path d="M 0 0.140625 L 1027 0.140625 L 1027 575.859375 L 0 575.859375 Z M 0 0.140625 " clip-rule="nonzero"/></clipPath><clipPath id="08addda62f"><path d="M 0 0.140625 L 1027 0.140625 L 1027 253 L 0 253 Z M 0 0.140625 " clip-rule="nonzero"/></clipPath><clipPath id="a9088bbcfd"><path d="M 451.375 -752.367188 L 1646.414062 67.152344 L 1097.382812 867.757812 L -97.65625 48.238281 Z M 451.375 -752.367188 " clip-rule="nonzero"/></clipPath><clipPath id="e9185a997f"><path d="M 451.375 -752.367188 L 1646.414062 67.152344 L 1097.382812 867.757812 L -97.65625 48.238281 Z M 451.375 -752.367188 " clip-rule="nonzero"/></clipPath><clipPath id="6454840486"><path d="M 451.242188 -752.175781 L 1646.253906 67.324219 L 826.753906 1262.335938 L -368.257812 442.832031 Z M 451.242188 -752.175781 " clip-rule="nonzero"/></clipPath></defs><g clip-path="url(#ee8720442c)"><path fill="#ffffff" d="M 0 0.140625 L 1027 0.140625 L 1027 575.859375 L 0 575.859375 Z M 0 0.140625 " fill-opacity="1" fill-rule="nonzero"/><path fill="#ffffff" d="M 0 0.140625 L 1027 0.140625 L 1027 575.859375 L 0 575.859375 Z M 0 0.140625 " fill-opacity="1" fill-rule="nonzero"/></g><g clip-path="url(#08addda62f)"><g clip-path="url(#a9088bbcfd)"><g clip-path="url(#e9185a997f)"><g clip-path="url(#6454840486)"><path fill="#e6a6f8" d="M -587.457031 -628.285156 C 285.871094 -1036.199219 995.492188 -1425.417969 1556.722656 -1764.898438 C 1516.902344 -1030.433594 1826.421875 -380.144531 2359.953125 9.324219 C 2283.683594 32.464844 2180.507812 89.214844 2046.746094 176.03125 C 1962.632812 155.160156 1911.605469 140.90625 1896.90625 137.132812 C 1646.027344 66.765625 1483.6875 37.792969 1342.65625 47.4375 C 1203.128906 56.074219 1092.65625 94.398438 980.695312 136.378906 C 870.714844 179.917969 760.367188 222.804688 630.925781 242.832031 C 502.1875 262.125 354.171875 258.230469 184.175781 192.085938 C 19.316406 128.242188 -104.355469 23.90625 -194.433594 -91.753906 C -285.636719 -206.964844 -343.242188 -333.507812 -404.15625 -431.203125 C -458.582031 -519.976562 -513.066406 -586.417969 -587.457031 -628.285156 Z M -587.457031 -628.285156 " fill-opacity="1" fill-rule="nonzero"/></g></g></g></g></svg>