<svg xmlns="http://www.w3.org/2000/svg" xmlns:xlink="http://www.w3.org/1999/xlink" width="1366" zoomAndPan="magnify" viewBox="0 0 1024.5 576" height="768" preserveAspectRatio="xMidYMid meet" version="1.0"><defs><clipPath id="528cbf37fd"><path d="M 0 0.140625 L 1024 0.140625 L 1024 575.859375 L 0 575.859375 Z M 0 0.140625 " clip-rule="nonzero"/></clipPath><clipPath id="d5df361dd7"><path d="M 0 0.324219 L 1024 0.324219 L 1024 575.859375 L 0 575.859375 Z M 0 0.324219 " clip-rule="nonzero"/></clipPath></defs><g clip-path="url(#528cbf37fd)"><path fill="#ffffff" d="M 0 0.140625 L 1024 0.140625 L 1024 575.859375 L 0 575.859375 Z M 0 0.140625 " fill-opacity="1" fill-rule="nonzero"/><path fill="#ffffff" d="M 0 0.140625 L 1024 0.140625 L 1024 575.859375 L 0 575.859375 Z M 0 0.140625 " fill-opacity="1" fill-rule="nonzero"/></g><g clip-path="url(#d5df361dd7)"><path fill="#fce37c" d="M -752.46875 548.324219 C -363.457031 -111.488281 -73.332031 -685.476562 141.898438 -1160.175781 C 445.882812 -660.953125 940.972656 -373.894531 1465.652344 -358.433594 C 1426.070312 -308.992188 1383.957031 -225.433594 1335.3125 -108.421875 C 1270.8125 -84.300781 1230.964844 -70.707031 1219.636719 -66.578125 C 1023.601562 0.0546875 904.191406 54.03125 816.101562 123.730469 C 728.542969 192.097656 673.371094 266.859375 618.863281 344.6875 C 566.355469 422.648438 513.316406 500.347656 437.484375 571.644531 C 361.789062 642.144531 263.039062 706.113281 121.90625 739.164062 C -14.828125 771.414062 -142.765625 758.621094 -253.777344 723.304688 C -365.324219 688.785156 -459.941406 631.75 -543.769531 595.097656 C -619.332031 561.382812 -684.898438 542.324219 -752.46875 548.324219 Z M -752.46875 548.324219 " fill-opacity="1" fill-rule="nonzero"/></g></svg>